G75*
%MOIN*%
%OFA0B0*%
%FSLAX25Y25*%
%IPPOS*%
%LPD*%
%AMOC8*
5,1,8,0,0,1.08239X$1,22.5*
%
%ADD10C,0.00787*%
%ADD11C,0.00000*%
D10*
X0003362Y0005011D02*
X0001394Y0006979D01*
X0001394Y0150680D01*
X0003362Y0152648D01*
X0204150Y0152648D01*
X0206118Y0150680D01*
X0206118Y0006979D01*
X0204150Y0005011D01*
X0003362Y0005011D01*
D11*
X0006473Y0005050D02*
X0006475Y0005147D01*
X0006481Y0005244D01*
X0006491Y0005340D01*
X0006505Y0005436D01*
X0006523Y0005532D01*
X0006544Y0005626D01*
X0006570Y0005720D01*
X0006599Y0005812D01*
X0006633Y0005903D01*
X0006669Y0005993D01*
X0006710Y0006081D01*
X0006754Y0006167D01*
X0006802Y0006252D01*
X0006853Y0006334D01*
X0006907Y0006415D01*
X0006965Y0006493D01*
X0007026Y0006568D01*
X0007089Y0006641D01*
X0007156Y0006712D01*
X0007226Y0006779D01*
X0007298Y0006844D01*
X0007373Y0006905D01*
X0007451Y0006964D01*
X0007530Y0007019D01*
X0007612Y0007071D01*
X0007696Y0007119D01*
X0007782Y0007164D01*
X0007870Y0007206D01*
X0007959Y0007244D01*
X0008050Y0007278D01*
X0008142Y0007308D01*
X0008235Y0007335D01*
X0008330Y0007357D01*
X0008425Y0007376D01*
X0008521Y0007391D01*
X0008617Y0007402D01*
X0008714Y0007409D01*
X0008811Y0007412D01*
X0008908Y0007411D01*
X0009005Y0007406D01*
X0009101Y0007397D01*
X0009197Y0007384D01*
X0009293Y0007367D01*
X0009388Y0007346D01*
X0009481Y0007322D01*
X0009574Y0007293D01*
X0009666Y0007261D01*
X0009756Y0007225D01*
X0009844Y0007186D01*
X0009931Y0007142D01*
X0010016Y0007096D01*
X0010099Y0007045D01*
X0010180Y0006992D01*
X0010258Y0006935D01*
X0010335Y0006875D01*
X0010408Y0006812D01*
X0010479Y0006746D01*
X0010547Y0006677D01*
X0010613Y0006605D01*
X0010675Y0006531D01*
X0010734Y0006454D01*
X0010790Y0006375D01*
X0010843Y0006293D01*
X0010893Y0006210D01*
X0010938Y0006124D01*
X0010981Y0006037D01*
X0011020Y0005948D01*
X0011055Y0005858D01*
X0011086Y0005766D01*
X0011113Y0005673D01*
X0011137Y0005579D01*
X0011157Y0005484D01*
X0011173Y0005388D01*
X0011185Y0005292D01*
X0011193Y0005195D01*
X0011197Y0005098D01*
X0011197Y0005002D01*
X0011193Y0004905D01*
X0011185Y0004808D01*
X0011173Y0004712D01*
X0011157Y0004616D01*
X0011137Y0004521D01*
X0011113Y0004427D01*
X0011086Y0004334D01*
X0011055Y0004242D01*
X0011020Y0004152D01*
X0010981Y0004063D01*
X0010938Y0003976D01*
X0010893Y0003890D01*
X0010843Y0003807D01*
X0010790Y0003725D01*
X0010734Y0003646D01*
X0010675Y0003569D01*
X0010613Y0003495D01*
X0010547Y0003423D01*
X0010479Y0003354D01*
X0010408Y0003288D01*
X0010335Y0003225D01*
X0010258Y0003165D01*
X0010180Y0003108D01*
X0010099Y0003055D01*
X0010016Y0003004D01*
X0009931Y0002958D01*
X0009844Y0002914D01*
X0009756Y0002875D01*
X0009666Y0002839D01*
X0009574Y0002807D01*
X0009481Y0002778D01*
X0009388Y0002754D01*
X0009293Y0002733D01*
X0009197Y0002716D01*
X0009101Y0002703D01*
X0009005Y0002694D01*
X0008908Y0002689D01*
X0008811Y0002688D01*
X0008714Y0002691D01*
X0008617Y0002698D01*
X0008521Y0002709D01*
X0008425Y0002724D01*
X0008330Y0002743D01*
X0008235Y0002765D01*
X0008142Y0002792D01*
X0008050Y0002822D01*
X0007959Y0002856D01*
X0007870Y0002894D01*
X0007782Y0002936D01*
X0007696Y0002981D01*
X0007612Y0003029D01*
X0007530Y0003081D01*
X0007451Y0003136D01*
X0007373Y0003195D01*
X0007298Y0003256D01*
X0007226Y0003321D01*
X0007156Y0003388D01*
X0007089Y0003459D01*
X0007026Y0003532D01*
X0006965Y0003607D01*
X0006907Y0003685D01*
X0006853Y0003766D01*
X0006802Y0003848D01*
X0006754Y0003933D01*
X0006710Y0004019D01*
X0006669Y0004107D01*
X0006633Y0004197D01*
X0006599Y0004288D01*
X0006570Y0004380D01*
X0006544Y0004474D01*
X0006523Y0004568D01*
X0006505Y0004664D01*
X0006491Y0004760D01*
X0006481Y0004856D01*
X0006475Y0004953D01*
X0006473Y0005050D01*
X0016473Y0005050D02*
X0016475Y0005147D01*
X0016481Y0005244D01*
X0016491Y0005340D01*
X0016505Y0005436D01*
X0016523Y0005532D01*
X0016544Y0005626D01*
X0016570Y0005720D01*
X0016599Y0005812D01*
X0016633Y0005903D01*
X0016669Y0005993D01*
X0016710Y0006081D01*
X0016754Y0006167D01*
X0016802Y0006252D01*
X0016853Y0006334D01*
X0016907Y0006415D01*
X0016965Y0006493D01*
X0017026Y0006568D01*
X0017089Y0006641D01*
X0017156Y0006712D01*
X0017226Y0006779D01*
X0017298Y0006844D01*
X0017373Y0006905D01*
X0017451Y0006964D01*
X0017530Y0007019D01*
X0017612Y0007071D01*
X0017696Y0007119D01*
X0017782Y0007164D01*
X0017870Y0007206D01*
X0017959Y0007244D01*
X0018050Y0007278D01*
X0018142Y0007308D01*
X0018235Y0007335D01*
X0018330Y0007357D01*
X0018425Y0007376D01*
X0018521Y0007391D01*
X0018617Y0007402D01*
X0018714Y0007409D01*
X0018811Y0007412D01*
X0018908Y0007411D01*
X0019005Y0007406D01*
X0019101Y0007397D01*
X0019197Y0007384D01*
X0019293Y0007367D01*
X0019388Y0007346D01*
X0019481Y0007322D01*
X0019574Y0007293D01*
X0019666Y0007261D01*
X0019756Y0007225D01*
X0019844Y0007186D01*
X0019931Y0007142D01*
X0020016Y0007096D01*
X0020099Y0007045D01*
X0020180Y0006992D01*
X0020258Y0006935D01*
X0020335Y0006875D01*
X0020408Y0006812D01*
X0020479Y0006746D01*
X0020547Y0006677D01*
X0020613Y0006605D01*
X0020675Y0006531D01*
X0020734Y0006454D01*
X0020790Y0006375D01*
X0020843Y0006293D01*
X0020893Y0006210D01*
X0020938Y0006124D01*
X0020981Y0006037D01*
X0021020Y0005948D01*
X0021055Y0005858D01*
X0021086Y0005766D01*
X0021113Y0005673D01*
X0021137Y0005579D01*
X0021157Y0005484D01*
X0021173Y0005388D01*
X0021185Y0005292D01*
X0021193Y0005195D01*
X0021197Y0005098D01*
X0021197Y0005002D01*
X0021193Y0004905D01*
X0021185Y0004808D01*
X0021173Y0004712D01*
X0021157Y0004616D01*
X0021137Y0004521D01*
X0021113Y0004427D01*
X0021086Y0004334D01*
X0021055Y0004242D01*
X0021020Y0004152D01*
X0020981Y0004063D01*
X0020938Y0003976D01*
X0020893Y0003890D01*
X0020843Y0003807D01*
X0020790Y0003725D01*
X0020734Y0003646D01*
X0020675Y0003569D01*
X0020613Y0003495D01*
X0020547Y0003423D01*
X0020479Y0003354D01*
X0020408Y0003288D01*
X0020335Y0003225D01*
X0020258Y0003165D01*
X0020180Y0003108D01*
X0020099Y0003055D01*
X0020016Y0003004D01*
X0019931Y0002958D01*
X0019844Y0002914D01*
X0019756Y0002875D01*
X0019666Y0002839D01*
X0019574Y0002807D01*
X0019481Y0002778D01*
X0019388Y0002754D01*
X0019293Y0002733D01*
X0019197Y0002716D01*
X0019101Y0002703D01*
X0019005Y0002694D01*
X0018908Y0002689D01*
X0018811Y0002688D01*
X0018714Y0002691D01*
X0018617Y0002698D01*
X0018521Y0002709D01*
X0018425Y0002724D01*
X0018330Y0002743D01*
X0018235Y0002765D01*
X0018142Y0002792D01*
X0018050Y0002822D01*
X0017959Y0002856D01*
X0017870Y0002894D01*
X0017782Y0002936D01*
X0017696Y0002981D01*
X0017612Y0003029D01*
X0017530Y0003081D01*
X0017451Y0003136D01*
X0017373Y0003195D01*
X0017298Y0003256D01*
X0017226Y0003321D01*
X0017156Y0003388D01*
X0017089Y0003459D01*
X0017026Y0003532D01*
X0016965Y0003607D01*
X0016907Y0003685D01*
X0016853Y0003766D01*
X0016802Y0003848D01*
X0016754Y0003933D01*
X0016710Y0004019D01*
X0016669Y0004107D01*
X0016633Y0004197D01*
X0016599Y0004288D01*
X0016570Y0004380D01*
X0016544Y0004474D01*
X0016523Y0004568D01*
X0016505Y0004664D01*
X0016491Y0004760D01*
X0016481Y0004856D01*
X0016475Y0004953D01*
X0016473Y0005050D01*
X0026473Y0005050D02*
X0026475Y0005147D01*
X0026481Y0005244D01*
X0026491Y0005340D01*
X0026505Y0005436D01*
X0026523Y0005532D01*
X0026544Y0005626D01*
X0026570Y0005720D01*
X0026599Y0005812D01*
X0026633Y0005903D01*
X0026669Y0005993D01*
X0026710Y0006081D01*
X0026754Y0006167D01*
X0026802Y0006252D01*
X0026853Y0006334D01*
X0026907Y0006415D01*
X0026965Y0006493D01*
X0027026Y0006568D01*
X0027089Y0006641D01*
X0027156Y0006712D01*
X0027226Y0006779D01*
X0027298Y0006844D01*
X0027373Y0006905D01*
X0027451Y0006964D01*
X0027530Y0007019D01*
X0027612Y0007071D01*
X0027696Y0007119D01*
X0027782Y0007164D01*
X0027870Y0007206D01*
X0027959Y0007244D01*
X0028050Y0007278D01*
X0028142Y0007308D01*
X0028235Y0007335D01*
X0028330Y0007357D01*
X0028425Y0007376D01*
X0028521Y0007391D01*
X0028617Y0007402D01*
X0028714Y0007409D01*
X0028811Y0007412D01*
X0028908Y0007411D01*
X0029005Y0007406D01*
X0029101Y0007397D01*
X0029197Y0007384D01*
X0029293Y0007367D01*
X0029388Y0007346D01*
X0029481Y0007322D01*
X0029574Y0007293D01*
X0029666Y0007261D01*
X0029756Y0007225D01*
X0029844Y0007186D01*
X0029931Y0007142D01*
X0030016Y0007096D01*
X0030099Y0007045D01*
X0030180Y0006992D01*
X0030258Y0006935D01*
X0030335Y0006875D01*
X0030408Y0006812D01*
X0030479Y0006746D01*
X0030547Y0006677D01*
X0030613Y0006605D01*
X0030675Y0006531D01*
X0030734Y0006454D01*
X0030790Y0006375D01*
X0030843Y0006293D01*
X0030893Y0006210D01*
X0030938Y0006124D01*
X0030981Y0006037D01*
X0031020Y0005948D01*
X0031055Y0005858D01*
X0031086Y0005766D01*
X0031113Y0005673D01*
X0031137Y0005579D01*
X0031157Y0005484D01*
X0031173Y0005388D01*
X0031185Y0005292D01*
X0031193Y0005195D01*
X0031197Y0005098D01*
X0031197Y0005002D01*
X0031193Y0004905D01*
X0031185Y0004808D01*
X0031173Y0004712D01*
X0031157Y0004616D01*
X0031137Y0004521D01*
X0031113Y0004427D01*
X0031086Y0004334D01*
X0031055Y0004242D01*
X0031020Y0004152D01*
X0030981Y0004063D01*
X0030938Y0003976D01*
X0030893Y0003890D01*
X0030843Y0003807D01*
X0030790Y0003725D01*
X0030734Y0003646D01*
X0030675Y0003569D01*
X0030613Y0003495D01*
X0030547Y0003423D01*
X0030479Y0003354D01*
X0030408Y0003288D01*
X0030335Y0003225D01*
X0030258Y0003165D01*
X0030180Y0003108D01*
X0030099Y0003055D01*
X0030016Y0003004D01*
X0029931Y0002958D01*
X0029844Y0002914D01*
X0029756Y0002875D01*
X0029666Y0002839D01*
X0029574Y0002807D01*
X0029481Y0002778D01*
X0029388Y0002754D01*
X0029293Y0002733D01*
X0029197Y0002716D01*
X0029101Y0002703D01*
X0029005Y0002694D01*
X0028908Y0002689D01*
X0028811Y0002688D01*
X0028714Y0002691D01*
X0028617Y0002698D01*
X0028521Y0002709D01*
X0028425Y0002724D01*
X0028330Y0002743D01*
X0028235Y0002765D01*
X0028142Y0002792D01*
X0028050Y0002822D01*
X0027959Y0002856D01*
X0027870Y0002894D01*
X0027782Y0002936D01*
X0027696Y0002981D01*
X0027612Y0003029D01*
X0027530Y0003081D01*
X0027451Y0003136D01*
X0027373Y0003195D01*
X0027298Y0003256D01*
X0027226Y0003321D01*
X0027156Y0003388D01*
X0027089Y0003459D01*
X0027026Y0003532D01*
X0026965Y0003607D01*
X0026907Y0003685D01*
X0026853Y0003766D01*
X0026802Y0003848D01*
X0026754Y0003933D01*
X0026710Y0004019D01*
X0026669Y0004107D01*
X0026633Y0004197D01*
X0026599Y0004288D01*
X0026570Y0004380D01*
X0026544Y0004474D01*
X0026523Y0004568D01*
X0026505Y0004664D01*
X0026491Y0004760D01*
X0026481Y0004856D01*
X0026475Y0004953D01*
X0026473Y0005050D01*
X0036473Y0005050D02*
X0036475Y0005147D01*
X0036481Y0005244D01*
X0036491Y0005340D01*
X0036505Y0005436D01*
X0036523Y0005532D01*
X0036544Y0005626D01*
X0036570Y0005720D01*
X0036599Y0005812D01*
X0036633Y0005903D01*
X0036669Y0005993D01*
X0036710Y0006081D01*
X0036754Y0006167D01*
X0036802Y0006252D01*
X0036853Y0006334D01*
X0036907Y0006415D01*
X0036965Y0006493D01*
X0037026Y0006568D01*
X0037089Y0006641D01*
X0037156Y0006712D01*
X0037226Y0006779D01*
X0037298Y0006844D01*
X0037373Y0006905D01*
X0037451Y0006964D01*
X0037530Y0007019D01*
X0037612Y0007071D01*
X0037696Y0007119D01*
X0037782Y0007164D01*
X0037870Y0007206D01*
X0037959Y0007244D01*
X0038050Y0007278D01*
X0038142Y0007308D01*
X0038235Y0007335D01*
X0038330Y0007357D01*
X0038425Y0007376D01*
X0038521Y0007391D01*
X0038617Y0007402D01*
X0038714Y0007409D01*
X0038811Y0007412D01*
X0038908Y0007411D01*
X0039005Y0007406D01*
X0039101Y0007397D01*
X0039197Y0007384D01*
X0039293Y0007367D01*
X0039388Y0007346D01*
X0039481Y0007322D01*
X0039574Y0007293D01*
X0039666Y0007261D01*
X0039756Y0007225D01*
X0039844Y0007186D01*
X0039931Y0007142D01*
X0040016Y0007096D01*
X0040099Y0007045D01*
X0040180Y0006992D01*
X0040258Y0006935D01*
X0040335Y0006875D01*
X0040408Y0006812D01*
X0040479Y0006746D01*
X0040547Y0006677D01*
X0040613Y0006605D01*
X0040675Y0006531D01*
X0040734Y0006454D01*
X0040790Y0006375D01*
X0040843Y0006293D01*
X0040893Y0006210D01*
X0040938Y0006124D01*
X0040981Y0006037D01*
X0041020Y0005948D01*
X0041055Y0005858D01*
X0041086Y0005766D01*
X0041113Y0005673D01*
X0041137Y0005579D01*
X0041157Y0005484D01*
X0041173Y0005388D01*
X0041185Y0005292D01*
X0041193Y0005195D01*
X0041197Y0005098D01*
X0041197Y0005002D01*
X0041193Y0004905D01*
X0041185Y0004808D01*
X0041173Y0004712D01*
X0041157Y0004616D01*
X0041137Y0004521D01*
X0041113Y0004427D01*
X0041086Y0004334D01*
X0041055Y0004242D01*
X0041020Y0004152D01*
X0040981Y0004063D01*
X0040938Y0003976D01*
X0040893Y0003890D01*
X0040843Y0003807D01*
X0040790Y0003725D01*
X0040734Y0003646D01*
X0040675Y0003569D01*
X0040613Y0003495D01*
X0040547Y0003423D01*
X0040479Y0003354D01*
X0040408Y0003288D01*
X0040335Y0003225D01*
X0040258Y0003165D01*
X0040180Y0003108D01*
X0040099Y0003055D01*
X0040016Y0003004D01*
X0039931Y0002958D01*
X0039844Y0002914D01*
X0039756Y0002875D01*
X0039666Y0002839D01*
X0039574Y0002807D01*
X0039481Y0002778D01*
X0039388Y0002754D01*
X0039293Y0002733D01*
X0039197Y0002716D01*
X0039101Y0002703D01*
X0039005Y0002694D01*
X0038908Y0002689D01*
X0038811Y0002688D01*
X0038714Y0002691D01*
X0038617Y0002698D01*
X0038521Y0002709D01*
X0038425Y0002724D01*
X0038330Y0002743D01*
X0038235Y0002765D01*
X0038142Y0002792D01*
X0038050Y0002822D01*
X0037959Y0002856D01*
X0037870Y0002894D01*
X0037782Y0002936D01*
X0037696Y0002981D01*
X0037612Y0003029D01*
X0037530Y0003081D01*
X0037451Y0003136D01*
X0037373Y0003195D01*
X0037298Y0003256D01*
X0037226Y0003321D01*
X0037156Y0003388D01*
X0037089Y0003459D01*
X0037026Y0003532D01*
X0036965Y0003607D01*
X0036907Y0003685D01*
X0036853Y0003766D01*
X0036802Y0003848D01*
X0036754Y0003933D01*
X0036710Y0004019D01*
X0036669Y0004107D01*
X0036633Y0004197D01*
X0036599Y0004288D01*
X0036570Y0004380D01*
X0036544Y0004474D01*
X0036523Y0004568D01*
X0036505Y0004664D01*
X0036491Y0004760D01*
X0036481Y0004856D01*
X0036475Y0004953D01*
X0036473Y0005050D01*
X0046473Y0005050D02*
X0046475Y0005147D01*
X0046481Y0005244D01*
X0046491Y0005340D01*
X0046505Y0005436D01*
X0046523Y0005532D01*
X0046544Y0005626D01*
X0046570Y0005720D01*
X0046599Y0005812D01*
X0046633Y0005903D01*
X0046669Y0005993D01*
X0046710Y0006081D01*
X0046754Y0006167D01*
X0046802Y0006252D01*
X0046853Y0006334D01*
X0046907Y0006415D01*
X0046965Y0006493D01*
X0047026Y0006568D01*
X0047089Y0006641D01*
X0047156Y0006712D01*
X0047226Y0006779D01*
X0047298Y0006844D01*
X0047373Y0006905D01*
X0047451Y0006964D01*
X0047530Y0007019D01*
X0047612Y0007071D01*
X0047696Y0007119D01*
X0047782Y0007164D01*
X0047870Y0007206D01*
X0047959Y0007244D01*
X0048050Y0007278D01*
X0048142Y0007308D01*
X0048235Y0007335D01*
X0048330Y0007357D01*
X0048425Y0007376D01*
X0048521Y0007391D01*
X0048617Y0007402D01*
X0048714Y0007409D01*
X0048811Y0007412D01*
X0048908Y0007411D01*
X0049005Y0007406D01*
X0049101Y0007397D01*
X0049197Y0007384D01*
X0049293Y0007367D01*
X0049388Y0007346D01*
X0049481Y0007322D01*
X0049574Y0007293D01*
X0049666Y0007261D01*
X0049756Y0007225D01*
X0049844Y0007186D01*
X0049931Y0007142D01*
X0050016Y0007096D01*
X0050099Y0007045D01*
X0050180Y0006992D01*
X0050258Y0006935D01*
X0050335Y0006875D01*
X0050408Y0006812D01*
X0050479Y0006746D01*
X0050547Y0006677D01*
X0050613Y0006605D01*
X0050675Y0006531D01*
X0050734Y0006454D01*
X0050790Y0006375D01*
X0050843Y0006293D01*
X0050893Y0006210D01*
X0050938Y0006124D01*
X0050981Y0006037D01*
X0051020Y0005948D01*
X0051055Y0005858D01*
X0051086Y0005766D01*
X0051113Y0005673D01*
X0051137Y0005579D01*
X0051157Y0005484D01*
X0051173Y0005388D01*
X0051185Y0005292D01*
X0051193Y0005195D01*
X0051197Y0005098D01*
X0051197Y0005002D01*
X0051193Y0004905D01*
X0051185Y0004808D01*
X0051173Y0004712D01*
X0051157Y0004616D01*
X0051137Y0004521D01*
X0051113Y0004427D01*
X0051086Y0004334D01*
X0051055Y0004242D01*
X0051020Y0004152D01*
X0050981Y0004063D01*
X0050938Y0003976D01*
X0050893Y0003890D01*
X0050843Y0003807D01*
X0050790Y0003725D01*
X0050734Y0003646D01*
X0050675Y0003569D01*
X0050613Y0003495D01*
X0050547Y0003423D01*
X0050479Y0003354D01*
X0050408Y0003288D01*
X0050335Y0003225D01*
X0050258Y0003165D01*
X0050180Y0003108D01*
X0050099Y0003055D01*
X0050016Y0003004D01*
X0049931Y0002958D01*
X0049844Y0002914D01*
X0049756Y0002875D01*
X0049666Y0002839D01*
X0049574Y0002807D01*
X0049481Y0002778D01*
X0049388Y0002754D01*
X0049293Y0002733D01*
X0049197Y0002716D01*
X0049101Y0002703D01*
X0049005Y0002694D01*
X0048908Y0002689D01*
X0048811Y0002688D01*
X0048714Y0002691D01*
X0048617Y0002698D01*
X0048521Y0002709D01*
X0048425Y0002724D01*
X0048330Y0002743D01*
X0048235Y0002765D01*
X0048142Y0002792D01*
X0048050Y0002822D01*
X0047959Y0002856D01*
X0047870Y0002894D01*
X0047782Y0002936D01*
X0047696Y0002981D01*
X0047612Y0003029D01*
X0047530Y0003081D01*
X0047451Y0003136D01*
X0047373Y0003195D01*
X0047298Y0003256D01*
X0047226Y0003321D01*
X0047156Y0003388D01*
X0047089Y0003459D01*
X0047026Y0003532D01*
X0046965Y0003607D01*
X0046907Y0003685D01*
X0046853Y0003766D01*
X0046802Y0003848D01*
X0046754Y0003933D01*
X0046710Y0004019D01*
X0046669Y0004107D01*
X0046633Y0004197D01*
X0046599Y0004288D01*
X0046570Y0004380D01*
X0046544Y0004474D01*
X0046523Y0004568D01*
X0046505Y0004664D01*
X0046491Y0004760D01*
X0046481Y0004856D01*
X0046475Y0004953D01*
X0046473Y0005050D01*
X0056473Y0005050D02*
X0056475Y0005147D01*
X0056481Y0005244D01*
X0056491Y0005340D01*
X0056505Y0005436D01*
X0056523Y0005532D01*
X0056544Y0005626D01*
X0056570Y0005720D01*
X0056599Y0005812D01*
X0056633Y0005903D01*
X0056669Y0005993D01*
X0056710Y0006081D01*
X0056754Y0006167D01*
X0056802Y0006252D01*
X0056853Y0006334D01*
X0056907Y0006415D01*
X0056965Y0006493D01*
X0057026Y0006568D01*
X0057089Y0006641D01*
X0057156Y0006712D01*
X0057226Y0006779D01*
X0057298Y0006844D01*
X0057373Y0006905D01*
X0057451Y0006964D01*
X0057530Y0007019D01*
X0057612Y0007071D01*
X0057696Y0007119D01*
X0057782Y0007164D01*
X0057870Y0007206D01*
X0057959Y0007244D01*
X0058050Y0007278D01*
X0058142Y0007308D01*
X0058235Y0007335D01*
X0058330Y0007357D01*
X0058425Y0007376D01*
X0058521Y0007391D01*
X0058617Y0007402D01*
X0058714Y0007409D01*
X0058811Y0007412D01*
X0058908Y0007411D01*
X0059005Y0007406D01*
X0059101Y0007397D01*
X0059197Y0007384D01*
X0059293Y0007367D01*
X0059388Y0007346D01*
X0059481Y0007322D01*
X0059574Y0007293D01*
X0059666Y0007261D01*
X0059756Y0007225D01*
X0059844Y0007186D01*
X0059931Y0007142D01*
X0060016Y0007096D01*
X0060099Y0007045D01*
X0060180Y0006992D01*
X0060258Y0006935D01*
X0060335Y0006875D01*
X0060408Y0006812D01*
X0060479Y0006746D01*
X0060547Y0006677D01*
X0060613Y0006605D01*
X0060675Y0006531D01*
X0060734Y0006454D01*
X0060790Y0006375D01*
X0060843Y0006293D01*
X0060893Y0006210D01*
X0060938Y0006124D01*
X0060981Y0006037D01*
X0061020Y0005948D01*
X0061055Y0005858D01*
X0061086Y0005766D01*
X0061113Y0005673D01*
X0061137Y0005579D01*
X0061157Y0005484D01*
X0061173Y0005388D01*
X0061185Y0005292D01*
X0061193Y0005195D01*
X0061197Y0005098D01*
X0061197Y0005002D01*
X0061193Y0004905D01*
X0061185Y0004808D01*
X0061173Y0004712D01*
X0061157Y0004616D01*
X0061137Y0004521D01*
X0061113Y0004427D01*
X0061086Y0004334D01*
X0061055Y0004242D01*
X0061020Y0004152D01*
X0060981Y0004063D01*
X0060938Y0003976D01*
X0060893Y0003890D01*
X0060843Y0003807D01*
X0060790Y0003725D01*
X0060734Y0003646D01*
X0060675Y0003569D01*
X0060613Y0003495D01*
X0060547Y0003423D01*
X0060479Y0003354D01*
X0060408Y0003288D01*
X0060335Y0003225D01*
X0060258Y0003165D01*
X0060180Y0003108D01*
X0060099Y0003055D01*
X0060016Y0003004D01*
X0059931Y0002958D01*
X0059844Y0002914D01*
X0059756Y0002875D01*
X0059666Y0002839D01*
X0059574Y0002807D01*
X0059481Y0002778D01*
X0059388Y0002754D01*
X0059293Y0002733D01*
X0059197Y0002716D01*
X0059101Y0002703D01*
X0059005Y0002694D01*
X0058908Y0002689D01*
X0058811Y0002688D01*
X0058714Y0002691D01*
X0058617Y0002698D01*
X0058521Y0002709D01*
X0058425Y0002724D01*
X0058330Y0002743D01*
X0058235Y0002765D01*
X0058142Y0002792D01*
X0058050Y0002822D01*
X0057959Y0002856D01*
X0057870Y0002894D01*
X0057782Y0002936D01*
X0057696Y0002981D01*
X0057612Y0003029D01*
X0057530Y0003081D01*
X0057451Y0003136D01*
X0057373Y0003195D01*
X0057298Y0003256D01*
X0057226Y0003321D01*
X0057156Y0003388D01*
X0057089Y0003459D01*
X0057026Y0003532D01*
X0056965Y0003607D01*
X0056907Y0003685D01*
X0056853Y0003766D01*
X0056802Y0003848D01*
X0056754Y0003933D01*
X0056710Y0004019D01*
X0056669Y0004107D01*
X0056633Y0004197D01*
X0056599Y0004288D01*
X0056570Y0004380D01*
X0056544Y0004474D01*
X0056523Y0004568D01*
X0056505Y0004664D01*
X0056491Y0004760D01*
X0056481Y0004856D01*
X0056475Y0004953D01*
X0056473Y0005050D01*
X0066473Y0005050D02*
X0066475Y0005147D01*
X0066481Y0005244D01*
X0066491Y0005340D01*
X0066505Y0005436D01*
X0066523Y0005532D01*
X0066544Y0005626D01*
X0066570Y0005720D01*
X0066599Y0005812D01*
X0066633Y0005903D01*
X0066669Y0005993D01*
X0066710Y0006081D01*
X0066754Y0006167D01*
X0066802Y0006252D01*
X0066853Y0006334D01*
X0066907Y0006415D01*
X0066965Y0006493D01*
X0067026Y0006568D01*
X0067089Y0006641D01*
X0067156Y0006712D01*
X0067226Y0006779D01*
X0067298Y0006844D01*
X0067373Y0006905D01*
X0067451Y0006964D01*
X0067530Y0007019D01*
X0067612Y0007071D01*
X0067696Y0007119D01*
X0067782Y0007164D01*
X0067870Y0007206D01*
X0067959Y0007244D01*
X0068050Y0007278D01*
X0068142Y0007308D01*
X0068235Y0007335D01*
X0068330Y0007357D01*
X0068425Y0007376D01*
X0068521Y0007391D01*
X0068617Y0007402D01*
X0068714Y0007409D01*
X0068811Y0007412D01*
X0068908Y0007411D01*
X0069005Y0007406D01*
X0069101Y0007397D01*
X0069197Y0007384D01*
X0069293Y0007367D01*
X0069388Y0007346D01*
X0069481Y0007322D01*
X0069574Y0007293D01*
X0069666Y0007261D01*
X0069756Y0007225D01*
X0069844Y0007186D01*
X0069931Y0007142D01*
X0070016Y0007096D01*
X0070099Y0007045D01*
X0070180Y0006992D01*
X0070258Y0006935D01*
X0070335Y0006875D01*
X0070408Y0006812D01*
X0070479Y0006746D01*
X0070547Y0006677D01*
X0070613Y0006605D01*
X0070675Y0006531D01*
X0070734Y0006454D01*
X0070790Y0006375D01*
X0070843Y0006293D01*
X0070893Y0006210D01*
X0070938Y0006124D01*
X0070981Y0006037D01*
X0071020Y0005948D01*
X0071055Y0005858D01*
X0071086Y0005766D01*
X0071113Y0005673D01*
X0071137Y0005579D01*
X0071157Y0005484D01*
X0071173Y0005388D01*
X0071185Y0005292D01*
X0071193Y0005195D01*
X0071197Y0005098D01*
X0071197Y0005002D01*
X0071193Y0004905D01*
X0071185Y0004808D01*
X0071173Y0004712D01*
X0071157Y0004616D01*
X0071137Y0004521D01*
X0071113Y0004427D01*
X0071086Y0004334D01*
X0071055Y0004242D01*
X0071020Y0004152D01*
X0070981Y0004063D01*
X0070938Y0003976D01*
X0070893Y0003890D01*
X0070843Y0003807D01*
X0070790Y0003725D01*
X0070734Y0003646D01*
X0070675Y0003569D01*
X0070613Y0003495D01*
X0070547Y0003423D01*
X0070479Y0003354D01*
X0070408Y0003288D01*
X0070335Y0003225D01*
X0070258Y0003165D01*
X0070180Y0003108D01*
X0070099Y0003055D01*
X0070016Y0003004D01*
X0069931Y0002958D01*
X0069844Y0002914D01*
X0069756Y0002875D01*
X0069666Y0002839D01*
X0069574Y0002807D01*
X0069481Y0002778D01*
X0069388Y0002754D01*
X0069293Y0002733D01*
X0069197Y0002716D01*
X0069101Y0002703D01*
X0069005Y0002694D01*
X0068908Y0002689D01*
X0068811Y0002688D01*
X0068714Y0002691D01*
X0068617Y0002698D01*
X0068521Y0002709D01*
X0068425Y0002724D01*
X0068330Y0002743D01*
X0068235Y0002765D01*
X0068142Y0002792D01*
X0068050Y0002822D01*
X0067959Y0002856D01*
X0067870Y0002894D01*
X0067782Y0002936D01*
X0067696Y0002981D01*
X0067612Y0003029D01*
X0067530Y0003081D01*
X0067451Y0003136D01*
X0067373Y0003195D01*
X0067298Y0003256D01*
X0067226Y0003321D01*
X0067156Y0003388D01*
X0067089Y0003459D01*
X0067026Y0003532D01*
X0066965Y0003607D01*
X0066907Y0003685D01*
X0066853Y0003766D01*
X0066802Y0003848D01*
X0066754Y0003933D01*
X0066710Y0004019D01*
X0066669Y0004107D01*
X0066633Y0004197D01*
X0066599Y0004288D01*
X0066570Y0004380D01*
X0066544Y0004474D01*
X0066523Y0004568D01*
X0066505Y0004664D01*
X0066491Y0004760D01*
X0066481Y0004856D01*
X0066475Y0004953D01*
X0066473Y0005050D01*
X0076473Y0005050D02*
X0076475Y0005147D01*
X0076481Y0005244D01*
X0076491Y0005340D01*
X0076505Y0005436D01*
X0076523Y0005532D01*
X0076544Y0005626D01*
X0076570Y0005720D01*
X0076599Y0005812D01*
X0076633Y0005903D01*
X0076669Y0005993D01*
X0076710Y0006081D01*
X0076754Y0006167D01*
X0076802Y0006252D01*
X0076853Y0006334D01*
X0076907Y0006415D01*
X0076965Y0006493D01*
X0077026Y0006568D01*
X0077089Y0006641D01*
X0077156Y0006712D01*
X0077226Y0006779D01*
X0077298Y0006844D01*
X0077373Y0006905D01*
X0077451Y0006964D01*
X0077530Y0007019D01*
X0077612Y0007071D01*
X0077696Y0007119D01*
X0077782Y0007164D01*
X0077870Y0007206D01*
X0077959Y0007244D01*
X0078050Y0007278D01*
X0078142Y0007308D01*
X0078235Y0007335D01*
X0078330Y0007357D01*
X0078425Y0007376D01*
X0078521Y0007391D01*
X0078617Y0007402D01*
X0078714Y0007409D01*
X0078811Y0007412D01*
X0078908Y0007411D01*
X0079005Y0007406D01*
X0079101Y0007397D01*
X0079197Y0007384D01*
X0079293Y0007367D01*
X0079388Y0007346D01*
X0079481Y0007322D01*
X0079574Y0007293D01*
X0079666Y0007261D01*
X0079756Y0007225D01*
X0079844Y0007186D01*
X0079931Y0007142D01*
X0080016Y0007096D01*
X0080099Y0007045D01*
X0080180Y0006992D01*
X0080258Y0006935D01*
X0080335Y0006875D01*
X0080408Y0006812D01*
X0080479Y0006746D01*
X0080547Y0006677D01*
X0080613Y0006605D01*
X0080675Y0006531D01*
X0080734Y0006454D01*
X0080790Y0006375D01*
X0080843Y0006293D01*
X0080893Y0006210D01*
X0080938Y0006124D01*
X0080981Y0006037D01*
X0081020Y0005948D01*
X0081055Y0005858D01*
X0081086Y0005766D01*
X0081113Y0005673D01*
X0081137Y0005579D01*
X0081157Y0005484D01*
X0081173Y0005388D01*
X0081185Y0005292D01*
X0081193Y0005195D01*
X0081197Y0005098D01*
X0081197Y0005002D01*
X0081193Y0004905D01*
X0081185Y0004808D01*
X0081173Y0004712D01*
X0081157Y0004616D01*
X0081137Y0004521D01*
X0081113Y0004427D01*
X0081086Y0004334D01*
X0081055Y0004242D01*
X0081020Y0004152D01*
X0080981Y0004063D01*
X0080938Y0003976D01*
X0080893Y0003890D01*
X0080843Y0003807D01*
X0080790Y0003725D01*
X0080734Y0003646D01*
X0080675Y0003569D01*
X0080613Y0003495D01*
X0080547Y0003423D01*
X0080479Y0003354D01*
X0080408Y0003288D01*
X0080335Y0003225D01*
X0080258Y0003165D01*
X0080180Y0003108D01*
X0080099Y0003055D01*
X0080016Y0003004D01*
X0079931Y0002958D01*
X0079844Y0002914D01*
X0079756Y0002875D01*
X0079666Y0002839D01*
X0079574Y0002807D01*
X0079481Y0002778D01*
X0079388Y0002754D01*
X0079293Y0002733D01*
X0079197Y0002716D01*
X0079101Y0002703D01*
X0079005Y0002694D01*
X0078908Y0002689D01*
X0078811Y0002688D01*
X0078714Y0002691D01*
X0078617Y0002698D01*
X0078521Y0002709D01*
X0078425Y0002724D01*
X0078330Y0002743D01*
X0078235Y0002765D01*
X0078142Y0002792D01*
X0078050Y0002822D01*
X0077959Y0002856D01*
X0077870Y0002894D01*
X0077782Y0002936D01*
X0077696Y0002981D01*
X0077612Y0003029D01*
X0077530Y0003081D01*
X0077451Y0003136D01*
X0077373Y0003195D01*
X0077298Y0003256D01*
X0077226Y0003321D01*
X0077156Y0003388D01*
X0077089Y0003459D01*
X0077026Y0003532D01*
X0076965Y0003607D01*
X0076907Y0003685D01*
X0076853Y0003766D01*
X0076802Y0003848D01*
X0076754Y0003933D01*
X0076710Y0004019D01*
X0076669Y0004107D01*
X0076633Y0004197D01*
X0076599Y0004288D01*
X0076570Y0004380D01*
X0076544Y0004474D01*
X0076523Y0004568D01*
X0076505Y0004664D01*
X0076491Y0004760D01*
X0076481Y0004856D01*
X0076475Y0004953D01*
X0076473Y0005050D01*
X0086473Y0005050D02*
X0086475Y0005147D01*
X0086481Y0005244D01*
X0086491Y0005340D01*
X0086505Y0005436D01*
X0086523Y0005532D01*
X0086544Y0005626D01*
X0086570Y0005720D01*
X0086599Y0005812D01*
X0086633Y0005903D01*
X0086669Y0005993D01*
X0086710Y0006081D01*
X0086754Y0006167D01*
X0086802Y0006252D01*
X0086853Y0006334D01*
X0086907Y0006415D01*
X0086965Y0006493D01*
X0087026Y0006568D01*
X0087089Y0006641D01*
X0087156Y0006712D01*
X0087226Y0006779D01*
X0087298Y0006844D01*
X0087373Y0006905D01*
X0087451Y0006964D01*
X0087530Y0007019D01*
X0087612Y0007071D01*
X0087696Y0007119D01*
X0087782Y0007164D01*
X0087870Y0007206D01*
X0087959Y0007244D01*
X0088050Y0007278D01*
X0088142Y0007308D01*
X0088235Y0007335D01*
X0088330Y0007357D01*
X0088425Y0007376D01*
X0088521Y0007391D01*
X0088617Y0007402D01*
X0088714Y0007409D01*
X0088811Y0007412D01*
X0088908Y0007411D01*
X0089005Y0007406D01*
X0089101Y0007397D01*
X0089197Y0007384D01*
X0089293Y0007367D01*
X0089388Y0007346D01*
X0089481Y0007322D01*
X0089574Y0007293D01*
X0089666Y0007261D01*
X0089756Y0007225D01*
X0089844Y0007186D01*
X0089931Y0007142D01*
X0090016Y0007096D01*
X0090099Y0007045D01*
X0090180Y0006992D01*
X0090258Y0006935D01*
X0090335Y0006875D01*
X0090408Y0006812D01*
X0090479Y0006746D01*
X0090547Y0006677D01*
X0090613Y0006605D01*
X0090675Y0006531D01*
X0090734Y0006454D01*
X0090790Y0006375D01*
X0090843Y0006293D01*
X0090893Y0006210D01*
X0090938Y0006124D01*
X0090981Y0006037D01*
X0091020Y0005948D01*
X0091055Y0005858D01*
X0091086Y0005766D01*
X0091113Y0005673D01*
X0091137Y0005579D01*
X0091157Y0005484D01*
X0091173Y0005388D01*
X0091185Y0005292D01*
X0091193Y0005195D01*
X0091197Y0005098D01*
X0091197Y0005002D01*
X0091193Y0004905D01*
X0091185Y0004808D01*
X0091173Y0004712D01*
X0091157Y0004616D01*
X0091137Y0004521D01*
X0091113Y0004427D01*
X0091086Y0004334D01*
X0091055Y0004242D01*
X0091020Y0004152D01*
X0090981Y0004063D01*
X0090938Y0003976D01*
X0090893Y0003890D01*
X0090843Y0003807D01*
X0090790Y0003725D01*
X0090734Y0003646D01*
X0090675Y0003569D01*
X0090613Y0003495D01*
X0090547Y0003423D01*
X0090479Y0003354D01*
X0090408Y0003288D01*
X0090335Y0003225D01*
X0090258Y0003165D01*
X0090180Y0003108D01*
X0090099Y0003055D01*
X0090016Y0003004D01*
X0089931Y0002958D01*
X0089844Y0002914D01*
X0089756Y0002875D01*
X0089666Y0002839D01*
X0089574Y0002807D01*
X0089481Y0002778D01*
X0089388Y0002754D01*
X0089293Y0002733D01*
X0089197Y0002716D01*
X0089101Y0002703D01*
X0089005Y0002694D01*
X0088908Y0002689D01*
X0088811Y0002688D01*
X0088714Y0002691D01*
X0088617Y0002698D01*
X0088521Y0002709D01*
X0088425Y0002724D01*
X0088330Y0002743D01*
X0088235Y0002765D01*
X0088142Y0002792D01*
X0088050Y0002822D01*
X0087959Y0002856D01*
X0087870Y0002894D01*
X0087782Y0002936D01*
X0087696Y0002981D01*
X0087612Y0003029D01*
X0087530Y0003081D01*
X0087451Y0003136D01*
X0087373Y0003195D01*
X0087298Y0003256D01*
X0087226Y0003321D01*
X0087156Y0003388D01*
X0087089Y0003459D01*
X0087026Y0003532D01*
X0086965Y0003607D01*
X0086907Y0003685D01*
X0086853Y0003766D01*
X0086802Y0003848D01*
X0086754Y0003933D01*
X0086710Y0004019D01*
X0086669Y0004107D01*
X0086633Y0004197D01*
X0086599Y0004288D01*
X0086570Y0004380D01*
X0086544Y0004474D01*
X0086523Y0004568D01*
X0086505Y0004664D01*
X0086491Y0004760D01*
X0086481Y0004856D01*
X0086475Y0004953D01*
X0086473Y0005050D01*
X0096473Y0005050D02*
X0096475Y0005147D01*
X0096481Y0005244D01*
X0096491Y0005340D01*
X0096505Y0005436D01*
X0096523Y0005532D01*
X0096544Y0005626D01*
X0096570Y0005720D01*
X0096599Y0005812D01*
X0096633Y0005903D01*
X0096669Y0005993D01*
X0096710Y0006081D01*
X0096754Y0006167D01*
X0096802Y0006252D01*
X0096853Y0006334D01*
X0096907Y0006415D01*
X0096965Y0006493D01*
X0097026Y0006568D01*
X0097089Y0006641D01*
X0097156Y0006712D01*
X0097226Y0006779D01*
X0097298Y0006844D01*
X0097373Y0006905D01*
X0097451Y0006964D01*
X0097530Y0007019D01*
X0097612Y0007071D01*
X0097696Y0007119D01*
X0097782Y0007164D01*
X0097870Y0007206D01*
X0097959Y0007244D01*
X0098050Y0007278D01*
X0098142Y0007308D01*
X0098235Y0007335D01*
X0098330Y0007357D01*
X0098425Y0007376D01*
X0098521Y0007391D01*
X0098617Y0007402D01*
X0098714Y0007409D01*
X0098811Y0007412D01*
X0098908Y0007411D01*
X0099005Y0007406D01*
X0099101Y0007397D01*
X0099197Y0007384D01*
X0099293Y0007367D01*
X0099388Y0007346D01*
X0099481Y0007322D01*
X0099574Y0007293D01*
X0099666Y0007261D01*
X0099756Y0007225D01*
X0099844Y0007186D01*
X0099931Y0007142D01*
X0100016Y0007096D01*
X0100099Y0007045D01*
X0100180Y0006992D01*
X0100258Y0006935D01*
X0100335Y0006875D01*
X0100408Y0006812D01*
X0100479Y0006746D01*
X0100547Y0006677D01*
X0100613Y0006605D01*
X0100675Y0006531D01*
X0100734Y0006454D01*
X0100790Y0006375D01*
X0100843Y0006293D01*
X0100893Y0006210D01*
X0100938Y0006124D01*
X0100981Y0006037D01*
X0101020Y0005948D01*
X0101055Y0005858D01*
X0101086Y0005766D01*
X0101113Y0005673D01*
X0101137Y0005579D01*
X0101157Y0005484D01*
X0101173Y0005388D01*
X0101185Y0005292D01*
X0101193Y0005195D01*
X0101197Y0005098D01*
X0101197Y0005002D01*
X0101193Y0004905D01*
X0101185Y0004808D01*
X0101173Y0004712D01*
X0101157Y0004616D01*
X0101137Y0004521D01*
X0101113Y0004427D01*
X0101086Y0004334D01*
X0101055Y0004242D01*
X0101020Y0004152D01*
X0100981Y0004063D01*
X0100938Y0003976D01*
X0100893Y0003890D01*
X0100843Y0003807D01*
X0100790Y0003725D01*
X0100734Y0003646D01*
X0100675Y0003569D01*
X0100613Y0003495D01*
X0100547Y0003423D01*
X0100479Y0003354D01*
X0100408Y0003288D01*
X0100335Y0003225D01*
X0100258Y0003165D01*
X0100180Y0003108D01*
X0100099Y0003055D01*
X0100016Y0003004D01*
X0099931Y0002958D01*
X0099844Y0002914D01*
X0099756Y0002875D01*
X0099666Y0002839D01*
X0099574Y0002807D01*
X0099481Y0002778D01*
X0099388Y0002754D01*
X0099293Y0002733D01*
X0099197Y0002716D01*
X0099101Y0002703D01*
X0099005Y0002694D01*
X0098908Y0002689D01*
X0098811Y0002688D01*
X0098714Y0002691D01*
X0098617Y0002698D01*
X0098521Y0002709D01*
X0098425Y0002724D01*
X0098330Y0002743D01*
X0098235Y0002765D01*
X0098142Y0002792D01*
X0098050Y0002822D01*
X0097959Y0002856D01*
X0097870Y0002894D01*
X0097782Y0002936D01*
X0097696Y0002981D01*
X0097612Y0003029D01*
X0097530Y0003081D01*
X0097451Y0003136D01*
X0097373Y0003195D01*
X0097298Y0003256D01*
X0097226Y0003321D01*
X0097156Y0003388D01*
X0097089Y0003459D01*
X0097026Y0003532D01*
X0096965Y0003607D01*
X0096907Y0003685D01*
X0096853Y0003766D01*
X0096802Y0003848D01*
X0096754Y0003933D01*
X0096710Y0004019D01*
X0096669Y0004107D01*
X0096633Y0004197D01*
X0096599Y0004288D01*
X0096570Y0004380D01*
X0096544Y0004474D01*
X0096523Y0004568D01*
X0096505Y0004664D01*
X0096491Y0004760D01*
X0096481Y0004856D01*
X0096475Y0004953D01*
X0096473Y0005050D01*
X0106473Y0005050D02*
X0106475Y0005147D01*
X0106481Y0005244D01*
X0106491Y0005340D01*
X0106505Y0005436D01*
X0106523Y0005532D01*
X0106544Y0005626D01*
X0106570Y0005720D01*
X0106599Y0005812D01*
X0106633Y0005903D01*
X0106669Y0005993D01*
X0106710Y0006081D01*
X0106754Y0006167D01*
X0106802Y0006252D01*
X0106853Y0006334D01*
X0106907Y0006415D01*
X0106965Y0006493D01*
X0107026Y0006568D01*
X0107089Y0006641D01*
X0107156Y0006712D01*
X0107226Y0006779D01*
X0107298Y0006844D01*
X0107373Y0006905D01*
X0107451Y0006964D01*
X0107530Y0007019D01*
X0107612Y0007071D01*
X0107696Y0007119D01*
X0107782Y0007164D01*
X0107870Y0007206D01*
X0107959Y0007244D01*
X0108050Y0007278D01*
X0108142Y0007308D01*
X0108235Y0007335D01*
X0108330Y0007357D01*
X0108425Y0007376D01*
X0108521Y0007391D01*
X0108617Y0007402D01*
X0108714Y0007409D01*
X0108811Y0007412D01*
X0108908Y0007411D01*
X0109005Y0007406D01*
X0109101Y0007397D01*
X0109197Y0007384D01*
X0109293Y0007367D01*
X0109388Y0007346D01*
X0109481Y0007322D01*
X0109574Y0007293D01*
X0109666Y0007261D01*
X0109756Y0007225D01*
X0109844Y0007186D01*
X0109931Y0007142D01*
X0110016Y0007096D01*
X0110099Y0007045D01*
X0110180Y0006992D01*
X0110258Y0006935D01*
X0110335Y0006875D01*
X0110408Y0006812D01*
X0110479Y0006746D01*
X0110547Y0006677D01*
X0110613Y0006605D01*
X0110675Y0006531D01*
X0110734Y0006454D01*
X0110790Y0006375D01*
X0110843Y0006293D01*
X0110893Y0006210D01*
X0110938Y0006124D01*
X0110981Y0006037D01*
X0111020Y0005948D01*
X0111055Y0005858D01*
X0111086Y0005766D01*
X0111113Y0005673D01*
X0111137Y0005579D01*
X0111157Y0005484D01*
X0111173Y0005388D01*
X0111185Y0005292D01*
X0111193Y0005195D01*
X0111197Y0005098D01*
X0111197Y0005002D01*
X0111193Y0004905D01*
X0111185Y0004808D01*
X0111173Y0004712D01*
X0111157Y0004616D01*
X0111137Y0004521D01*
X0111113Y0004427D01*
X0111086Y0004334D01*
X0111055Y0004242D01*
X0111020Y0004152D01*
X0110981Y0004063D01*
X0110938Y0003976D01*
X0110893Y0003890D01*
X0110843Y0003807D01*
X0110790Y0003725D01*
X0110734Y0003646D01*
X0110675Y0003569D01*
X0110613Y0003495D01*
X0110547Y0003423D01*
X0110479Y0003354D01*
X0110408Y0003288D01*
X0110335Y0003225D01*
X0110258Y0003165D01*
X0110180Y0003108D01*
X0110099Y0003055D01*
X0110016Y0003004D01*
X0109931Y0002958D01*
X0109844Y0002914D01*
X0109756Y0002875D01*
X0109666Y0002839D01*
X0109574Y0002807D01*
X0109481Y0002778D01*
X0109388Y0002754D01*
X0109293Y0002733D01*
X0109197Y0002716D01*
X0109101Y0002703D01*
X0109005Y0002694D01*
X0108908Y0002689D01*
X0108811Y0002688D01*
X0108714Y0002691D01*
X0108617Y0002698D01*
X0108521Y0002709D01*
X0108425Y0002724D01*
X0108330Y0002743D01*
X0108235Y0002765D01*
X0108142Y0002792D01*
X0108050Y0002822D01*
X0107959Y0002856D01*
X0107870Y0002894D01*
X0107782Y0002936D01*
X0107696Y0002981D01*
X0107612Y0003029D01*
X0107530Y0003081D01*
X0107451Y0003136D01*
X0107373Y0003195D01*
X0107298Y0003256D01*
X0107226Y0003321D01*
X0107156Y0003388D01*
X0107089Y0003459D01*
X0107026Y0003532D01*
X0106965Y0003607D01*
X0106907Y0003685D01*
X0106853Y0003766D01*
X0106802Y0003848D01*
X0106754Y0003933D01*
X0106710Y0004019D01*
X0106669Y0004107D01*
X0106633Y0004197D01*
X0106599Y0004288D01*
X0106570Y0004380D01*
X0106544Y0004474D01*
X0106523Y0004568D01*
X0106505Y0004664D01*
X0106491Y0004760D01*
X0106481Y0004856D01*
X0106475Y0004953D01*
X0106473Y0005050D01*
X0116473Y0005050D02*
X0116475Y0005147D01*
X0116481Y0005244D01*
X0116491Y0005340D01*
X0116505Y0005436D01*
X0116523Y0005532D01*
X0116544Y0005626D01*
X0116570Y0005720D01*
X0116599Y0005812D01*
X0116633Y0005903D01*
X0116669Y0005993D01*
X0116710Y0006081D01*
X0116754Y0006167D01*
X0116802Y0006252D01*
X0116853Y0006334D01*
X0116907Y0006415D01*
X0116965Y0006493D01*
X0117026Y0006568D01*
X0117089Y0006641D01*
X0117156Y0006712D01*
X0117226Y0006779D01*
X0117298Y0006844D01*
X0117373Y0006905D01*
X0117451Y0006964D01*
X0117530Y0007019D01*
X0117612Y0007071D01*
X0117696Y0007119D01*
X0117782Y0007164D01*
X0117870Y0007206D01*
X0117959Y0007244D01*
X0118050Y0007278D01*
X0118142Y0007308D01*
X0118235Y0007335D01*
X0118330Y0007357D01*
X0118425Y0007376D01*
X0118521Y0007391D01*
X0118617Y0007402D01*
X0118714Y0007409D01*
X0118811Y0007412D01*
X0118908Y0007411D01*
X0119005Y0007406D01*
X0119101Y0007397D01*
X0119197Y0007384D01*
X0119293Y0007367D01*
X0119388Y0007346D01*
X0119481Y0007322D01*
X0119574Y0007293D01*
X0119666Y0007261D01*
X0119756Y0007225D01*
X0119844Y0007186D01*
X0119931Y0007142D01*
X0120016Y0007096D01*
X0120099Y0007045D01*
X0120180Y0006992D01*
X0120258Y0006935D01*
X0120335Y0006875D01*
X0120408Y0006812D01*
X0120479Y0006746D01*
X0120547Y0006677D01*
X0120613Y0006605D01*
X0120675Y0006531D01*
X0120734Y0006454D01*
X0120790Y0006375D01*
X0120843Y0006293D01*
X0120893Y0006210D01*
X0120938Y0006124D01*
X0120981Y0006037D01*
X0121020Y0005948D01*
X0121055Y0005858D01*
X0121086Y0005766D01*
X0121113Y0005673D01*
X0121137Y0005579D01*
X0121157Y0005484D01*
X0121173Y0005388D01*
X0121185Y0005292D01*
X0121193Y0005195D01*
X0121197Y0005098D01*
X0121197Y0005002D01*
X0121193Y0004905D01*
X0121185Y0004808D01*
X0121173Y0004712D01*
X0121157Y0004616D01*
X0121137Y0004521D01*
X0121113Y0004427D01*
X0121086Y0004334D01*
X0121055Y0004242D01*
X0121020Y0004152D01*
X0120981Y0004063D01*
X0120938Y0003976D01*
X0120893Y0003890D01*
X0120843Y0003807D01*
X0120790Y0003725D01*
X0120734Y0003646D01*
X0120675Y0003569D01*
X0120613Y0003495D01*
X0120547Y0003423D01*
X0120479Y0003354D01*
X0120408Y0003288D01*
X0120335Y0003225D01*
X0120258Y0003165D01*
X0120180Y0003108D01*
X0120099Y0003055D01*
X0120016Y0003004D01*
X0119931Y0002958D01*
X0119844Y0002914D01*
X0119756Y0002875D01*
X0119666Y0002839D01*
X0119574Y0002807D01*
X0119481Y0002778D01*
X0119388Y0002754D01*
X0119293Y0002733D01*
X0119197Y0002716D01*
X0119101Y0002703D01*
X0119005Y0002694D01*
X0118908Y0002689D01*
X0118811Y0002688D01*
X0118714Y0002691D01*
X0118617Y0002698D01*
X0118521Y0002709D01*
X0118425Y0002724D01*
X0118330Y0002743D01*
X0118235Y0002765D01*
X0118142Y0002792D01*
X0118050Y0002822D01*
X0117959Y0002856D01*
X0117870Y0002894D01*
X0117782Y0002936D01*
X0117696Y0002981D01*
X0117612Y0003029D01*
X0117530Y0003081D01*
X0117451Y0003136D01*
X0117373Y0003195D01*
X0117298Y0003256D01*
X0117226Y0003321D01*
X0117156Y0003388D01*
X0117089Y0003459D01*
X0117026Y0003532D01*
X0116965Y0003607D01*
X0116907Y0003685D01*
X0116853Y0003766D01*
X0116802Y0003848D01*
X0116754Y0003933D01*
X0116710Y0004019D01*
X0116669Y0004107D01*
X0116633Y0004197D01*
X0116599Y0004288D01*
X0116570Y0004380D01*
X0116544Y0004474D01*
X0116523Y0004568D01*
X0116505Y0004664D01*
X0116491Y0004760D01*
X0116481Y0004856D01*
X0116475Y0004953D01*
X0116473Y0005050D01*
X0126473Y0005050D02*
X0126475Y0005147D01*
X0126481Y0005244D01*
X0126491Y0005340D01*
X0126505Y0005436D01*
X0126523Y0005532D01*
X0126544Y0005626D01*
X0126570Y0005720D01*
X0126599Y0005812D01*
X0126633Y0005903D01*
X0126669Y0005993D01*
X0126710Y0006081D01*
X0126754Y0006167D01*
X0126802Y0006252D01*
X0126853Y0006334D01*
X0126907Y0006415D01*
X0126965Y0006493D01*
X0127026Y0006568D01*
X0127089Y0006641D01*
X0127156Y0006712D01*
X0127226Y0006779D01*
X0127298Y0006844D01*
X0127373Y0006905D01*
X0127451Y0006964D01*
X0127530Y0007019D01*
X0127612Y0007071D01*
X0127696Y0007119D01*
X0127782Y0007164D01*
X0127870Y0007206D01*
X0127959Y0007244D01*
X0128050Y0007278D01*
X0128142Y0007308D01*
X0128235Y0007335D01*
X0128330Y0007357D01*
X0128425Y0007376D01*
X0128521Y0007391D01*
X0128617Y0007402D01*
X0128714Y0007409D01*
X0128811Y0007412D01*
X0128908Y0007411D01*
X0129005Y0007406D01*
X0129101Y0007397D01*
X0129197Y0007384D01*
X0129293Y0007367D01*
X0129388Y0007346D01*
X0129481Y0007322D01*
X0129574Y0007293D01*
X0129666Y0007261D01*
X0129756Y0007225D01*
X0129844Y0007186D01*
X0129931Y0007142D01*
X0130016Y0007096D01*
X0130099Y0007045D01*
X0130180Y0006992D01*
X0130258Y0006935D01*
X0130335Y0006875D01*
X0130408Y0006812D01*
X0130479Y0006746D01*
X0130547Y0006677D01*
X0130613Y0006605D01*
X0130675Y0006531D01*
X0130734Y0006454D01*
X0130790Y0006375D01*
X0130843Y0006293D01*
X0130893Y0006210D01*
X0130938Y0006124D01*
X0130981Y0006037D01*
X0131020Y0005948D01*
X0131055Y0005858D01*
X0131086Y0005766D01*
X0131113Y0005673D01*
X0131137Y0005579D01*
X0131157Y0005484D01*
X0131173Y0005388D01*
X0131185Y0005292D01*
X0131193Y0005195D01*
X0131197Y0005098D01*
X0131197Y0005002D01*
X0131193Y0004905D01*
X0131185Y0004808D01*
X0131173Y0004712D01*
X0131157Y0004616D01*
X0131137Y0004521D01*
X0131113Y0004427D01*
X0131086Y0004334D01*
X0131055Y0004242D01*
X0131020Y0004152D01*
X0130981Y0004063D01*
X0130938Y0003976D01*
X0130893Y0003890D01*
X0130843Y0003807D01*
X0130790Y0003725D01*
X0130734Y0003646D01*
X0130675Y0003569D01*
X0130613Y0003495D01*
X0130547Y0003423D01*
X0130479Y0003354D01*
X0130408Y0003288D01*
X0130335Y0003225D01*
X0130258Y0003165D01*
X0130180Y0003108D01*
X0130099Y0003055D01*
X0130016Y0003004D01*
X0129931Y0002958D01*
X0129844Y0002914D01*
X0129756Y0002875D01*
X0129666Y0002839D01*
X0129574Y0002807D01*
X0129481Y0002778D01*
X0129388Y0002754D01*
X0129293Y0002733D01*
X0129197Y0002716D01*
X0129101Y0002703D01*
X0129005Y0002694D01*
X0128908Y0002689D01*
X0128811Y0002688D01*
X0128714Y0002691D01*
X0128617Y0002698D01*
X0128521Y0002709D01*
X0128425Y0002724D01*
X0128330Y0002743D01*
X0128235Y0002765D01*
X0128142Y0002792D01*
X0128050Y0002822D01*
X0127959Y0002856D01*
X0127870Y0002894D01*
X0127782Y0002936D01*
X0127696Y0002981D01*
X0127612Y0003029D01*
X0127530Y0003081D01*
X0127451Y0003136D01*
X0127373Y0003195D01*
X0127298Y0003256D01*
X0127226Y0003321D01*
X0127156Y0003388D01*
X0127089Y0003459D01*
X0127026Y0003532D01*
X0126965Y0003607D01*
X0126907Y0003685D01*
X0126853Y0003766D01*
X0126802Y0003848D01*
X0126754Y0003933D01*
X0126710Y0004019D01*
X0126669Y0004107D01*
X0126633Y0004197D01*
X0126599Y0004288D01*
X0126570Y0004380D01*
X0126544Y0004474D01*
X0126523Y0004568D01*
X0126505Y0004664D01*
X0126491Y0004760D01*
X0126481Y0004856D01*
X0126475Y0004953D01*
X0126473Y0005050D01*
X0136473Y0005050D02*
X0136475Y0005147D01*
X0136481Y0005244D01*
X0136491Y0005340D01*
X0136505Y0005436D01*
X0136523Y0005532D01*
X0136544Y0005626D01*
X0136570Y0005720D01*
X0136599Y0005812D01*
X0136633Y0005903D01*
X0136669Y0005993D01*
X0136710Y0006081D01*
X0136754Y0006167D01*
X0136802Y0006252D01*
X0136853Y0006334D01*
X0136907Y0006415D01*
X0136965Y0006493D01*
X0137026Y0006568D01*
X0137089Y0006641D01*
X0137156Y0006712D01*
X0137226Y0006779D01*
X0137298Y0006844D01*
X0137373Y0006905D01*
X0137451Y0006964D01*
X0137530Y0007019D01*
X0137612Y0007071D01*
X0137696Y0007119D01*
X0137782Y0007164D01*
X0137870Y0007206D01*
X0137959Y0007244D01*
X0138050Y0007278D01*
X0138142Y0007308D01*
X0138235Y0007335D01*
X0138330Y0007357D01*
X0138425Y0007376D01*
X0138521Y0007391D01*
X0138617Y0007402D01*
X0138714Y0007409D01*
X0138811Y0007412D01*
X0138908Y0007411D01*
X0139005Y0007406D01*
X0139101Y0007397D01*
X0139197Y0007384D01*
X0139293Y0007367D01*
X0139388Y0007346D01*
X0139481Y0007322D01*
X0139574Y0007293D01*
X0139666Y0007261D01*
X0139756Y0007225D01*
X0139844Y0007186D01*
X0139931Y0007142D01*
X0140016Y0007096D01*
X0140099Y0007045D01*
X0140180Y0006992D01*
X0140258Y0006935D01*
X0140335Y0006875D01*
X0140408Y0006812D01*
X0140479Y0006746D01*
X0140547Y0006677D01*
X0140613Y0006605D01*
X0140675Y0006531D01*
X0140734Y0006454D01*
X0140790Y0006375D01*
X0140843Y0006293D01*
X0140893Y0006210D01*
X0140938Y0006124D01*
X0140981Y0006037D01*
X0141020Y0005948D01*
X0141055Y0005858D01*
X0141086Y0005766D01*
X0141113Y0005673D01*
X0141137Y0005579D01*
X0141157Y0005484D01*
X0141173Y0005388D01*
X0141185Y0005292D01*
X0141193Y0005195D01*
X0141197Y0005098D01*
X0141197Y0005002D01*
X0141193Y0004905D01*
X0141185Y0004808D01*
X0141173Y0004712D01*
X0141157Y0004616D01*
X0141137Y0004521D01*
X0141113Y0004427D01*
X0141086Y0004334D01*
X0141055Y0004242D01*
X0141020Y0004152D01*
X0140981Y0004063D01*
X0140938Y0003976D01*
X0140893Y0003890D01*
X0140843Y0003807D01*
X0140790Y0003725D01*
X0140734Y0003646D01*
X0140675Y0003569D01*
X0140613Y0003495D01*
X0140547Y0003423D01*
X0140479Y0003354D01*
X0140408Y0003288D01*
X0140335Y0003225D01*
X0140258Y0003165D01*
X0140180Y0003108D01*
X0140099Y0003055D01*
X0140016Y0003004D01*
X0139931Y0002958D01*
X0139844Y0002914D01*
X0139756Y0002875D01*
X0139666Y0002839D01*
X0139574Y0002807D01*
X0139481Y0002778D01*
X0139388Y0002754D01*
X0139293Y0002733D01*
X0139197Y0002716D01*
X0139101Y0002703D01*
X0139005Y0002694D01*
X0138908Y0002689D01*
X0138811Y0002688D01*
X0138714Y0002691D01*
X0138617Y0002698D01*
X0138521Y0002709D01*
X0138425Y0002724D01*
X0138330Y0002743D01*
X0138235Y0002765D01*
X0138142Y0002792D01*
X0138050Y0002822D01*
X0137959Y0002856D01*
X0137870Y0002894D01*
X0137782Y0002936D01*
X0137696Y0002981D01*
X0137612Y0003029D01*
X0137530Y0003081D01*
X0137451Y0003136D01*
X0137373Y0003195D01*
X0137298Y0003256D01*
X0137226Y0003321D01*
X0137156Y0003388D01*
X0137089Y0003459D01*
X0137026Y0003532D01*
X0136965Y0003607D01*
X0136907Y0003685D01*
X0136853Y0003766D01*
X0136802Y0003848D01*
X0136754Y0003933D01*
X0136710Y0004019D01*
X0136669Y0004107D01*
X0136633Y0004197D01*
X0136599Y0004288D01*
X0136570Y0004380D01*
X0136544Y0004474D01*
X0136523Y0004568D01*
X0136505Y0004664D01*
X0136491Y0004760D01*
X0136481Y0004856D01*
X0136475Y0004953D01*
X0136473Y0005050D01*
X0146473Y0005050D02*
X0146475Y0005147D01*
X0146481Y0005244D01*
X0146491Y0005340D01*
X0146505Y0005436D01*
X0146523Y0005532D01*
X0146544Y0005626D01*
X0146570Y0005720D01*
X0146599Y0005812D01*
X0146633Y0005903D01*
X0146669Y0005993D01*
X0146710Y0006081D01*
X0146754Y0006167D01*
X0146802Y0006252D01*
X0146853Y0006334D01*
X0146907Y0006415D01*
X0146965Y0006493D01*
X0147026Y0006568D01*
X0147089Y0006641D01*
X0147156Y0006712D01*
X0147226Y0006779D01*
X0147298Y0006844D01*
X0147373Y0006905D01*
X0147451Y0006964D01*
X0147530Y0007019D01*
X0147612Y0007071D01*
X0147696Y0007119D01*
X0147782Y0007164D01*
X0147870Y0007206D01*
X0147959Y0007244D01*
X0148050Y0007278D01*
X0148142Y0007308D01*
X0148235Y0007335D01*
X0148330Y0007357D01*
X0148425Y0007376D01*
X0148521Y0007391D01*
X0148617Y0007402D01*
X0148714Y0007409D01*
X0148811Y0007412D01*
X0148908Y0007411D01*
X0149005Y0007406D01*
X0149101Y0007397D01*
X0149197Y0007384D01*
X0149293Y0007367D01*
X0149388Y0007346D01*
X0149481Y0007322D01*
X0149574Y0007293D01*
X0149666Y0007261D01*
X0149756Y0007225D01*
X0149844Y0007186D01*
X0149931Y0007142D01*
X0150016Y0007096D01*
X0150099Y0007045D01*
X0150180Y0006992D01*
X0150258Y0006935D01*
X0150335Y0006875D01*
X0150408Y0006812D01*
X0150479Y0006746D01*
X0150547Y0006677D01*
X0150613Y0006605D01*
X0150675Y0006531D01*
X0150734Y0006454D01*
X0150790Y0006375D01*
X0150843Y0006293D01*
X0150893Y0006210D01*
X0150938Y0006124D01*
X0150981Y0006037D01*
X0151020Y0005948D01*
X0151055Y0005858D01*
X0151086Y0005766D01*
X0151113Y0005673D01*
X0151137Y0005579D01*
X0151157Y0005484D01*
X0151173Y0005388D01*
X0151185Y0005292D01*
X0151193Y0005195D01*
X0151197Y0005098D01*
X0151197Y0005002D01*
X0151193Y0004905D01*
X0151185Y0004808D01*
X0151173Y0004712D01*
X0151157Y0004616D01*
X0151137Y0004521D01*
X0151113Y0004427D01*
X0151086Y0004334D01*
X0151055Y0004242D01*
X0151020Y0004152D01*
X0150981Y0004063D01*
X0150938Y0003976D01*
X0150893Y0003890D01*
X0150843Y0003807D01*
X0150790Y0003725D01*
X0150734Y0003646D01*
X0150675Y0003569D01*
X0150613Y0003495D01*
X0150547Y0003423D01*
X0150479Y0003354D01*
X0150408Y0003288D01*
X0150335Y0003225D01*
X0150258Y0003165D01*
X0150180Y0003108D01*
X0150099Y0003055D01*
X0150016Y0003004D01*
X0149931Y0002958D01*
X0149844Y0002914D01*
X0149756Y0002875D01*
X0149666Y0002839D01*
X0149574Y0002807D01*
X0149481Y0002778D01*
X0149388Y0002754D01*
X0149293Y0002733D01*
X0149197Y0002716D01*
X0149101Y0002703D01*
X0149005Y0002694D01*
X0148908Y0002689D01*
X0148811Y0002688D01*
X0148714Y0002691D01*
X0148617Y0002698D01*
X0148521Y0002709D01*
X0148425Y0002724D01*
X0148330Y0002743D01*
X0148235Y0002765D01*
X0148142Y0002792D01*
X0148050Y0002822D01*
X0147959Y0002856D01*
X0147870Y0002894D01*
X0147782Y0002936D01*
X0147696Y0002981D01*
X0147612Y0003029D01*
X0147530Y0003081D01*
X0147451Y0003136D01*
X0147373Y0003195D01*
X0147298Y0003256D01*
X0147226Y0003321D01*
X0147156Y0003388D01*
X0147089Y0003459D01*
X0147026Y0003532D01*
X0146965Y0003607D01*
X0146907Y0003685D01*
X0146853Y0003766D01*
X0146802Y0003848D01*
X0146754Y0003933D01*
X0146710Y0004019D01*
X0146669Y0004107D01*
X0146633Y0004197D01*
X0146599Y0004288D01*
X0146570Y0004380D01*
X0146544Y0004474D01*
X0146523Y0004568D01*
X0146505Y0004664D01*
X0146491Y0004760D01*
X0146481Y0004856D01*
X0146475Y0004953D01*
X0146473Y0005050D01*
X0156473Y0005050D02*
X0156475Y0005147D01*
X0156481Y0005244D01*
X0156491Y0005340D01*
X0156505Y0005436D01*
X0156523Y0005532D01*
X0156544Y0005626D01*
X0156570Y0005720D01*
X0156599Y0005812D01*
X0156633Y0005903D01*
X0156669Y0005993D01*
X0156710Y0006081D01*
X0156754Y0006167D01*
X0156802Y0006252D01*
X0156853Y0006334D01*
X0156907Y0006415D01*
X0156965Y0006493D01*
X0157026Y0006568D01*
X0157089Y0006641D01*
X0157156Y0006712D01*
X0157226Y0006779D01*
X0157298Y0006844D01*
X0157373Y0006905D01*
X0157451Y0006964D01*
X0157530Y0007019D01*
X0157612Y0007071D01*
X0157696Y0007119D01*
X0157782Y0007164D01*
X0157870Y0007206D01*
X0157959Y0007244D01*
X0158050Y0007278D01*
X0158142Y0007308D01*
X0158235Y0007335D01*
X0158330Y0007357D01*
X0158425Y0007376D01*
X0158521Y0007391D01*
X0158617Y0007402D01*
X0158714Y0007409D01*
X0158811Y0007412D01*
X0158908Y0007411D01*
X0159005Y0007406D01*
X0159101Y0007397D01*
X0159197Y0007384D01*
X0159293Y0007367D01*
X0159388Y0007346D01*
X0159481Y0007322D01*
X0159574Y0007293D01*
X0159666Y0007261D01*
X0159756Y0007225D01*
X0159844Y0007186D01*
X0159931Y0007142D01*
X0160016Y0007096D01*
X0160099Y0007045D01*
X0160180Y0006992D01*
X0160258Y0006935D01*
X0160335Y0006875D01*
X0160408Y0006812D01*
X0160479Y0006746D01*
X0160547Y0006677D01*
X0160613Y0006605D01*
X0160675Y0006531D01*
X0160734Y0006454D01*
X0160790Y0006375D01*
X0160843Y0006293D01*
X0160893Y0006210D01*
X0160938Y0006124D01*
X0160981Y0006037D01*
X0161020Y0005948D01*
X0161055Y0005858D01*
X0161086Y0005766D01*
X0161113Y0005673D01*
X0161137Y0005579D01*
X0161157Y0005484D01*
X0161173Y0005388D01*
X0161185Y0005292D01*
X0161193Y0005195D01*
X0161197Y0005098D01*
X0161197Y0005002D01*
X0161193Y0004905D01*
X0161185Y0004808D01*
X0161173Y0004712D01*
X0161157Y0004616D01*
X0161137Y0004521D01*
X0161113Y0004427D01*
X0161086Y0004334D01*
X0161055Y0004242D01*
X0161020Y0004152D01*
X0160981Y0004063D01*
X0160938Y0003976D01*
X0160893Y0003890D01*
X0160843Y0003807D01*
X0160790Y0003725D01*
X0160734Y0003646D01*
X0160675Y0003569D01*
X0160613Y0003495D01*
X0160547Y0003423D01*
X0160479Y0003354D01*
X0160408Y0003288D01*
X0160335Y0003225D01*
X0160258Y0003165D01*
X0160180Y0003108D01*
X0160099Y0003055D01*
X0160016Y0003004D01*
X0159931Y0002958D01*
X0159844Y0002914D01*
X0159756Y0002875D01*
X0159666Y0002839D01*
X0159574Y0002807D01*
X0159481Y0002778D01*
X0159388Y0002754D01*
X0159293Y0002733D01*
X0159197Y0002716D01*
X0159101Y0002703D01*
X0159005Y0002694D01*
X0158908Y0002689D01*
X0158811Y0002688D01*
X0158714Y0002691D01*
X0158617Y0002698D01*
X0158521Y0002709D01*
X0158425Y0002724D01*
X0158330Y0002743D01*
X0158235Y0002765D01*
X0158142Y0002792D01*
X0158050Y0002822D01*
X0157959Y0002856D01*
X0157870Y0002894D01*
X0157782Y0002936D01*
X0157696Y0002981D01*
X0157612Y0003029D01*
X0157530Y0003081D01*
X0157451Y0003136D01*
X0157373Y0003195D01*
X0157298Y0003256D01*
X0157226Y0003321D01*
X0157156Y0003388D01*
X0157089Y0003459D01*
X0157026Y0003532D01*
X0156965Y0003607D01*
X0156907Y0003685D01*
X0156853Y0003766D01*
X0156802Y0003848D01*
X0156754Y0003933D01*
X0156710Y0004019D01*
X0156669Y0004107D01*
X0156633Y0004197D01*
X0156599Y0004288D01*
X0156570Y0004380D01*
X0156544Y0004474D01*
X0156523Y0004568D01*
X0156505Y0004664D01*
X0156491Y0004760D01*
X0156481Y0004856D01*
X0156475Y0004953D01*
X0156473Y0005050D01*
X0166473Y0005050D02*
X0166475Y0005147D01*
X0166481Y0005244D01*
X0166491Y0005340D01*
X0166505Y0005436D01*
X0166523Y0005532D01*
X0166544Y0005626D01*
X0166570Y0005720D01*
X0166599Y0005812D01*
X0166633Y0005903D01*
X0166669Y0005993D01*
X0166710Y0006081D01*
X0166754Y0006167D01*
X0166802Y0006252D01*
X0166853Y0006334D01*
X0166907Y0006415D01*
X0166965Y0006493D01*
X0167026Y0006568D01*
X0167089Y0006641D01*
X0167156Y0006712D01*
X0167226Y0006779D01*
X0167298Y0006844D01*
X0167373Y0006905D01*
X0167451Y0006964D01*
X0167530Y0007019D01*
X0167612Y0007071D01*
X0167696Y0007119D01*
X0167782Y0007164D01*
X0167870Y0007206D01*
X0167959Y0007244D01*
X0168050Y0007278D01*
X0168142Y0007308D01*
X0168235Y0007335D01*
X0168330Y0007357D01*
X0168425Y0007376D01*
X0168521Y0007391D01*
X0168617Y0007402D01*
X0168714Y0007409D01*
X0168811Y0007412D01*
X0168908Y0007411D01*
X0169005Y0007406D01*
X0169101Y0007397D01*
X0169197Y0007384D01*
X0169293Y0007367D01*
X0169388Y0007346D01*
X0169481Y0007322D01*
X0169574Y0007293D01*
X0169666Y0007261D01*
X0169756Y0007225D01*
X0169844Y0007186D01*
X0169931Y0007142D01*
X0170016Y0007096D01*
X0170099Y0007045D01*
X0170180Y0006992D01*
X0170258Y0006935D01*
X0170335Y0006875D01*
X0170408Y0006812D01*
X0170479Y0006746D01*
X0170547Y0006677D01*
X0170613Y0006605D01*
X0170675Y0006531D01*
X0170734Y0006454D01*
X0170790Y0006375D01*
X0170843Y0006293D01*
X0170893Y0006210D01*
X0170938Y0006124D01*
X0170981Y0006037D01*
X0171020Y0005948D01*
X0171055Y0005858D01*
X0171086Y0005766D01*
X0171113Y0005673D01*
X0171137Y0005579D01*
X0171157Y0005484D01*
X0171173Y0005388D01*
X0171185Y0005292D01*
X0171193Y0005195D01*
X0171197Y0005098D01*
X0171197Y0005002D01*
X0171193Y0004905D01*
X0171185Y0004808D01*
X0171173Y0004712D01*
X0171157Y0004616D01*
X0171137Y0004521D01*
X0171113Y0004427D01*
X0171086Y0004334D01*
X0171055Y0004242D01*
X0171020Y0004152D01*
X0170981Y0004063D01*
X0170938Y0003976D01*
X0170893Y0003890D01*
X0170843Y0003807D01*
X0170790Y0003725D01*
X0170734Y0003646D01*
X0170675Y0003569D01*
X0170613Y0003495D01*
X0170547Y0003423D01*
X0170479Y0003354D01*
X0170408Y0003288D01*
X0170335Y0003225D01*
X0170258Y0003165D01*
X0170180Y0003108D01*
X0170099Y0003055D01*
X0170016Y0003004D01*
X0169931Y0002958D01*
X0169844Y0002914D01*
X0169756Y0002875D01*
X0169666Y0002839D01*
X0169574Y0002807D01*
X0169481Y0002778D01*
X0169388Y0002754D01*
X0169293Y0002733D01*
X0169197Y0002716D01*
X0169101Y0002703D01*
X0169005Y0002694D01*
X0168908Y0002689D01*
X0168811Y0002688D01*
X0168714Y0002691D01*
X0168617Y0002698D01*
X0168521Y0002709D01*
X0168425Y0002724D01*
X0168330Y0002743D01*
X0168235Y0002765D01*
X0168142Y0002792D01*
X0168050Y0002822D01*
X0167959Y0002856D01*
X0167870Y0002894D01*
X0167782Y0002936D01*
X0167696Y0002981D01*
X0167612Y0003029D01*
X0167530Y0003081D01*
X0167451Y0003136D01*
X0167373Y0003195D01*
X0167298Y0003256D01*
X0167226Y0003321D01*
X0167156Y0003388D01*
X0167089Y0003459D01*
X0167026Y0003532D01*
X0166965Y0003607D01*
X0166907Y0003685D01*
X0166853Y0003766D01*
X0166802Y0003848D01*
X0166754Y0003933D01*
X0166710Y0004019D01*
X0166669Y0004107D01*
X0166633Y0004197D01*
X0166599Y0004288D01*
X0166570Y0004380D01*
X0166544Y0004474D01*
X0166523Y0004568D01*
X0166505Y0004664D01*
X0166491Y0004760D01*
X0166481Y0004856D01*
X0166475Y0004953D01*
X0166473Y0005050D01*
X0176473Y0005050D02*
X0176475Y0005147D01*
X0176481Y0005244D01*
X0176491Y0005340D01*
X0176505Y0005436D01*
X0176523Y0005532D01*
X0176544Y0005626D01*
X0176570Y0005720D01*
X0176599Y0005812D01*
X0176633Y0005903D01*
X0176669Y0005993D01*
X0176710Y0006081D01*
X0176754Y0006167D01*
X0176802Y0006252D01*
X0176853Y0006334D01*
X0176907Y0006415D01*
X0176965Y0006493D01*
X0177026Y0006568D01*
X0177089Y0006641D01*
X0177156Y0006712D01*
X0177226Y0006779D01*
X0177298Y0006844D01*
X0177373Y0006905D01*
X0177451Y0006964D01*
X0177530Y0007019D01*
X0177612Y0007071D01*
X0177696Y0007119D01*
X0177782Y0007164D01*
X0177870Y0007206D01*
X0177959Y0007244D01*
X0178050Y0007278D01*
X0178142Y0007308D01*
X0178235Y0007335D01*
X0178330Y0007357D01*
X0178425Y0007376D01*
X0178521Y0007391D01*
X0178617Y0007402D01*
X0178714Y0007409D01*
X0178811Y0007412D01*
X0178908Y0007411D01*
X0179005Y0007406D01*
X0179101Y0007397D01*
X0179197Y0007384D01*
X0179293Y0007367D01*
X0179388Y0007346D01*
X0179481Y0007322D01*
X0179574Y0007293D01*
X0179666Y0007261D01*
X0179756Y0007225D01*
X0179844Y0007186D01*
X0179931Y0007142D01*
X0180016Y0007096D01*
X0180099Y0007045D01*
X0180180Y0006992D01*
X0180258Y0006935D01*
X0180335Y0006875D01*
X0180408Y0006812D01*
X0180479Y0006746D01*
X0180547Y0006677D01*
X0180613Y0006605D01*
X0180675Y0006531D01*
X0180734Y0006454D01*
X0180790Y0006375D01*
X0180843Y0006293D01*
X0180893Y0006210D01*
X0180938Y0006124D01*
X0180981Y0006037D01*
X0181020Y0005948D01*
X0181055Y0005858D01*
X0181086Y0005766D01*
X0181113Y0005673D01*
X0181137Y0005579D01*
X0181157Y0005484D01*
X0181173Y0005388D01*
X0181185Y0005292D01*
X0181193Y0005195D01*
X0181197Y0005098D01*
X0181197Y0005002D01*
X0181193Y0004905D01*
X0181185Y0004808D01*
X0181173Y0004712D01*
X0181157Y0004616D01*
X0181137Y0004521D01*
X0181113Y0004427D01*
X0181086Y0004334D01*
X0181055Y0004242D01*
X0181020Y0004152D01*
X0180981Y0004063D01*
X0180938Y0003976D01*
X0180893Y0003890D01*
X0180843Y0003807D01*
X0180790Y0003725D01*
X0180734Y0003646D01*
X0180675Y0003569D01*
X0180613Y0003495D01*
X0180547Y0003423D01*
X0180479Y0003354D01*
X0180408Y0003288D01*
X0180335Y0003225D01*
X0180258Y0003165D01*
X0180180Y0003108D01*
X0180099Y0003055D01*
X0180016Y0003004D01*
X0179931Y0002958D01*
X0179844Y0002914D01*
X0179756Y0002875D01*
X0179666Y0002839D01*
X0179574Y0002807D01*
X0179481Y0002778D01*
X0179388Y0002754D01*
X0179293Y0002733D01*
X0179197Y0002716D01*
X0179101Y0002703D01*
X0179005Y0002694D01*
X0178908Y0002689D01*
X0178811Y0002688D01*
X0178714Y0002691D01*
X0178617Y0002698D01*
X0178521Y0002709D01*
X0178425Y0002724D01*
X0178330Y0002743D01*
X0178235Y0002765D01*
X0178142Y0002792D01*
X0178050Y0002822D01*
X0177959Y0002856D01*
X0177870Y0002894D01*
X0177782Y0002936D01*
X0177696Y0002981D01*
X0177612Y0003029D01*
X0177530Y0003081D01*
X0177451Y0003136D01*
X0177373Y0003195D01*
X0177298Y0003256D01*
X0177226Y0003321D01*
X0177156Y0003388D01*
X0177089Y0003459D01*
X0177026Y0003532D01*
X0176965Y0003607D01*
X0176907Y0003685D01*
X0176853Y0003766D01*
X0176802Y0003848D01*
X0176754Y0003933D01*
X0176710Y0004019D01*
X0176669Y0004107D01*
X0176633Y0004197D01*
X0176599Y0004288D01*
X0176570Y0004380D01*
X0176544Y0004474D01*
X0176523Y0004568D01*
X0176505Y0004664D01*
X0176491Y0004760D01*
X0176481Y0004856D01*
X0176475Y0004953D01*
X0176473Y0005050D01*
X0186473Y0005050D02*
X0186475Y0005147D01*
X0186481Y0005244D01*
X0186491Y0005340D01*
X0186505Y0005436D01*
X0186523Y0005532D01*
X0186544Y0005626D01*
X0186570Y0005720D01*
X0186599Y0005812D01*
X0186633Y0005903D01*
X0186669Y0005993D01*
X0186710Y0006081D01*
X0186754Y0006167D01*
X0186802Y0006252D01*
X0186853Y0006334D01*
X0186907Y0006415D01*
X0186965Y0006493D01*
X0187026Y0006568D01*
X0187089Y0006641D01*
X0187156Y0006712D01*
X0187226Y0006779D01*
X0187298Y0006844D01*
X0187373Y0006905D01*
X0187451Y0006964D01*
X0187530Y0007019D01*
X0187612Y0007071D01*
X0187696Y0007119D01*
X0187782Y0007164D01*
X0187870Y0007206D01*
X0187959Y0007244D01*
X0188050Y0007278D01*
X0188142Y0007308D01*
X0188235Y0007335D01*
X0188330Y0007357D01*
X0188425Y0007376D01*
X0188521Y0007391D01*
X0188617Y0007402D01*
X0188714Y0007409D01*
X0188811Y0007412D01*
X0188908Y0007411D01*
X0189005Y0007406D01*
X0189101Y0007397D01*
X0189197Y0007384D01*
X0189293Y0007367D01*
X0189388Y0007346D01*
X0189481Y0007322D01*
X0189574Y0007293D01*
X0189666Y0007261D01*
X0189756Y0007225D01*
X0189844Y0007186D01*
X0189931Y0007142D01*
X0190016Y0007096D01*
X0190099Y0007045D01*
X0190180Y0006992D01*
X0190258Y0006935D01*
X0190335Y0006875D01*
X0190408Y0006812D01*
X0190479Y0006746D01*
X0190547Y0006677D01*
X0190613Y0006605D01*
X0190675Y0006531D01*
X0190734Y0006454D01*
X0190790Y0006375D01*
X0190843Y0006293D01*
X0190893Y0006210D01*
X0190938Y0006124D01*
X0190981Y0006037D01*
X0191020Y0005948D01*
X0191055Y0005858D01*
X0191086Y0005766D01*
X0191113Y0005673D01*
X0191137Y0005579D01*
X0191157Y0005484D01*
X0191173Y0005388D01*
X0191185Y0005292D01*
X0191193Y0005195D01*
X0191197Y0005098D01*
X0191197Y0005002D01*
X0191193Y0004905D01*
X0191185Y0004808D01*
X0191173Y0004712D01*
X0191157Y0004616D01*
X0191137Y0004521D01*
X0191113Y0004427D01*
X0191086Y0004334D01*
X0191055Y0004242D01*
X0191020Y0004152D01*
X0190981Y0004063D01*
X0190938Y0003976D01*
X0190893Y0003890D01*
X0190843Y0003807D01*
X0190790Y0003725D01*
X0190734Y0003646D01*
X0190675Y0003569D01*
X0190613Y0003495D01*
X0190547Y0003423D01*
X0190479Y0003354D01*
X0190408Y0003288D01*
X0190335Y0003225D01*
X0190258Y0003165D01*
X0190180Y0003108D01*
X0190099Y0003055D01*
X0190016Y0003004D01*
X0189931Y0002958D01*
X0189844Y0002914D01*
X0189756Y0002875D01*
X0189666Y0002839D01*
X0189574Y0002807D01*
X0189481Y0002778D01*
X0189388Y0002754D01*
X0189293Y0002733D01*
X0189197Y0002716D01*
X0189101Y0002703D01*
X0189005Y0002694D01*
X0188908Y0002689D01*
X0188811Y0002688D01*
X0188714Y0002691D01*
X0188617Y0002698D01*
X0188521Y0002709D01*
X0188425Y0002724D01*
X0188330Y0002743D01*
X0188235Y0002765D01*
X0188142Y0002792D01*
X0188050Y0002822D01*
X0187959Y0002856D01*
X0187870Y0002894D01*
X0187782Y0002936D01*
X0187696Y0002981D01*
X0187612Y0003029D01*
X0187530Y0003081D01*
X0187451Y0003136D01*
X0187373Y0003195D01*
X0187298Y0003256D01*
X0187226Y0003321D01*
X0187156Y0003388D01*
X0187089Y0003459D01*
X0187026Y0003532D01*
X0186965Y0003607D01*
X0186907Y0003685D01*
X0186853Y0003766D01*
X0186802Y0003848D01*
X0186754Y0003933D01*
X0186710Y0004019D01*
X0186669Y0004107D01*
X0186633Y0004197D01*
X0186599Y0004288D01*
X0186570Y0004380D01*
X0186544Y0004474D01*
X0186523Y0004568D01*
X0186505Y0004664D01*
X0186491Y0004760D01*
X0186481Y0004856D01*
X0186475Y0004953D01*
X0186473Y0005050D01*
X0196473Y0005050D02*
X0196475Y0005147D01*
X0196481Y0005244D01*
X0196491Y0005340D01*
X0196505Y0005436D01*
X0196523Y0005532D01*
X0196544Y0005626D01*
X0196570Y0005720D01*
X0196599Y0005812D01*
X0196633Y0005903D01*
X0196669Y0005993D01*
X0196710Y0006081D01*
X0196754Y0006167D01*
X0196802Y0006252D01*
X0196853Y0006334D01*
X0196907Y0006415D01*
X0196965Y0006493D01*
X0197026Y0006568D01*
X0197089Y0006641D01*
X0197156Y0006712D01*
X0197226Y0006779D01*
X0197298Y0006844D01*
X0197373Y0006905D01*
X0197451Y0006964D01*
X0197530Y0007019D01*
X0197612Y0007071D01*
X0197696Y0007119D01*
X0197782Y0007164D01*
X0197870Y0007206D01*
X0197959Y0007244D01*
X0198050Y0007278D01*
X0198142Y0007308D01*
X0198235Y0007335D01*
X0198330Y0007357D01*
X0198425Y0007376D01*
X0198521Y0007391D01*
X0198617Y0007402D01*
X0198714Y0007409D01*
X0198811Y0007412D01*
X0198908Y0007411D01*
X0199005Y0007406D01*
X0199101Y0007397D01*
X0199197Y0007384D01*
X0199293Y0007367D01*
X0199388Y0007346D01*
X0199481Y0007322D01*
X0199574Y0007293D01*
X0199666Y0007261D01*
X0199756Y0007225D01*
X0199844Y0007186D01*
X0199931Y0007142D01*
X0200016Y0007096D01*
X0200099Y0007045D01*
X0200180Y0006992D01*
X0200258Y0006935D01*
X0200335Y0006875D01*
X0200408Y0006812D01*
X0200479Y0006746D01*
X0200547Y0006677D01*
X0200613Y0006605D01*
X0200675Y0006531D01*
X0200734Y0006454D01*
X0200790Y0006375D01*
X0200843Y0006293D01*
X0200893Y0006210D01*
X0200938Y0006124D01*
X0200981Y0006037D01*
X0201020Y0005948D01*
X0201055Y0005858D01*
X0201086Y0005766D01*
X0201113Y0005673D01*
X0201137Y0005579D01*
X0201157Y0005484D01*
X0201173Y0005388D01*
X0201185Y0005292D01*
X0201193Y0005195D01*
X0201197Y0005098D01*
X0201197Y0005002D01*
X0201193Y0004905D01*
X0201185Y0004808D01*
X0201173Y0004712D01*
X0201157Y0004616D01*
X0201137Y0004521D01*
X0201113Y0004427D01*
X0201086Y0004334D01*
X0201055Y0004242D01*
X0201020Y0004152D01*
X0200981Y0004063D01*
X0200938Y0003976D01*
X0200893Y0003890D01*
X0200843Y0003807D01*
X0200790Y0003725D01*
X0200734Y0003646D01*
X0200675Y0003569D01*
X0200613Y0003495D01*
X0200547Y0003423D01*
X0200479Y0003354D01*
X0200408Y0003288D01*
X0200335Y0003225D01*
X0200258Y0003165D01*
X0200180Y0003108D01*
X0200099Y0003055D01*
X0200016Y0003004D01*
X0199931Y0002958D01*
X0199844Y0002914D01*
X0199756Y0002875D01*
X0199666Y0002839D01*
X0199574Y0002807D01*
X0199481Y0002778D01*
X0199388Y0002754D01*
X0199293Y0002733D01*
X0199197Y0002716D01*
X0199101Y0002703D01*
X0199005Y0002694D01*
X0198908Y0002689D01*
X0198811Y0002688D01*
X0198714Y0002691D01*
X0198617Y0002698D01*
X0198521Y0002709D01*
X0198425Y0002724D01*
X0198330Y0002743D01*
X0198235Y0002765D01*
X0198142Y0002792D01*
X0198050Y0002822D01*
X0197959Y0002856D01*
X0197870Y0002894D01*
X0197782Y0002936D01*
X0197696Y0002981D01*
X0197612Y0003029D01*
X0197530Y0003081D01*
X0197451Y0003136D01*
X0197373Y0003195D01*
X0197298Y0003256D01*
X0197226Y0003321D01*
X0197156Y0003388D01*
X0197089Y0003459D01*
X0197026Y0003532D01*
X0196965Y0003607D01*
X0196907Y0003685D01*
X0196853Y0003766D01*
X0196802Y0003848D01*
X0196754Y0003933D01*
X0196710Y0004019D01*
X0196669Y0004107D01*
X0196633Y0004197D01*
X0196599Y0004288D01*
X0196570Y0004380D01*
X0196544Y0004474D01*
X0196523Y0004568D01*
X0196505Y0004664D01*
X0196491Y0004760D01*
X0196481Y0004856D01*
X0196475Y0004953D01*
X0196473Y0005050D01*
X0196473Y0152609D02*
X0196475Y0152706D01*
X0196481Y0152803D01*
X0196491Y0152899D01*
X0196505Y0152995D01*
X0196523Y0153091D01*
X0196544Y0153185D01*
X0196570Y0153279D01*
X0196599Y0153371D01*
X0196633Y0153462D01*
X0196669Y0153552D01*
X0196710Y0153640D01*
X0196754Y0153726D01*
X0196802Y0153811D01*
X0196853Y0153893D01*
X0196907Y0153974D01*
X0196965Y0154052D01*
X0197026Y0154127D01*
X0197089Y0154200D01*
X0197156Y0154271D01*
X0197226Y0154338D01*
X0197298Y0154403D01*
X0197373Y0154464D01*
X0197451Y0154523D01*
X0197530Y0154578D01*
X0197612Y0154630D01*
X0197696Y0154678D01*
X0197782Y0154723D01*
X0197870Y0154765D01*
X0197959Y0154803D01*
X0198050Y0154837D01*
X0198142Y0154867D01*
X0198235Y0154894D01*
X0198330Y0154916D01*
X0198425Y0154935D01*
X0198521Y0154950D01*
X0198617Y0154961D01*
X0198714Y0154968D01*
X0198811Y0154971D01*
X0198908Y0154970D01*
X0199005Y0154965D01*
X0199101Y0154956D01*
X0199197Y0154943D01*
X0199293Y0154926D01*
X0199388Y0154905D01*
X0199481Y0154881D01*
X0199574Y0154852D01*
X0199666Y0154820D01*
X0199756Y0154784D01*
X0199844Y0154745D01*
X0199931Y0154701D01*
X0200016Y0154655D01*
X0200099Y0154604D01*
X0200180Y0154551D01*
X0200258Y0154494D01*
X0200335Y0154434D01*
X0200408Y0154371D01*
X0200479Y0154305D01*
X0200547Y0154236D01*
X0200613Y0154164D01*
X0200675Y0154090D01*
X0200734Y0154013D01*
X0200790Y0153934D01*
X0200843Y0153852D01*
X0200893Y0153769D01*
X0200938Y0153683D01*
X0200981Y0153596D01*
X0201020Y0153507D01*
X0201055Y0153417D01*
X0201086Y0153325D01*
X0201113Y0153232D01*
X0201137Y0153138D01*
X0201157Y0153043D01*
X0201173Y0152947D01*
X0201185Y0152851D01*
X0201193Y0152754D01*
X0201197Y0152657D01*
X0201197Y0152561D01*
X0201193Y0152464D01*
X0201185Y0152367D01*
X0201173Y0152271D01*
X0201157Y0152175D01*
X0201137Y0152080D01*
X0201113Y0151986D01*
X0201086Y0151893D01*
X0201055Y0151801D01*
X0201020Y0151711D01*
X0200981Y0151622D01*
X0200938Y0151535D01*
X0200893Y0151449D01*
X0200843Y0151366D01*
X0200790Y0151284D01*
X0200734Y0151205D01*
X0200675Y0151128D01*
X0200613Y0151054D01*
X0200547Y0150982D01*
X0200479Y0150913D01*
X0200408Y0150847D01*
X0200335Y0150784D01*
X0200258Y0150724D01*
X0200180Y0150667D01*
X0200099Y0150614D01*
X0200016Y0150563D01*
X0199931Y0150517D01*
X0199844Y0150473D01*
X0199756Y0150434D01*
X0199666Y0150398D01*
X0199574Y0150366D01*
X0199481Y0150337D01*
X0199388Y0150313D01*
X0199293Y0150292D01*
X0199197Y0150275D01*
X0199101Y0150262D01*
X0199005Y0150253D01*
X0198908Y0150248D01*
X0198811Y0150247D01*
X0198714Y0150250D01*
X0198617Y0150257D01*
X0198521Y0150268D01*
X0198425Y0150283D01*
X0198330Y0150302D01*
X0198235Y0150324D01*
X0198142Y0150351D01*
X0198050Y0150381D01*
X0197959Y0150415D01*
X0197870Y0150453D01*
X0197782Y0150495D01*
X0197696Y0150540D01*
X0197612Y0150588D01*
X0197530Y0150640D01*
X0197451Y0150695D01*
X0197373Y0150754D01*
X0197298Y0150815D01*
X0197226Y0150880D01*
X0197156Y0150947D01*
X0197089Y0151018D01*
X0197026Y0151091D01*
X0196965Y0151166D01*
X0196907Y0151244D01*
X0196853Y0151325D01*
X0196802Y0151407D01*
X0196754Y0151492D01*
X0196710Y0151578D01*
X0196669Y0151666D01*
X0196633Y0151756D01*
X0196599Y0151847D01*
X0196570Y0151939D01*
X0196544Y0152033D01*
X0196523Y0152127D01*
X0196505Y0152223D01*
X0196491Y0152319D01*
X0196481Y0152415D01*
X0196475Y0152512D01*
X0196473Y0152609D01*
X0186473Y0152609D02*
X0186475Y0152706D01*
X0186481Y0152803D01*
X0186491Y0152899D01*
X0186505Y0152995D01*
X0186523Y0153091D01*
X0186544Y0153185D01*
X0186570Y0153279D01*
X0186599Y0153371D01*
X0186633Y0153462D01*
X0186669Y0153552D01*
X0186710Y0153640D01*
X0186754Y0153726D01*
X0186802Y0153811D01*
X0186853Y0153893D01*
X0186907Y0153974D01*
X0186965Y0154052D01*
X0187026Y0154127D01*
X0187089Y0154200D01*
X0187156Y0154271D01*
X0187226Y0154338D01*
X0187298Y0154403D01*
X0187373Y0154464D01*
X0187451Y0154523D01*
X0187530Y0154578D01*
X0187612Y0154630D01*
X0187696Y0154678D01*
X0187782Y0154723D01*
X0187870Y0154765D01*
X0187959Y0154803D01*
X0188050Y0154837D01*
X0188142Y0154867D01*
X0188235Y0154894D01*
X0188330Y0154916D01*
X0188425Y0154935D01*
X0188521Y0154950D01*
X0188617Y0154961D01*
X0188714Y0154968D01*
X0188811Y0154971D01*
X0188908Y0154970D01*
X0189005Y0154965D01*
X0189101Y0154956D01*
X0189197Y0154943D01*
X0189293Y0154926D01*
X0189388Y0154905D01*
X0189481Y0154881D01*
X0189574Y0154852D01*
X0189666Y0154820D01*
X0189756Y0154784D01*
X0189844Y0154745D01*
X0189931Y0154701D01*
X0190016Y0154655D01*
X0190099Y0154604D01*
X0190180Y0154551D01*
X0190258Y0154494D01*
X0190335Y0154434D01*
X0190408Y0154371D01*
X0190479Y0154305D01*
X0190547Y0154236D01*
X0190613Y0154164D01*
X0190675Y0154090D01*
X0190734Y0154013D01*
X0190790Y0153934D01*
X0190843Y0153852D01*
X0190893Y0153769D01*
X0190938Y0153683D01*
X0190981Y0153596D01*
X0191020Y0153507D01*
X0191055Y0153417D01*
X0191086Y0153325D01*
X0191113Y0153232D01*
X0191137Y0153138D01*
X0191157Y0153043D01*
X0191173Y0152947D01*
X0191185Y0152851D01*
X0191193Y0152754D01*
X0191197Y0152657D01*
X0191197Y0152561D01*
X0191193Y0152464D01*
X0191185Y0152367D01*
X0191173Y0152271D01*
X0191157Y0152175D01*
X0191137Y0152080D01*
X0191113Y0151986D01*
X0191086Y0151893D01*
X0191055Y0151801D01*
X0191020Y0151711D01*
X0190981Y0151622D01*
X0190938Y0151535D01*
X0190893Y0151449D01*
X0190843Y0151366D01*
X0190790Y0151284D01*
X0190734Y0151205D01*
X0190675Y0151128D01*
X0190613Y0151054D01*
X0190547Y0150982D01*
X0190479Y0150913D01*
X0190408Y0150847D01*
X0190335Y0150784D01*
X0190258Y0150724D01*
X0190180Y0150667D01*
X0190099Y0150614D01*
X0190016Y0150563D01*
X0189931Y0150517D01*
X0189844Y0150473D01*
X0189756Y0150434D01*
X0189666Y0150398D01*
X0189574Y0150366D01*
X0189481Y0150337D01*
X0189388Y0150313D01*
X0189293Y0150292D01*
X0189197Y0150275D01*
X0189101Y0150262D01*
X0189005Y0150253D01*
X0188908Y0150248D01*
X0188811Y0150247D01*
X0188714Y0150250D01*
X0188617Y0150257D01*
X0188521Y0150268D01*
X0188425Y0150283D01*
X0188330Y0150302D01*
X0188235Y0150324D01*
X0188142Y0150351D01*
X0188050Y0150381D01*
X0187959Y0150415D01*
X0187870Y0150453D01*
X0187782Y0150495D01*
X0187696Y0150540D01*
X0187612Y0150588D01*
X0187530Y0150640D01*
X0187451Y0150695D01*
X0187373Y0150754D01*
X0187298Y0150815D01*
X0187226Y0150880D01*
X0187156Y0150947D01*
X0187089Y0151018D01*
X0187026Y0151091D01*
X0186965Y0151166D01*
X0186907Y0151244D01*
X0186853Y0151325D01*
X0186802Y0151407D01*
X0186754Y0151492D01*
X0186710Y0151578D01*
X0186669Y0151666D01*
X0186633Y0151756D01*
X0186599Y0151847D01*
X0186570Y0151939D01*
X0186544Y0152033D01*
X0186523Y0152127D01*
X0186505Y0152223D01*
X0186491Y0152319D01*
X0186481Y0152415D01*
X0186475Y0152512D01*
X0186473Y0152609D01*
X0176473Y0152609D02*
X0176475Y0152706D01*
X0176481Y0152803D01*
X0176491Y0152899D01*
X0176505Y0152995D01*
X0176523Y0153091D01*
X0176544Y0153185D01*
X0176570Y0153279D01*
X0176599Y0153371D01*
X0176633Y0153462D01*
X0176669Y0153552D01*
X0176710Y0153640D01*
X0176754Y0153726D01*
X0176802Y0153811D01*
X0176853Y0153893D01*
X0176907Y0153974D01*
X0176965Y0154052D01*
X0177026Y0154127D01*
X0177089Y0154200D01*
X0177156Y0154271D01*
X0177226Y0154338D01*
X0177298Y0154403D01*
X0177373Y0154464D01*
X0177451Y0154523D01*
X0177530Y0154578D01*
X0177612Y0154630D01*
X0177696Y0154678D01*
X0177782Y0154723D01*
X0177870Y0154765D01*
X0177959Y0154803D01*
X0178050Y0154837D01*
X0178142Y0154867D01*
X0178235Y0154894D01*
X0178330Y0154916D01*
X0178425Y0154935D01*
X0178521Y0154950D01*
X0178617Y0154961D01*
X0178714Y0154968D01*
X0178811Y0154971D01*
X0178908Y0154970D01*
X0179005Y0154965D01*
X0179101Y0154956D01*
X0179197Y0154943D01*
X0179293Y0154926D01*
X0179388Y0154905D01*
X0179481Y0154881D01*
X0179574Y0154852D01*
X0179666Y0154820D01*
X0179756Y0154784D01*
X0179844Y0154745D01*
X0179931Y0154701D01*
X0180016Y0154655D01*
X0180099Y0154604D01*
X0180180Y0154551D01*
X0180258Y0154494D01*
X0180335Y0154434D01*
X0180408Y0154371D01*
X0180479Y0154305D01*
X0180547Y0154236D01*
X0180613Y0154164D01*
X0180675Y0154090D01*
X0180734Y0154013D01*
X0180790Y0153934D01*
X0180843Y0153852D01*
X0180893Y0153769D01*
X0180938Y0153683D01*
X0180981Y0153596D01*
X0181020Y0153507D01*
X0181055Y0153417D01*
X0181086Y0153325D01*
X0181113Y0153232D01*
X0181137Y0153138D01*
X0181157Y0153043D01*
X0181173Y0152947D01*
X0181185Y0152851D01*
X0181193Y0152754D01*
X0181197Y0152657D01*
X0181197Y0152561D01*
X0181193Y0152464D01*
X0181185Y0152367D01*
X0181173Y0152271D01*
X0181157Y0152175D01*
X0181137Y0152080D01*
X0181113Y0151986D01*
X0181086Y0151893D01*
X0181055Y0151801D01*
X0181020Y0151711D01*
X0180981Y0151622D01*
X0180938Y0151535D01*
X0180893Y0151449D01*
X0180843Y0151366D01*
X0180790Y0151284D01*
X0180734Y0151205D01*
X0180675Y0151128D01*
X0180613Y0151054D01*
X0180547Y0150982D01*
X0180479Y0150913D01*
X0180408Y0150847D01*
X0180335Y0150784D01*
X0180258Y0150724D01*
X0180180Y0150667D01*
X0180099Y0150614D01*
X0180016Y0150563D01*
X0179931Y0150517D01*
X0179844Y0150473D01*
X0179756Y0150434D01*
X0179666Y0150398D01*
X0179574Y0150366D01*
X0179481Y0150337D01*
X0179388Y0150313D01*
X0179293Y0150292D01*
X0179197Y0150275D01*
X0179101Y0150262D01*
X0179005Y0150253D01*
X0178908Y0150248D01*
X0178811Y0150247D01*
X0178714Y0150250D01*
X0178617Y0150257D01*
X0178521Y0150268D01*
X0178425Y0150283D01*
X0178330Y0150302D01*
X0178235Y0150324D01*
X0178142Y0150351D01*
X0178050Y0150381D01*
X0177959Y0150415D01*
X0177870Y0150453D01*
X0177782Y0150495D01*
X0177696Y0150540D01*
X0177612Y0150588D01*
X0177530Y0150640D01*
X0177451Y0150695D01*
X0177373Y0150754D01*
X0177298Y0150815D01*
X0177226Y0150880D01*
X0177156Y0150947D01*
X0177089Y0151018D01*
X0177026Y0151091D01*
X0176965Y0151166D01*
X0176907Y0151244D01*
X0176853Y0151325D01*
X0176802Y0151407D01*
X0176754Y0151492D01*
X0176710Y0151578D01*
X0176669Y0151666D01*
X0176633Y0151756D01*
X0176599Y0151847D01*
X0176570Y0151939D01*
X0176544Y0152033D01*
X0176523Y0152127D01*
X0176505Y0152223D01*
X0176491Y0152319D01*
X0176481Y0152415D01*
X0176475Y0152512D01*
X0176473Y0152609D01*
X0166473Y0152609D02*
X0166475Y0152706D01*
X0166481Y0152803D01*
X0166491Y0152899D01*
X0166505Y0152995D01*
X0166523Y0153091D01*
X0166544Y0153185D01*
X0166570Y0153279D01*
X0166599Y0153371D01*
X0166633Y0153462D01*
X0166669Y0153552D01*
X0166710Y0153640D01*
X0166754Y0153726D01*
X0166802Y0153811D01*
X0166853Y0153893D01*
X0166907Y0153974D01*
X0166965Y0154052D01*
X0167026Y0154127D01*
X0167089Y0154200D01*
X0167156Y0154271D01*
X0167226Y0154338D01*
X0167298Y0154403D01*
X0167373Y0154464D01*
X0167451Y0154523D01*
X0167530Y0154578D01*
X0167612Y0154630D01*
X0167696Y0154678D01*
X0167782Y0154723D01*
X0167870Y0154765D01*
X0167959Y0154803D01*
X0168050Y0154837D01*
X0168142Y0154867D01*
X0168235Y0154894D01*
X0168330Y0154916D01*
X0168425Y0154935D01*
X0168521Y0154950D01*
X0168617Y0154961D01*
X0168714Y0154968D01*
X0168811Y0154971D01*
X0168908Y0154970D01*
X0169005Y0154965D01*
X0169101Y0154956D01*
X0169197Y0154943D01*
X0169293Y0154926D01*
X0169388Y0154905D01*
X0169481Y0154881D01*
X0169574Y0154852D01*
X0169666Y0154820D01*
X0169756Y0154784D01*
X0169844Y0154745D01*
X0169931Y0154701D01*
X0170016Y0154655D01*
X0170099Y0154604D01*
X0170180Y0154551D01*
X0170258Y0154494D01*
X0170335Y0154434D01*
X0170408Y0154371D01*
X0170479Y0154305D01*
X0170547Y0154236D01*
X0170613Y0154164D01*
X0170675Y0154090D01*
X0170734Y0154013D01*
X0170790Y0153934D01*
X0170843Y0153852D01*
X0170893Y0153769D01*
X0170938Y0153683D01*
X0170981Y0153596D01*
X0171020Y0153507D01*
X0171055Y0153417D01*
X0171086Y0153325D01*
X0171113Y0153232D01*
X0171137Y0153138D01*
X0171157Y0153043D01*
X0171173Y0152947D01*
X0171185Y0152851D01*
X0171193Y0152754D01*
X0171197Y0152657D01*
X0171197Y0152561D01*
X0171193Y0152464D01*
X0171185Y0152367D01*
X0171173Y0152271D01*
X0171157Y0152175D01*
X0171137Y0152080D01*
X0171113Y0151986D01*
X0171086Y0151893D01*
X0171055Y0151801D01*
X0171020Y0151711D01*
X0170981Y0151622D01*
X0170938Y0151535D01*
X0170893Y0151449D01*
X0170843Y0151366D01*
X0170790Y0151284D01*
X0170734Y0151205D01*
X0170675Y0151128D01*
X0170613Y0151054D01*
X0170547Y0150982D01*
X0170479Y0150913D01*
X0170408Y0150847D01*
X0170335Y0150784D01*
X0170258Y0150724D01*
X0170180Y0150667D01*
X0170099Y0150614D01*
X0170016Y0150563D01*
X0169931Y0150517D01*
X0169844Y0150473D01*
X0169756Y0150434D01*
X0169666Y0150398D01*
X0169574Y0150366D01*
X0169481Y0150337D01*
X0169388Y0150313D01*
X0169293Y0150292D01*
X0169197Y0150275D01*
X0169101Y0150262D01*
X0169005Y0150253D01*
X0168908Y0150248D01*
X0168811Y0150247D01*
X0168714Y0150250D01*
X0168617Y0150257D01*
X0168521Y0150268D01*
X0168425Y0150283D01*
X0168330Y0150302D01*
X0168235Y0150324D01*
X0168142Y0150351D01*
X0168050Y0150381D01*
X0167959Y0150415D01*
X0167870Y0150453D01*
X0167782Y0150495D01*
X0167696Y0150540D01*
X0167612Y0150588D01*
X0167530Y0150640D01*
X0167451Y0150695D01*
X0167373Y0150754D01*
X0167298Y0150815D01*
X0167226Y0150880D01*
X0167156Y0150947D01*
X0167089Y0151018D01*
X0167026Y0151091D01*
X0166965Y0151166D01*
X0166907Y0151244D01*
X0166853Y0151325D01*
X0166802Y0151407D01*
X0166754Y0151492D01*
X0166710Y0151578D01*
X0166669Y0151666D01*
X0166633Y0151756D01*
X0166599Y0151847D01*
X0166570Y0151939D01*
X0166544Y0152033D01*
X0166523Y0152127D01*
X0166505Y0152223D01*
X0166491Y0152319D01*
X0166481Y0152415D01*
X0166475Y0152512D01*
X0166473Y0152609D01*
X0156473Y0152609D02*
X0156475Y0152706D01*
X0156481Y0152803D01*
X0156491Y0152899D01*
X0156505Y0152995D01*
X0156523Y0153091D01*
X0156544Y0153185D01*
X0156570Y0153279D01*
X0156599Y0153371D01*
X0156633Y0153462D01*
X0156669Y0153552D01*
X0156710Y0153640D01*
X0156754Y0153726D01*
X0156802Y0153811D01*
X0156853Y0153893D01*
X0156907Y0153974D01*
X0156965Y0154052D01*
X0157026Y0154127D01*
X0157089Y0154200D01*
X0157156Y0154271D01*
X0157226Y0154338D01*
X0157298Y0154403D01*
X0157373Y0154464D01*
X0157451Y0154523D01*
X0157530Y0154578D01*
X0157612Y0154630D01*
X0157696Y0154678D01*
X0157782Y0154723D01*
X0157870Y0154765D01*
X0157959Y0154803D01*
X0158050Y0154837D01*
X0158142Y0154867D01*
X0158235Y0154894D01*
X0158330Y0154916D01*
X0158425Y0154935D01*
X0158521Y0154950D01*
X0158617Y0154961D01*
X0158714Y0154968D01*
X0158811Y0154971D01*
X0158908Y0154970D01*
X0159005Y0154965D01*
X0159101Y0154956D01*
X0159197Y0154943D01*
X0159293Y0154926D01*
X0159388Y0154905D01*
X0159481Y0154881D01*
X0159574Y0154852D01*
X0159666Y0154820D01*
X0159756Y0154784D01*
X0159844Y0154745D01*
X0159931Y0154701D01*
X0160016Y0154655D01*
X0160099Y0154604D01*
X0160180Y0154551D01*
X0160258Y0154494D01*
X0160335Y0154434D01*
X0160408Y0154371D01*
X0160479Y0154305D01*
X0160547Y0154236D01*
X0160613Y0154164D01*
X0160675Y0154090D01*
X0160734Y0154013D01*
X0160790Y0153934D01*
X0160843Y0153852D01*
X0160893Y0153769D01*
X0160938Y0153683D01*
X0160981Y0153596D01*
X0161020Y0153507D01*
X0161055Y0153417D01*
X0161086Y0153325D01*
X0161113Y0153232D01*
X0161137Y0153138D01*
X0161157Y0153043D01*
X0161173Y0152947D01*
X0161185Y0152851D01*
X0161193Y0152754D01*
X0161197Y0152657D01*
X0161197Y0152561D01*
X0161193Y0152464D01*
X0161185Y0152367D01*
X0161173Y0152271D01*
X0161157Y0152175D01*
X0161137Y0152080D01*
X0161113Y0151986D01*
X0161086Y0151893D01*
X0161055Y0151801D01*
X0161020Y0151711D01*
X0160981Y0151622D01*
X0160938Y0151535D01*
X0160893Y0151449D01*
X0160843Y0151366D01*
X0160790Y0151284D01*
X0160734Y0151205D01*
X0160675Y0151128D01*
X0160613Y0151054D01*
X0160547Y0150982D01*
X0160479Y0150913D01*
X0160408Y0150847D01*
X0160335Y0150784D01*
X0160258Y0150724D01*
X0160180Y0150667D01*
X0160099Y0150614D01*
X0160016Y0150563D01*
X0159931Y0150517D01*
X0159844Y0150473D01*
X0159756Y0150434D01*
X0159666Y0150398D01*
X0159574Y0150366D01*
X0159481Y0150337D01*
X0159388Y0150313D01*
X0159293Y0150292D01*
X0159197Y0150275D01*
X0159101Y0150262D01*
X0159005Y0150253D01*
X0158908Y0150248D01*
X0158811Y0150247D01*
X0158714Y0150250D01*
X0158617Y0150257D01*
X0158521Y0150268D01*
X0158425Y0150283D01*
X0158330Y0150302D01*
X0158235Y0150324D01*
X0158142Y0150351D01*
X0158050Y0150381D01*
X0157959Y0150415D01*
X0157870Y0150453D01*
X0157782Y0150495D01*
X0157696Y0150540D01*
X0157612Y0150588D01*
X0157530Y0150640D01*
X0157451Y0150695D01*
X0157373Y0150754D01*
X0157298Y0150815D01*
X0157226Y0150880D01*
X0157156Y0150947D01*
X0157089Y0151018D01*
X0157026Y0151091D01*
X0156965Y0151166D01*
X0156907Y0151244D01*
X0156853Y0151325D01*
X0156802Y0151407D01*
X0156754Y0151492D01*
X0156710Y0151578D01*
X0156669Y0151666D01*
X0156633Y0151756D01*
X0156599Y0151847D01*
X0156570Y0151939D01*
X0156544Y0152033D01*
X0156523Y0152127D01*
X0156505Y0152223D01*
X0156491Y0152319D01*
X0156481Y0152415D01*
X0156475Y0152512D01*
X0156473Y0152609D01*
X0146473Y0152609D02*
X0146475Y0152706D01*
X0146481Y0152803D01*
X0146491Y0152899D01*
X0146505Y0152995D01*
X0146523Y0153091D01*
X0146544Y0153185D01*
X0146570Y0153279D01*
X0146599Y0153371D01*
X0146633Y0153462D01*
X0146669Y0153552D01*
X0146710Y0153640D01*
X0146754Y0153726D01*
X0146802Y0153811D01*
X0146853Y0153893D01*
X0146907Y0153974D01*
X0146965Y0154052D01*
X0147026Y0154127D01*
X0147089Y0154200D01*
X0147156Y0154271D01*
X0147226Y0154338D01*
X0147298Y0154403D01*
X0147373Y0154464D01*
X0147451Y0154523D01*
X0147530Y0154578D01*
X0147612Y0154630D01*
X0147696Y0154678D01*
X0147782Y0154723D01*
X0147870Y0154765D01*
X0147959Y0154803D01*
X0148050Y0154837D01*
X0148142Y0154867D01*
X0148235Y0154894D01*
X0148330Y0154916D01*
X0148425Y0154935D01*
X0148521Y0154950D01*
X0148617Y0154961D01*
X0148714Y0154968D01*
X0148811Y0154971D01*
X0148908Y0154970D01*
X0149005Y0154965D01*
X0149101Y0154956D01*
X0149197Y0154943D01*
X0149293Y0154926D01*
X0149388Y0154905D01*
X0149481Y0154881D01*
X0149574Y0154852D01*
X0149666Y0154820D01*
X0149756Y0154784D01*
X0149844Y0154745D01*
X0149931Y0154701D01*
X0150016Y0154655D01*
X0150099Y0154604D01*
X0150180Y0154551D01*
X0150258Y0154494D01*
X0150335Y0154434D01*
X0150408Y0154371D01*
X0150479Y0154305D01*
X0150547Y0154236D01*
X0150613Y0154164D01*
X0150675Y0154090D01*
X0150734Y0154013D01*
X0150790Y0153934D01*
X0150843Y0153852D01*
X0150893Y0153769D01*
X0150938Y0153683D01*
X0150981Y0153596D01*
X0151020Y0153507D01*
X0151055Y0153417D01*
X0151086Y0153325D01*
X0151113Y0153232D01*
X0151137Y0153138D01*
X0151157Y0153043D01*
X0151173Y0152947D01*
X0151185Y0152851D01*
X0151193Y0152754D01*
X0151197Y0152657D01*
X0151197Y0152561D01*
X0151193Y0152464D01*
X0151185Y0152367D01*
X0151173Y0152271D01*
X0151157Y0152175D01*
X0151137Y0152080D01*
X0151113Y0151986D01*
X0151086Y0151893D01*
X0151055Y0151801D01*
X0151020Y0151711D01*
X0150981Y0151622D01*
X0150938Y0151535D01*
X0150893Y0151449D01*
X0150843Y0151366D01*
X0150790Y0151284D01*
X0150734Y0151205D01*
X0150675Y0151128D01*
X0150613Y0151054D01*
X0150547Y0150982D01*
X0150479Y0150913D01*
X0150408Y0150847D01*
X0150335Y0150784D01*
X0150258Y0150724D01*
X0150180Y0150667D01*
X0150099Y0150614D01*
X0150016Y0150563D01*
X0149931Y0150517D01*
X0149844Y0150473D01*
X0149756Y0150434D01*
X0149666Y0150398D01*
X0149574Y0150366D01*
X0149481Y0150337D01*
X0149388Y0150313D01*
X0149293Y0150292D01*
X0149197Y0150275D01*
X0149101Y0150262D01*
X0149005Y0150253D01*
X0148908Y0150248D01*
X0148811Y0150247D01*
X0148714Y0150250D01*
X0148617Y0150257D01*
X0148521Y0150268D01*
X0148425Y0150283D01*
X0148330Y0150302D01*
X0148235Y0150324D01*
X0148142Y0150351D01*
X0148050Y0150381D01*
X0147959Y0150415D01*
X0147870Y0150453D01*
X0147782Y0150495D01*
X0147696Y0150540D01*
X0147612Y0150588D01*
X0147530Y0150640D01*
X0147451Y0150695D01*
X0147373Y0150754D01*
X0147298Y0150815D01*
X0147226Y0150880D01*
X0147156Y0150947D01*
X0147089Y0151018D01*
X0147026Y0151091D01*
X0146965Y0151166D01*
X0146907Y0151244D01*
X0146853Y0151325D01*
X0146802Y0151407D01*
X0146754Y0151492D01*
X0146710Y0151578D01*
X0146669Y0151666D01*
X0146633Y0151756D01*
X0146599Y0151847D01*
X0146570Y0151939D01*
X0146544Y0152033D01*
X0146523Y0152127D01*
X0146505Y0152223D01*
X0146491Y0152319D01*
X0146481Y0152415D01*
X0146475Y0152512D01*
X0146473Y0152609D01*
X0136473Y0152609D02*
X0136475Y0152706D01*
X0136481Y0152803D01*
X0136491Y0152899D01*
X0136505Y0152995D01*
X0136523Y0153091D01*
X0136544Y0153185D01*
X0136570Y0153279D01*
X0136599Y0153371D01*
X0136633Y0153462D01*
X0136669Y0153552D01*
X0136710Y0153640D01*
X0136754Y0153726D01*
X0136802Y0153811D01*
X0136853Y0153893D01*
X0136907Y0153974D01*
X0136965Y0154052D01*
X0137026Y0154127D01*
X0137089Y0154200D01*
X0137156Y0154271D01*
X0137226Y0154338D01*
X0137298Y0154403D01*
X0137373Y0154464D01*
X0137451Y0154523D01*
X0137530Y0154578D01*
X0137612Y0154630D01*
X0137696Y0154678D01*
X0137782Y0154723D01*
X0137870Y0154765D01*
X0137959Y0154803D01*
X0138050Y0154837D01*
X0138142Y0154867D01*
X0138235Y0154894D01*
X0138330Y0154916D01*
X0138425Y0154935D01*
X0138521Y0154950D01*
X0138617Y0154961D01*
X0138714Y0154968D01*
X0138811Y0154971D01*
X0138908Y0154970D01*
X0139005Y0154965D01*
X0139101Y0154956D01*
X0139197Y0154943D01*
X0139293Y0154926D01*
X0139388Y0154905D01*
X0139481Y0154881D01*
X0139574Y0154852D01*
X0139666Y0154820D01*
X0139756Y0154784D01*
X0139844Y0154745D01*
X0139931Y0154701D01*
X0140016Y0154655D01*
X0140099Y0154604D01*
X0140180Y0154551D01*
X0140258Y0154494D01*
X0140335Y0154434D01*
X0140408Y0154371D01*
X0140479Y0154305D01*
X0140547Y0154236D01*
X0140613Y0154164D01*
X0140675Y0154090D01*
X0140734Y0154013D01*
X0140790Y0153934D01*
X0140843Y0153852D01*
X0140893Y0153769D01*
X0140938Y0153683D01*
X0140981Y0153596D01*
X0141020Y0153507D01*
X0141055Y0153417D01*
X0141086Y0153325D01*
X0141113Y0153232D01*
X0141137Y0153138D01*
X0141157Y0153043D01*
X0141173Y0152947D01*
X0141185Y0152851D01*
X0141193Y0152754D01*
X0141197Y0152657D01*
X0141197Y0152561D01*
X0141193Y0152464D01*
X0141185Y0152367D01*
X0141173Y0152271D01*
X0141157Y0152175D01*
X0141137Y0152080D01*
X0141113Y0151986D01*
X0141086Y0151893D01*
X0141055Y0151801D01*
X0141020Y0151711D01*
X0140981Y0151622D01*
X0140938Y0151535D01*
X0140893Y0151449D01*
X0140843Y0151366D01*
X0140790Y0151284D01*
X0140734Y0151205D01*
X0140675Y0151128D01*
X0140613Y0151054D01*
X0140547Y0150982D01*
X0140479Y0150913D01*
X0140408Y0150847D01*
X0140335Y0150784D01*
X0140258Y0150724D01*
X0140180Y0150667D01*
X0140099Y0150614D01*
X0140016Y0150563D01*
X0139931Y0150517D01*
X0139844Y0150473D01*
X0139756Y0150434D01*
X0139666Y0150398D01*
X0139574Y0150366D01*
X0139481Y0150337D01*
X0139388Y0150313D01*
X0139293Y0150292D01*
X0139197Y0150275D01*
X0139101Y0150262D01*
X0139005Y0150253D01*
X0138908Y0150248D01*
X0138811Y0150247D01*
X0138714Y0150250D01*
X0138617Y0150257D01*
X0138521Y0150268D01*
X0138425Y0150283D01*
X0138330Y0150302D01*
X0138235Y0150324D01*
X0138142Y0150351D01*
X0138050Y0150381D01*
X0137959Y0150415D01*
X0137870Y0150453D01*
X0137782Y0150495D01*
X0137696Y0150540D01*
X0137612Y0150588D01*
X0137530Y0150640D01*
X0137451Y0150695D01*
X0137373Y0150754D01*
X0137298Y0150815D01*
X0137226Y0150880D01*
X0137156Y0150947D01*
X0137089Y0151018D01*
X0137026Y0151091D01*
X0136965Y0151166D01*
X0136907Y0151244D01*
X0136853Y0151325D01*
X0136802Y0151407D01*
X0136754Y0151492D01*
X0136710Y0151578D01*
X0136669Y0151666D01*
X0136633Y0151756D01*
X0136599Y0151847D01*
X0136570Y0151939D01*
X0136544Y0152033D01*
X0136523Y0152127D01*
X0136505Y0152223D01*
X0136491Y0152319D01*
X0136481Y0152415D01*
X0136475Y0152512D01*
X0136473Y0152609D01*
X0126473Y0152609D02*
X0126475Y0152706D01*
X0126481Y0152803D01*
X0126491Y0152899D01*
X0126505Y0152995D01*
X0126523Y0153091D01*
X0126544Y0153185D01*
X0126570Y0153279D01*
X0126599Y0153371D01*
X0126633Y0153462D01*
X0126669Y0153552D01*
X0126710Y0153640D01*
X0126754Y0153726D01*
X0126802Y0153811D01*
X0126853Y0153893D01*
X0126907Y0153974D01*
X0126965Y0154052D01*
X0127026Y0154127D01*
X0127089Y0154200D01*
X0127156Y0154271D01*
X0127226Y0154338D01*
X0127298Y0154403D01*
X0127373Y0154464D01*
X0127451Y0154523D01*
X0127530Y0154578D01*
X0127612Y0154630D01*
X0127696Y0154678D01*
X0127782Y0154723D01*
X0127870Y0154765D01*
X0127959Y0154803D01*
X0128050Y0154837D01*
X0128142Y0154867D01*
X0128235Y0154894D01*
X0128330Y0154916D01*
X0128425Y0154935D01*
X0128521Y0154950D01*
X0128617Y0154961D01*
X0128714Y0154968D01*
X0128811Y0154971D01*
X0128908Y0154970D01*
X0129005Y0154965D01*
X0129101Y0154956D01*
X0129197Y0154943D01*
X0129293Y0154926D01*
X0129388Y0154905D01*
X0129481Y0154881D01*
X0129574Y0154852D01*
X0129666Y0154820D01*
X0129756Y0154784D01*
X0129844Y0154745D01*
X0129931Y0154701D01*
X0130016Y0154655D01*
X0130099Y0154604D01*
X0130180Y0154551D01*
X0130258Y0154494D01*
X0130335Y0154434D01*
X0130408Y0154371D01*
X0130479Y0154305D01*
X0130547Y0154236D01*
X0130613Y0154164D01*
X0130675Y0154090D01*
X0130734Y0154013D01*
X0130790Y0153934D01*
X0130843Y0153852D01*
X0130893Y0153769D01*
X0130938Y0153683D01*
X0130981Y0153596D01*
X0131020Y0153507D01*
X0131055Y0153417D01*
X0131086Y0153325D01*
X0131113Y0153232D01*
X0131137Y0153138D01*
X0131157Y0153043D01*
X0131173Y0152947D01*
X0131185Y0152851D01*
X0131193Y0152754D01*
X0131197Y0152657D01*
X0131197Y0152561D01*
X0131193Y0152464D01*
X0131185Y0152367D01*
X0131173Y0152271D01*
X0131157Y0152175D01*
X0131137Y0152080D01*
X0131113Y0151986D01*
X0131086Y0151893D01*
X0131055Y0151801D01*
X0131020Y0151711D01*
X0130981Y0151622D01*
X0130938Y0151535D01*
X0130893Y0151449D01*
X0130843Y0151366D01*
X0130790Y0151284D01*
X0130734Y0151205D01*
X0130675Y0151128D01*
X0130613Y0151054D01*
X0130547Y0150982D01*
X0130479Y0150913D01*
X0130408Y0150847D01*
X0130335Y0150784D01*
X0130258Y0150724D01*
X0130180Y0150667D01*
X0130099Y0150614D01*
X0130016Y0150563D01*
X0129931Y0150517D01*
X0129844Y0150473D01*
X0129756Y0150434D01*
X0129666Y0150398D01*
X0129574Y0150366D01*
X0129481Y0150337D01*
X0129388Y0150313D01*
X0129293Y0150292D01*
X0129197Y0150275D01*
X0129101Y0150262D01*
X0129005Y0150253D01*
X0128908Y0150248D01*
X0128811Y0150247D01*
X0128714Y0150250D01*
X0128617Y0150257D01*
X0128521Y0150268D01*
X0128425Y0150283D01*
X0128330Y0150302D01*
X0128235Y0150324D01*
X0128142Y0150351D01*
X0128050Y0150381D01*
X0127959Y0150415D01*
X0127870Y0150453D01*
X0127782Y0150495D01*
X0127696Y0150540D01*
X0127612Y0150588D01*
X0127530Y0150640D01*
X0127451Y0150695D01*
X0127373Y0150754D01*
X0127298Y0150815D01*
X0127226Y0150880D01*
X0127156Y0150947D01*
X0127089Y0151018D01*
X0127026Y0151091D01*
X0126965Y0151166D01*
X0126907Y0151244D01*
X0126853Y0151325D01*
X0126802Y0151407D01*
X0126754Y0151492D01*
X0126710Y0151578D01*
X0126669Y0151666D01*
X0126633Y0151756D01*
X0126599Y0151847D01*
X0126570Y0151939D01*
X0126544Y0152033D01*
X0126523Y0152127D01*
X0126505Y0152223D01*
X0126491Y0152319D01*
X0126481Y0152415D01*
X0126475Y0152512D01*
X0126473Y0152609D01*
X0116473Y0152609D02*
X0116475Y0152706D01*
X0116481Y0152803D01*
X0116491Y0152899D01*
X0116505Y0152995D01*
X0116523Y0153091D01*
X0116544Y0153185D01*
X0116570Y0153279D01*
X0116599Y0153371D01*
X0116633Y0153462D01*
X0116669Y0153552D01*
X0116710Y0153640D01*
X0116754Y0153726D01*
X0116802Y0153811D01*
X0116853Y0153893D01*
X0116907Y0153974D01*
X0116965Y0154052D01*
X0117026Y0154127D01*
X0117089Y0154200D01*
X0117156Y0154271D01*
X0117226Y0154338D01*
X0117298Y0154403D01*
X0117373Y0154464D01*
X0117451Y0154523D01*
X0117530Y0154578D01*
X0117612Y0154630D01*
X0117696Y0154678D01*
X0117782Y0154723D01*
X0117870Y0154765D01*
X0117959Y0154803D01*
X0118050Y0154837D01*
X0118142Y0154867D01*
X0118235Y0154894D01*
X0118330Y0154916D01*
X0118425Y0154935D01*
X0118521Y0154950D01*
X0118617Y0154961D01*
X0118714Y0154968D01*
X0118811Y0154971D01*
X0118908Y0154970D01*
X0119005Y0154965D01*
X0119101Y0154956D01*
X0119197Y0154943D01*
X0119293Y0154926D01*
X0119388Y0154905D01*
X0119481Y0154881D01*
X0119574Y0154852D01*
X0119666Y0154820D01*
X0119756Y0154784D01*
X0119844Y0154745D01*
X0119931Y0154701D01*
X0120016Y0154655D01*
X0120099Y0154604D01*
X0120180Y0154551D01*
X0120258Y0154494D01*
X0120335Y0154434D01*
X0120408Y0154371D01*
X0120479Y0154305D01*
X0120547Y0154236D01*
X0120613Y0154164D01*
X0120675Y0154090D01*
X0120734Y0154013D01*
X0120790Y0153934D01*
X0120843Y0153852D01*
X0120893Y0153769D01*
X0120938Y0153683D01*
X0120981Y0153596D01*
X0121020Y0153507D01*
X0121055Y0153417D01*
X0121086Y0153325D01*
X0121113Y0153232D01*
X0121137Y0153138D01*
X0121157Y0153043D01*
X0121173Y0152947D01*
X0121185Y0152851D01*
X0121193Y0152754D01*
X0121197Y0152657D01*
X0121197Y0152561D01*
X0121193Y0152464D01*
X0121185Y0152367D01*
X0121173Y0152271D01*
X0121157Y0152175D01*
X0121137Y0152080D01*
X0121113Y0151986D01*
X0121086Y0151893D01*
X0121055Y0151801D01*
X0121020Y0151711D01*
X0120981Y0151622D01*
X0120938Y0151535D01*
X0120893Y0151449D01*
X0120843Y0151366D01*
X0120790Y0151284D01*
X0120734Y0151205D01*
X0120675Y0151128D01*
X0120613Y0151054D01*
X0120547Y0150982D01*
X0120479Y0150913D01*
X0120408Y0150847D01*
X0120335Y0150784D01*
X0120258Y0150724D01*
X0120180Y0150667D01*
X0120099Y0150614D01*
X0120016Y0150563D01*
X0119931Y0150517D01*
X0119844Y0150473D01*
X0119756Y0150434D01*
X0119666Y0150398D01*
X0119574Y0150366D01*
X0119481Y0150337D01*
X0119388Y0150313D01*
X0119293Y0150292D01*
X0119197Y0150275D01*
X0119101Y0150262D01*
X0119005Y0150253D01*
X0118908Y0150248D01*
X0118811Y0150247D01*
X0118714Y0150250D01*
X0118617Y0150257D01*
X0118521Y0150268D01*
X0118425Y0150283D01*
X0118330Y0150302D01*
X0118235Y0150324D01*
X0118142Y0150351D01*
X0118050Y0150381D01*
X0117959Y0150415D01*
X0117870Y0150453D01*
X0117782Y0150495D01*
X0117696Y0150540D01*
X0117612Y0150588D01*
X0117530Y0150640D01*
X0117451Y0150695D01*
X0117373Y0150754D01*
X0117298Y0150815D01*
X0117226Y0150880D01*
X0117156Y0150947D01*
X0117089Y0151018D01*
X0117026Y0151091D01*
X0116965Y0151166D01*
X0116907Y0151244D01*
X0116853Y0151325D01*
X0116802Y0151407D01*
X0116754Y0151492D01*
X0116710Y0151578D01*
X0116669Y0151666D01*
X0116633Y0151756D01*
X0116599Y0151847D01*
X0116570Y0151939D01*
X0116544Y0152033D01*
X0116523Y0152127D01*
X0116505Y0152223D01*
X0116491Y0152319D01*
X0116481Y0152415D01*
X0116475Y0152512D01*
X0116473Y0152609D01*
X0106473Y0152609D02*
X0106475Y0152706D01*
X0106481Y0152803D01*
X0106491Y0152899D01*
X0106505Y0152995D01*
X0106523Y0153091D01*
X0106544Y0153185D01*
X0106570Y0153279D01*
X0106599Y0153371D01*
X0106633Y0153462D01*
X0106669Y0153552D01*
X0106710Y0153640D01*
X0106754Y0153726D01*
X0106802Y0153811D01*
X0106853Y0153893D01*
X0106907Y0153974D01*
X0106965Y0154052D01*
X0107026Y0154127D01*
X0107089Y0154200D01*
X0107156Y0154271D01*
X0107226Y0154338D01*
X0107298Y0154403D01*
X0107373Y0154464D01*
X0107451Y0154523D01*
X0107530Y0154578D01*
X0107612Y0154630D01*
X0107696Y0154678D01*
X0107782Y0154723D01*
X0107870Y0154765D01*
X0107959Y0154803D01*
X0108050Y0154837D01*
X0108142Y0154867D01*
X0108235Y0154894D01*
X0108330Y0154916D01*
X0108425Y0154935D01*
X0108521Y0154950D01*
X0108617Y0154961D01*
X0108714Y0154968D01*
X0108811Y0154971D01*
X0108908Y0154970D01*
X0109005Y0154965D01*
X0109101Y0154956D01*
X0109197Y0154943D01*
X0109293Y0154926D01*
X0109388Y0154905D01*
X0109481Y0154881D01*
X0109574Y0154852D01*
X0109666Y0154820D01*
X0109756Y0154784D01*
X0109844Y0154745D01*
X0109931Y0154701D01*
X0110016Y0154655D01*
X0110099Y0154604D01*
X0110180Y0154551D01*
X0110258Y0154494D01*
X0110335Y0154434D01*
X0110408Y0154371D01*
X0110479Y0154305D01*
X0110547Y0154236D01*
X0110613Y0154164D01*
X0110675Y0154090D01*
X0110734Y0154013D01*
X0110790Y0153934D01*
X0110843Y0153852D01*
X0110893Y0153769D01*
X0110938Y0153683D01*
X0110981Y0153596D01*
X0111020Y0153507D01*
X0111055Y0153417D01*
X0111086Y0153325D01*
X0111113Y0153232D01*
X0111137Y0153138D01*
X0111157Y0153043D01*
X0111173Y0152947D01*
X0111185Y0152851D01*
X0111193Y0152754D01*
X0111197Y0152657D01*
X0111197Y0152561D01*
X0111193Y0152464D01*
X0111185Y0152367D01*
X0111173Y0152271D01*
X0111157Y0152175D01*
X0111137Y0152080D01*
X0111113Y0151986D01*
X0111086Y0151893D01*
X0111055Y0151801D01*
X0111020Y0151711D01*
X0110981Y0151622D01*
X0110938Y0151535D01*
X0110893Y0151449D01*
X0110843Y0151366D01*
X0110790Y0151284D01*
X0110734Y0151205D01*
X0110675Y0151128D01*
X0110613Y0151054D01*
X0110547Y0150982D01*
X0110479Y0150913D01*
X0110408Y0150847D01*
X0110335Y0150784D01*
X0110258Y0150724D01*
X0110180Y0150667D01*
X0110099Y0150614D01*
X0110016Y0150563D01*
X0109931Y0150517D01*
X0109844Y0150473D01*
X0109756Y0150434D01*
X0109666Y0150398D01*
X0109574Y0150366D01*
X0109481Y0150337D01*
X0109388Y0150313D01*
X0109293Y0150292D01*
X0109197Y0150275D01*
X0109101Y0150262D01*
X0109005Y0150253D01*
X0108908Y0150248D01*
X0108811Y0150247D01*
X0108714Y0150250D01*
X0108617Y0150257D01*
X0108521Y0150268D01*
X0108425Y0150283D01*
X0108330Y0150302D01*
X0108235Y0150324D01*
X0108142Y0150351D01*
X0108050Y0150381D01*
X0107959Y0150415D01*
X0107870Y0150453D01*
X0107782Y0150495D01*
X0107696Y0150540D01*
X0107612Y0150588D01*
X0107530Y0150640D01*
X0107451Y0150695D01*
X0107373Y0150754D01*
X0107298Y0150815D01*
X0107226Y0150880D01*
X0107156Y0150947D01*
X0107089Y0151018D01*
X0107026Y0151091D01*
X0106965Y0151166D01*
X0106907Y0151244D01*
X0106853Y0151325D01*
X0106802Y0151407D01*
X0106754Y0151492D01*
X0106710Y0151578D01*
X0106669Y0151666D01*
X0106633Y0151756D01*
X0106599Y0151847D01*
X0106570Y0151939D01*
X0106544Y0152033D01*
X0106523Y0152127D01*
X0106505Y0152223D01*
X0106491Y0152319D01*
X0106481Y0152415D01*
X0106475Y0152512D01*
X0106473Y0152609D01*
M02*
