G75*
%MOIN*%
%OFA0B0*%
%FSLAX25Y25*%
%IPPOS*%
%LPD*%
%AMOC8*
5,1,8,0,0,1.08239X$1,22.5*
%
%ADD10R,0.01772X0.07087*%
%ADD11R,0.05906X0.05118*%
%ADD12R,0.09449X0.06299*%
%ADD13R,0.02600X0.08000*%
%ADD14R,0.05000X0.10000*%
%ADD15R,0.03937X0.05512*%
%ADD16R,0.06299X0.09449*%
%ADD17R,0.02362X0.08661*%
%ADD18R,0.08661X0.06299*%
%ADD19R,0.10630X0.06299*%
%ADD20R,0.01378X0.03346*%
%ADD21R,0.03346X0.01378*%
D10*
X0016512Y0081728D03*
X0021512Y0081728D03*
X0026512Y0081728D03*
X0031512Y0081728D03*
X0036512Y0081728D03*
X0041512Y0081728D03*
X0046512Y0081728D03*
X0051512Y0081728D03*
X0056512Y0081728D03*
X0061512Y0081728D03*
X0066512Y0081728D03*
X0071512Y0081728D03*
X0071512Y0110075D03*
X0066512Y0110075D03*
X0061512Y0110075D03*
X0056512Y0110075D03*
X0051512Y0110075D03*
X0046512Y0110075D03*
X0041512Y0110075D03*
X0036512Y0110075D03*
X0031512Y0110075D03*
X0026512Y0110075D03*
X0021512Y0110075D03*
X0016512Y0110075D03*
D11*
X0018913Y0120291D03*
X0026984Y0120291D03*
X0035055Y0120291D03*
X0043106Y0120331D03*
X0043106Y0127811D03*
X0035055Y0127772D03*
X0026984Y0127772D03*
X0018913Y0127772D03*
X0024228Y0064976D03*
X0024228Y0057496D03*
X0028756Y0046079D03*
X0018913Y0046079D03*
X0018913Y0038598D03*
X0028756Y0038598D03*
X0037811Y0057496D03*
X0037811Y0064976D03*
X0046669Y0064976D03*
X0046669Y0057496D03*
X0055528Y0057496D03*
X0055528Y0064976D03*
X0064189Y0064976D03*
X0064189Y0057496D03*
X0073047Y0057496D03*
X0073047Y0064976D03*
X0081906Y0064976D03*
X0081906Y0057496D03*
X0090567Y0057496D03*
X0090567Y0064976D03*
X0103953Y0064976D03*
X0103953Y0057496D03*
X0099031Y0046079D03*
X0090961Y0046079D03*
X0090961Y0038598D03*
X0099031Y0038598D03*
X0099031Y0030331D03*
X0099031Y0022850D03*
X0068913Y0022850D03*
X0068913Y0030331D03*
X0138992Y0030331D03*
X0138992Y0022850D03*
X0148835Y0022850D03*
X0148835Y0030331D03*
X0148835Y0038598D03*
X0148835Y0046079D03*
X0148835Y0055134D03*
X0148835Y0062614D03*
X0138992Y0062614D03*
X0138992Y0055134D03*
X0138992Y0046079D03*
X0138992Y0038598D03*
X0158874Y0038598D03*
X0158874Y0046079D03*
X0162614Y0055134D03*
X0171866Y0055134D03*
X0180961Y0055134D03*
X0180961Y0062614D03*
X0171866Y0062614D03*
X0162614Y0062614D03*
X0161630Y0076787D03*
X0161630Y0084268D03*
X0161630Y0095685D03*
X0161630Y0103165D03*
X0161630Y0110843D03*
X0161630Y0118323D03*
X0158874Y0128362D03*
X0158874Y0135843D03*
X0149031Y0135843D03*
X0149031Y0128362D03*
X0169110Y0128362D03*
X0178953Y0128362D03*
X0178953Y0135843D03*
X0169110Y0135843D03*
X0198441Y0103165D03*
X0198441Y0095685D03*
X0199228Y0062614D03*
X0190173Y0062614D03*
X0190173Y0055134D03*
X0199228Y0055134D03*
X0168913Y0046079D03*
X0168913Y0038598D03*
X0168913Y0030331D03*
X0178894Y0030331D03*
X0178894Y0022850D03*
X0168913Y0022850D03*
X0158874Y0022850D03*
X0158874Y0030331D03*
D12*
X0081492Y0090606D03*
X0081492Y0102417D03*
X0009228Y0069858D03*
X0009228Y0058047D03*
D13*
X0119819Y0079038D03*
X0124819Y0079038D03*
X0129819Y0079038D03*
X0134819Y0079038D03*
X0139819Y0079038D03*
X0144819Y0079038D03*
X0149819Y0079038D03*
X0149819Y0103238D03*
X0144819Y0103238D03*
X0139819Y0103238D03*
X0134819Y0103238D03*
X0129819Y0103238D03*
X0124819Y0103238D03*
X0119819Y0103238D03*
D14*
X0008894Y0010331D03*
X0018894Y0010331D03*
X0028894Y0010331D03*
X0038894Y0010331D03*
X0048894Y0010331D03*
X0058894Y0010331D03*
X0068894Y0010331D03*
X0078894Y0010331D03*
X0088894Y0010331D03*
X0098894Y0010331D03*
X0108894Y0010331D03*
X0118894Y0010331D03*
X0128894Y0010331D03*
X0138894Y0010331D03*
X0148894Y0010331D03*
X0158894Y0010331D03*
X0168894Y0010331D03*
X0178894Y0010331D03*
X0188894Y0010331D03*
X0198894Y0010331D03*
X0198894Y0147831D03*
X0188894Y0147831D03*
X0178894Y0147831D03*
X0168894Y0147831D03*
X0158894Y0147831D03*
X0148894Y0147831D03*
X0138894Y0147831D03*
X0128894Y0147831D03*
X0118894Y0147831D03*
X0108894Y0147831D03*
X0028500Y0147850D03*
X0018500Y0147831D03*
X0008500Y0147831D03*
D15*
X0120094Y0063205D03*
X0116354Y0054543D03*
X0123835Y0054543D03*
X0171669Y0111039D03*
X0179150Y0111039D03*
X0175409Y0119701D03*
D16*
X0186630Y0115173D03*
X0198441Y0115173D03*
D17*
X0189012Y0098835D03*
X0184012Y0098835D03*
X0179012Y0098835D03*
X0174012Y0098835D03*
X0174012Y0078362D03*
X0179012Y0078362D03*
X0184012Y0078362D03*
X0189012Y0078362D03*
D18*
X0101787Y0117732D03*
X0101787Y0128756D03*
D19*
X0078953Y0032693D03*
X0078953Y0021669D03*
D20*
X0188992Y0021177D03*
X0192732Y0021177D03*
X0196472Y0021177D03*
X0196472Y0030429D03*
X0192732Y0030429D03*
X0188992Y0030429D03*
X0191551Y0127870D03*
X0195291Y0127870D03*
X0199031Y0127870D03*
X0199031Y0137122D03*
X0191551Y0137122D03*
D21*
X0073736Y0046079D03*
X0073736Y0038598D03*
X0064484Y0038598D03*
X0064484Y0042339D03*
X0064484Y0046079D03*
M02*
