G75*
%MOIN*%
%OFA0B0*%
%FSLAX25Y25*%
%IPPOS*%
%LPD*%
%AMOC8*
5,1,8,0,0,1.08239X$1,22.5*
%
%ADD10R,0.05906X0.05118*%
%ADD11C,0.05937*%
%ADD12R,0.03962X0.03962*%
%ADD13C,0.02756*%
%ADD14C,0.01181*%
%ADD15C,0.01969*%
%ADD16C,0.03962*%
%ADD17C,0.01575*%
D10*
X0029937Y0030404D03*
X0029937Y0037885D03*
X0021669Y0038081D03*
X0021669Y0045562D03*
X0021669Y0057176D03*
X0029898Y0057176D03*
X0038165Y0057176D03*
X0038165Y0064656D03*
X0029898Y0064656D03*
X0021669Y0064656D03*
X0038205Y0045562D03*
X0038205Y0038081D03*
X0021433Y0092944D03*
X0021433Y0100424D03*
X0052161Y0120011D03*
X0052161Y0127491D03*
X0061256Y0127412D03*
X0061256Y0119932D03*
X0066925Y0100522D03*
X0066925Y0093042D03*
X0138795Y0128042D03*
X0138795Y0135522D03*
X0158874Y0135522D03*
X0158874Y0128042D03*
X0169110Y0128042D03*
X0169110Y0135522D03*
X0161630Y0118003D03*
X0161630Y0110522D03*
X0149031Y0110522D03*
X0149031Y0118003D03*
D11*
X0091335Y0123160D03*
X0071650Y0123160D03*
D12*
X0081512Y0108554D03*
X0080528Y0083751D03*
X0046472Y0088278D03*
X0041551Y0100483D03*
X0028953Y0092806D03*
X0009268Y0051270D03*
X0114386Y0128239D03*
X0128559Y0091428D03*
X0149819Y0086507D03*
X0171866Y0069184D03*
X0181118Y0048318D03*
X0128953Y0018003D03*
X0195291Y0122924D03*
D13*
X0195291Y0141034D01*
X0188992Y0147333D01*
X0182496Y0147333D01*
X0155921Y0147333D01*
X0152181Y0143593D01*
X0153953Y0141822D01*
X0153953Y0140444D01*
X0152181Y0143593D02*
X0151984Y0143790D01*
X0121472Y0143790D01*
X0114386Y0136704D01*
X0114386Y0128239D01*
X0114583Y0128239D01*
X0081512Y0108554D02*
X0070488Y0108554D01*
X0066748Y0104814D01*
X0066748Y0100700D01*
X0066925Y0093042D02*
X0066689Y0092806D01*
X0071472Y0092806D01*
X0080528Y0083751D01*
X0066689Y0092806D02*
X0058283Y0092806D01*
X0050665Y0100424D01*
X0046669Y0100424D01*
X0046472Y0100227D01*
X0046669Y0100424D02*
X0041610Y0100424D01*
X0021433Y0100424D01*
X0014720Y0100424D01*
X0009268Y0094971D01*
X0009268Y0051270D01*
X0021433Y0092944D02*
X0028815Y0092944D01*
X0128953Y0018003D02*
X0133886Y0023068D01*
X0158480Y0048318D01*
X0181118Y0048318D01*
X0171866Y0069184D02*
X0154543Y0086507D01*
X0149819Y0086507D01*
D14*
X0156118Y0091428D02*
X0156315Y0091231D01*
X0156118Y0091428D02*
X0156118Y0107373D01*
X0152969Y0110522D01*
X0149031Y0110522D01*
X0148835Y0110326D01*
X0139780Y0110326D01*
X0134858Y0108751D02*
X0134858Y0113869D01*
X0134858Y0108751D02*
X0139780Y0103830D01*
X0139780Y0086507D01*
X0119701Y0087097D02*
X0119701Y0109144D01*
X0134071Y0123515D01*
X0134071Y0132570D01*
X0137024Y0135522D01*
X0138795Y0135522D01*
X0138795Y0128042D02*
X0138795Y0122333D01*
X0149031Y0119774D02*
X0149031Y0118003D01*
X0149031Y0119774D02*
X0150606Y0119774D01*
X0158874Y0128042D01*
X0157890Y0128042D01*
X0154150Y0131782D01*
X0154150Y0140247D01*
X0153953Y0140444D01*
X0158874Y0135522D02*
X0163598Y0140247D01*
X0164189Y0140444D01*
X0169110Y0135522D02*
X0174031Y0140444D01*
X0182496Y0147333D02*
X0183874Y0145956D01*
X0183874Y0140444D01*
X0169110Y0128042D02*
X0161630Y0120562D01*
X0161630Y0118003D01*
X0161630Y0110522D02*
X0161827Y0110326D01*
X0164976Y0110326D01*
X0167339Y0107963D01*
X0167535Y0105601D01*
X0186630Y0089263D02*
X0198441Y0089263D01*
X0193126Y0072530D02*
X0190173Y0069578D01*
X0190173Y0048121D01*
X0173835Y0064459D02*
X0170094Y0064459D01*
X0165567Y0068987D01*
X0151984Y0068987D01*
X0144504Y0068790D02*
X0118913Y0043200D01*
X0118913Y0018003D01*
X0108087Y0023711D02*
X0113992Y0029617D01*
X0113992Y0041428D01*
X0108874Y0031585D02*
X0108874Y0065050D01*
X0110843Y0067019D01*
X0110843Y0094971D01*
X0111039Y0095168D01*
X0106315Y0101467D02*
X0122260Y0117412D01*
X0106315Y0101467D02*
X0106315Y0067806D01*
X0099031Y0060522D01*
X0099031Y0036113D01*
X0093126Y0030011D01*
X0089583Y0023711D02*
X0086827Y0026467D01*
X0089583Y0023711D02*
X0108087Y0023711D01*
X0133677Y0023277D02*
X0133886Y0023068D01*
X0133677Y0023277D02*
X0133677Y0050089D01*
X0129740Y0059341D02*
X0134858Y0064459D01*
X0134858Y0069184D01*
X0103165Y0082767D02*
X0091157Y0070759D01*
X0081906Y0070759D01*
X0082496Y0070759D01*
X0081906Y0070759D02*
X0073244Y0070759D01*
X0063992Y0061507D01*
X0063992Y0050877D01*
X0064189Y0050680D01*
X0071866Y0049696D02*
X0064189Y0042019D01*
X0060646Y0042019D01*
X0051984Y0050680D01*
X0050409Y0045759D02*
X0062614Y0033554D01*
X0063008Y0033554D01*
X0058677Y0029026D02*
X0042142Y0045562D01*
X0038205Y0045562D01*
X0038205Y0057137D01*
X0038165Y0057176D01*
X0029937Y0057137D02*
X0029937Y0037885D01*
X0048835Y0018987D01*
X0048835Y0018003D01*
X0058677Y0018003D02*
X0058677Y0029026D01*
X0045685Y0035326D02*
X0045685Y0035522D01*
X0043126Y0038081D01*
X0038205Y0038081D01*
X0029937Y0030404D02*
X0029937Y0029814D01*
X0023835Y0023711D01*
X0021669Y0025877D01*
X0021669Y0038081D01*
X0021669Y0045562D02*
X0021472Y0045759D01*
X0017929Y0045759D01*
X0012811Y0040641D01*
X0012811Y0029026D01*
X0023835Y0018003D01*
X0038795Y0018003D01*
X0008874Y0018003D02*
X0008874Y0044578D01*
X0015370Y0051074D01*
X0021669Y0045562D02*
X0021669Y0057176D01*
X0029898Y0057176D02*
X0029937Y0057137D01*
X0029898Y0064656D02*
X0026591Y0067963D01*
X0026591Y0074696D01*
X0021669Y0074696D02*
X0021669Y0064656D01*
X0031512Y0073121D02*
X0031512Y0074696D01*
X0031512Y0073121D02*
X0038165Y0066467D01*
X0038165Y0064656D01*
X0061433Y0072137D02*
X0067339Y0078633D01*
X0081906Y0078633D01*
X0096866Y0064656D02*
X0085055Y0052845D01*
X0085055Y0042019D01*
X0073638Y0049696D02*
X0071866Y0049696D01*
X0028953Y0092806D02*
X0028815Y0092944D01*
X0051591Y0106585D02*
X0051591Y0119440D01*
X0052161Y0120011D01*
X0052161Y0127491D02*
X0019858Y0127491D01*
X0008480Y0138869D01*
X0018520Y0138869D02*
X0025409Y0132373D01*
X0055724Y0132373D01*
X0060685Y0127412D01*
X0061256Y0127412D01*
X0061256Y0119932D02*
X0061433Y0119755D01*
X0061433Y0100680D01*
X0060449Y0099696D01*
X0056512Y0103239D02*
X0054937Y0103239D01*
X0051591Y0106585D01*
X0066748Y0100700D02*
X0066925Y0100522D01*
X0067339Y0138081D02*
X0076787Y0147530D01*
X0101984Y0147530D01*
X0176197Y0084932D02*
X0176394Y0085129D01*
X0176197Y0084932D02*
X0176197Y0066822D01*
X0173835Y0064459D01*
D15*
X0183874Y0051074D02*
X0183874Y0085326D01*
X0178756Y0090444D01*
X0174031Y0090444D01*
X0183874Y0105995D02*
X0195291Y0117412D01*
X0195291Y0122924D01*
X0128559Y0091428D02*
X0128559Y0066034D01*
X0127575Y0065050D01*
X0181118Y0048318D02*
X0183874Y0051074D01*
X0046472Y0088278D02*
X0046472Y0100227D01*
D16*
X0008874Y0018003D03*
X0023835Y0023711D03*
X0038795Y0018003D03*
X0048835Y0018003D03*
X0058677Y0018003D03*
X0063008Y0033554D03*
X0050409Y0045759D03*
X0051984Y0050680D03*
X0064189Y0050680D03*
X0073638Y0049696D03*
X0085055Y0042019D03*
X0093126Y0030011D03*
X0086827Y0026467D03*
X0108874Y0031585D03*
X0113992Y0041428D03*
X0133677Y0050089D03*
X0129740Y0059341D03*
X0127575Y0065050D03*
X0134858Y0069184D03*
X0144504Y0068790D03*
X0151984Y0068987D03*
X0139780Y0086507D03*
X0156315Y0091231D03*
X0174031Y0090444D03*
X0176394Y0085129D03*
X0186630Y0089263D03*
X0198441Y0089263D03*
X0193126Y0072530D03*
X0190173Y0048121D03*
X0118913Y0018003D03*
X0096866Y0064656D03*
X0081906Y0070759D03*
X0081906Y0078633D03*
X0061433Y0072137D03*
X0031512Y0074696D03*
X0026591Y0074696D03*
X0021669Y0074696D03*
X0015370Y0051074D03*
X0045685Y0035326D03*
X0119701Y0087097D03*
X0111039Y0095168D03*
X0134858Y0113869D03*
X0139780Y0110326D03*
X0138795Y0122333D03*
X0122260Y0117412D03*
X0153953Y0140444D03*
X0164189Y0140444D03*
X0174031Y0140444D03*
X0183874Y0140444D03*
X0183874Y0105995D03*
X0167535Y0105601D03*
X0101984Y0147530D03*
X0067339Y0138081D03*
X0056512Y0103239D03*
X0060449Y0099696D03*
X0018520Y0138869D03*
X0008480Y0138869D03*
D17*
X0041551Y0100483D02*
X0041610Y0100424D01*
M02*
