%
M48
M72
T01C0.0236
T02C0.0394
T03C0.0472
%
T01
X887Y1832
X2383Y2403
X3880Y1832
X4883Y1832
X5868Y1832
X6301Y3387
X5041Y4608
X5198Y5100
X6419Y5100
X7364Y5002
X8506Y4234
X9313Y3033
X8683Y2679
X10887Y3191
X11399Y4175
X12974Y5966
X12757Y6537
X13486Y6950
X14450Y6911
X15198Y6931
X17187Y6950
X17639Y8545
X17403Y9076
X18663Y8958
X19844Y8958
X19313Y7285
X19017Y4844
X18112Y4864
X14982Y8683
X15631Y9155
X13978Y8683
X12856Y9175
X11970Y8742
X11104Y9549
X13486Y11419
X13978Y11065
X13880Y12265
X12226Y11773
X11439Y12856
X10198Y14785
X6734Y13840
X8151Y10887
X6045Y10002
X5651Y10356
X4155Y10080
X2895Y9313
X4647Y8860
X3151Y7502
X2659Y7502
X2167Y7502
X1537Y5139
X927Y5159
X4569Y3565
X8191Y7108
X8191Y7895
X8053Y8407
X6143Y7246
X9687Y6498
X11891Y1832
X12895Y1832
X16754Y10592
X18387Y10631
X19529Y12324
X18387Y14076
X17403Y14076
X16419Y14076
X15395Y14076
X1852Y13919
X848Y13919
T02
X7165Y12348
X9133Y12348
T03
X883Y537
X1883Y537
X2883Y537
X3883Y537
X4883Y537
X5883Y537
X6883Y537
X7883Y537
X8883Y537
X9883Y537
X10883Y537
X11883Y537
X12883Y537
X13883Y537
X14883Y537
X15883Y537
X16883Y537
X17883Y537
X18883Y537
X19883Y537
X19883Y15293
X18883Y15293
X17883Y15293
X16883Y15293
X15883Y15293
X14883Y15293
X13883Y15293
X12883Y15293
X11883Y15293
X10883Y15293
M30
