G75*
%MOIN*%
%OFA0B0*%
%FSLAX25Y25*%
%IPPOS*%
%LPD*%
%AMOC8*
5,1,8,0,0,1.08239X$1,22.5*
%
%ADD10R,0.01772X0.07087*%
%ADD11R,0.05906X0.05118*%
%ADD12R,0.09449X0.06299*%
%ADD13R,0.02600X0.08000*%
%ADD14R,0.05000X0.10000*%
%ADD15R,0.03937X0.05512*%
%ADD16R,0.06299X0.09449*%
%ADD17R,0.02362X0.08661*%
%ADD18R,0.08661X0.06299*%
%ADD19R,0.10630X0.06299*%
%ADD20R,0.01378X0.03346*%
%ADD21R,0.03346X0.01378*%
D10*
X0016512Y0081408D03*
X0021512Y0081408D03*
X0026512Y0081408D03*
X0031512Y0081408D03*
X0036512Y0081408D03*
X0041512Y0081408D03*
X0046512Y0081408D03*
X0051512Y0081408D03*
X0056512Y0081408D03*
X0061512Y0081408D03*
X0066512Y0081408D03*
X0071512Y0081408D03*
X0071512Y0109755D03*
X0066512Y0109755D03*
X0061512Y0109755D03*
X0056512Y0109755D03*
X0051512Y0109755D03*
X0046512Y0109755D03*
X0041512Y0109755D03*
X0036512Y0109755D03*
X0031512Y0109755D03*
X0026512Y0109755D03*
X0021512Y0109755D03*
X0016512Y0109755D03*
D11*
X0018913Y0119971D03*
X0026984Y0119971D03*
X0026984Y0127452D03*
X0018913Y0127452D03*
X0035055Y0127452D03*
X0035055Y0119971D03*
X0043106Y0120011D03*
X0043106Y0127491D03*
X0046669Y0064656D03*
X0037811Y0064656D03*
X0037811Y0057176D03*
X0046669Y0057176D03*
X0055528Y0057176D03*
X0064189Y0057176D03*
X0064189Y0064656D03*
X0055528Y0064656D03*
X0073047Y0064656D03*
X0081906Y0064656D03*
X0090567Y0064656D03*
X0090567Y0057176D03*
X0081906Y0057176D03*
X0073047Y0057176D03*
X0090961Y0045759D03*
X0099031Y0045759D03*
X0099031Y0038278D03*
X0090961Y0038278D03*
X0099031Y0030011D03*
X0099031Y0022530D03*
X0068913Y0022530D03*
X0068913Y0030011D03*
X0103953Y0057176D03*
X0103953Y0064656D03*
X0138992Y0062294D03*
X0138992Y0054814D03*
X0138992Y0045759D03*
X0138992Y0038278D03*
X0138992Y0030011D03*
X0138992Y0022530D03*
X0148835Y0022530D03*
X0148835Y0030011D03*
X0148835Y0038278D03*
X0148835Y0045759D03*
X0148835Y0054814D03*
X0148835Y0062294D03*
X0162614Y0062294D03*
X0171866Y0062294D03*
X0171866Y0054814D03*
X0162614Y0054814D03*
X0158874Y0045759D03*
X0158874Y0038278D03*
X0158874Y0030011D03*
X0158874Y0022530D03*
X0168913Y0022530D03*
X0168913Y0030011D03*
X0168913Y0038278D03*
X0168913Y0045759D03*
X0180961Y0054814D03*
X0190173Y0054814D03*
X0199228Y0054814D03*
X0199228Y0062294D03*
X0190173Y0062294D03*
X0180961Y0062294D03*
X0161630Y0076467D03*
X0161630Y0083948D03*
X0161630Y0095365D03*
X0161630Y0102845D03*
X0161630Y0110522D03*
X0161630Y0118003D03*
X0158874Y0128042D03*
X0158874Y0135522D03*
X0149031Y0135522D03*
X0149031Y0128042D03*
X0169110Y0128042D03*
X0169110Y0135522D03*
X0178953Y0135522D03*
X0178953Y0128042D03*
X0198441Y0102845D03*
X0198441Y0095365D03*
X0028756Y0045759D03*
X0018913Y0045759D03*
X0018913Y0038278D03*
X0028756Y0038278D03*
X0024228Y0057176D03*
X0024228Y0064656D03*
D12*
X0009228Y0069538D03*
X0009228Y0057727D03*
X0081492Y0090286D03*
X0081492Y0102097D03*
D13*
X0119819Y0102918D03*
X0124819Y0102918D03*
X0129819Y0102918D03*
X0134819Y0102918D03*
X0139819Y0102918D03*
X0144819Y0102918D03*
X0149819Y0102918D03*
X0149819Y0078718D03*
X0144819Y0078718D03*
X0139819Y0078718D03*
X0134819Y0078718D03*
X0129819Y0078718D03*
X0124819Y0078718D03*
X0119819Y0078718D03*
D14*
X0008894Y0010011D03*
X0018894Y0010011D03*
X0028894Y0010011D03*
X0038894Y0010011D03*
X0048894Y0010011D03*
X0058894Y0010011D03*
X0068894Y0010011D03*
X0078894Y0010011D03*
X0088894Y0010011D03*
X0098894Y0010011D03*
X0108894Y0010011D03*
X0118894Y0010011D03*
X0128894Y0010011D03*
X0138894Y0010011D03*
X0148894Y0010011D03*
X0158894Y0010011D03*
X0168894Y0010011D03*
X0178894Y0010011D03*
X0188894Y0010011D03*
X0198894Y0010011D03*
X0198894Y0147511D03*
X0188894Y0147511D03*
X0178894Y0147511D03*
X0168894Y0147511D03*
X0158894Y0147511D03*
X0148894Y0147511D03*
X0138894Y0147511D03*
X0128894Y0147511D03*
X0118894Y0147511D03*
X0108894Y0147511D03*
X0028500Y0147530D03*
X0018500Y0147511D03*
X0008500Y0147511D03*
D15*
X0120094Y0062885D03*
X0116354Y0054223D03*
X0123835Y0054223D03*
X0171669Y0110719D03*
X0179150Y0110719D03*
X0175409Y0119381D03*
D16*
X0186630Y0114853D03*
X0198441Y0114853D03*
D17*
X0189012Y0098515D03*
X0184012Y0098515D03*
X0179012Y0098515D03*
X0174012Y0098515D03*
X0174012Y0078042D03*
X0179012Y0078042D03*
X0184012Y0078042D03*
X0189012Y0078042D03*
D18*
X0101787Y0117412D03*
X0101787Y0128436D03*
D19*
X0078953Y0032373D03*
X0078953Y0021349D03*
D20*
X0188992Y0020857D03*
X0192732Y0020857D03*
X0196472Y0020857D03*
X0196472Y0030109D03*
X0192732Y0030109D03*
X0188992Y0030109D03*
X0191551Y0127550D03*
X0195291Y0127550D03*
X0199031Y0127550D03*
X0199031Y0136802D03*
X0191551Y0136802D03*
D21*
X0073736Y0045759D03*
X0064484Y0045759D03*
X0064484Y0042019D03*
X0064484Y0038278D03*
X0073736Y0038278D03*
M02*
