G75*
%MOIN*%
%OFA0B0*%
%FSLAX25Y25*%
%IPPOS*%
%LPD*%
%AMOC8*
5,1,8,0,0,1.08239X$1,22.5*
%
%ADD10R,0.06693X0.08661*%
%ADD11R,0.01772X0.07087*%
%ADD12R,0.05906X0.05118*%
%ADD13R,0.09449X0.06299*%
%ADD14R,0.02600X0.08000*%
%ADD15C,0.05937*%
%ADD16R,0.05000X0.10000*%
%ADD17R,0.03937X0.05512*%
%ADD18R,0.06299X0.09449*%
%ADD19R,0.02362X0.08661*%
%ADD20R,0.08661X0.06299*%
%ADD21R,0.10630X0.06299*%
%ADD22R,0.01575X0.03543*%
%ADD23R,0.03543X0.01575*%
%ADD24C,0.01575*%
%ADD25C,0.02756*%
%ADD26C,0.01181*%
%ADD27R,0.03962X0.03962*%
%ADD28C,0.01969*%
%ADD29C,0.03962*%
D10*
X0071669Y0123121D03*
X0091354Y0123121D03*
D11*
X0071512Y0109755D03*
X0066512Y0109755D03*
X0061512Y0109755D03*
X0056512Y0109755D03*
X0051512Y0109755D03*
X0046512Y0109755D03*
X0041512Y0109755D03*
X0036512Y0109755D03*
X0031512Y0109755D03*
X0026512Y0109755D03*
X0021512Y0109755D03*
X0016512Y0109755D03*
X0016512Y0081408D03*
X0021512Y0081408D03*
X0026512Y0081408D03*
X0031512Y0081408D03*
X0036512Y0081408D03*
X0041512Y0081408D03*
X0046512Y0081408D03*
X0051512Y0081408D03*
X0056512Y0081408D03*
X0061512Y0081408D03*
X0066512Y0081408D03*
X0071512Y0081408D03*
D12*
X0073047Y0064656D03*
X0081906Y0064656D03*
X0090567Y0064656D03*
X0090567Y0057176D03*
X0081906Y0057176D03*
X0073047Y0057176D03*
X0064189Y0057176D03*
X0055528Y0057176D03*
X0046669Y0057176D03*
X0037811Y0057176D03*
X0037811Y0064656D03*
X0046669Y0064656D03*
X0055528Y0064656D03*
X0064189Y0064656D03*
X0090961Y0045759D03*
X0099031Y0045759D03*
X0099031Y0038278D03*
X0090961Y0038278D03*
X0099031Y0030011D03*
X0099031Y0022530D03*
X0068913Y0022530D03*
X0068913Y0030011D03*
X0103953Y0057176D03*
X0103953Y0064656D03*
X0138992Y0062294D03*
X0138992Y0054814D03*
X0138992Y0045759D03*
X0138992Y0038278D03*
X0138992Y0030011D03*
X0138992Y0022530D03*
X0148835Y0022530D03*
X0148835Y0030011D03*
X0148835Y0038278D03*
X0148835Y0045759D03*
X0148835Y0054814D03*
X0148835Y0062294D03*
X0162614Y0062294D03*
X0171866Y0062294D03*
X0171866Y0054814D03*
X0162614Y0054814D03*
X0158874Y0045759D03*
X0158874Y0038278D03*
X0158874Y0030011D03*
X0158874Y0022530D03*
X0168913Y0022530D03*
X0168913Y0030011D03*
X0168913Y0038278D03*
X0168913Y0045759D03*
X0180961Y0054814D03*
X0190173Y0054814D03*
X0199228Y0054814D03*
X0199228Y0062294D03*
X0190173Y0062294D03*
X0180961Y0062294D03*
X0161630Y0076467D03*
X0161630Y0083948D03*
X0161630Y0095365D03*
X0161630Y0102845D03*
X0161630Y0110522D03*
X0161630Y0118003D03*
X0158874Y0128042D03*
X0158874Y0135522D03*
X0149031Y0135522D03*
X0149031Y0128042D03*
X0169110Y0128042D03*
X0169110Y0135522D03*
X0178953Y0135522D03*
X0178953Y0128042D03*
X0198441Y0102845D03*
X0198441Y0095365D03*
X0043106Y0120011D03*
X0043106Y0127491D03*
X0035055Y0127452D03*
X0035055Y0119971D03*
X0026984Y0119971D03*
X0018913Y0119971D03*
X0018913Y0127452D03*
X0026984Y0127452D03*
X0024228Y0064656D03*
X0024228Y0057176D03*
X0028756Y0045759D03*
X0018913Y0045759D03*
X0018913Y0038278D03*
X0028756Y0038278D03*
D13*
X0009228Y0057727D03*
X0009228Y0069538D03*
X0081492Y0090286D03*
X0081492Y0102097D03*
D14*
X0119819Y0102918D03*
X0124819Y0102918D03*
X0129819Y0102918D03*
X0134819Y0102918D03*
X0139819Y0102918D03*
X0144819Y0102918D03*
X0149819Y0102918D03*
X0149819Y0078718D03*
X0144819Y0078718D03*
X0139819Y0078718D03*
X0134819Y0078718D03*
X0129819Y0078718D03*
X0124819Y0078718D03*
X0119819Y0078718D03*
D15*
X0091335Y0123160D03*
X0071650Y0123160D03*
D16*
X0008894Y0010011D03*
X0018894Y0010011D03*
X0028894Y0010011D03*
X0038894Y0010011D03*
X0048894Y0010011D03*
X0058894Y0010011D03*
X0068894Y0010011D03*
X0078894Y0010011D03*
X0088894Y0010011D03*
X0098894Y0010011D03*
X0108894Y0010011D03*
X0118894Y0010011D03*
X0128894Y0010011D03*
X0138894Y0010011D03*
X0148894Y0010011D03*
X0158894Y0010011D03*
X0168894Y0010011D03*
X0178894Y0010011D03*
X0188894Y0010011D03*
X0198894Y0010011D03*
X0198894Y0147511D03*
X0188894Y0147511D03*
X0178894Y0147511D03*
X0168894Y0147511D03*
X0158894Y0147511D03*
X0148894Y0147511D03*
X0138894Y0147511D03*
X0128894Y0147511D03*
X0118894Y0147511D03*
X0108894Y0147511D03*
X0028500Y0147530D03*
X0018500Y0147511D03*
X0008500Y0147511D03*
D17*
X0120094Y0062885D03*
X0116354Y0054223D03*
X0123835Y0054223D03*
X0171669Y0110719D03*
X0179150Y0110719D03*
X0175409Y0119381D03*
D18*
X0186630Y0114853D03*
X0198441Y0114853D03*
D19*
X0189012Y0098515D03*
X0184012Y0098515D03*
X0179012Y0098515D03*
X0174012Y0098515D03*
X0174012Y0078042D03*
X0179012Y0078042D03*
X0184012Y0078042D03*
X0189012Y0078042D03*
D20*
X0101787Y0117412D03*
X0101787Y0128436D03*
D21*
X0078953Y0032373D03*
X0078953Y0021349D03*
D22*
X0188992Y0020857D03*
X0192732Y0020857D03*
X0196472Y0020857D03*
X0196472Y0030109D03*
X0192732Y0030109D03*
X0188992Y0030109D03*
X0191551Y0127550D03*
X0195291Y0127550D03*
X0199031Y0127550D03*
X0199031Y0136802D03*
X0191551Y0136802D03*
D23*
X0073736Y0045759D03*
X0064484Y0045759D03*
X0064484Y0042019D03*
X0064484Y0038278D03*
X0073736Y0038278D03*
D24*
X0046512Y0088239D02*
X0046472Y0088278D01*
X0041551Y0109715D02*
X0041512Y0109755D01*
X0016748Y0092412D02*
X0016512Y0092648D01*
X0016453Y0092117D02*
X0016512Y0092058D01*
X0174012Y0098515D02*
X0174012Y0105581D01*
X0179150Y0110719D01*
D25*
X0158874Y0135522D02*
X0158894Y0135542D01*
X0158894Y0147511D01*
X0153953Y0140444D02*
X0158657Y0135542D01*
X0119819Y0102918D02*
X0105324Y0117412D01*
X0101787Y0117412D01*
X0103559Y0117412D01*
X0114386Y0128239D01*
X0101787Y0117412D02*
X0086472Y0102097D01*
X0083244Y0102097D01*
X0081492Y0102097D02*
X0072201Y0092806D01*
X0028953Y0092806D01*
X0017142Y0092806D01*
X0016748Y0092412D01*
X0016453Y0092117D01*
X0009228Y0084893D01*
X0009228Y0069538D01*
X0009228Y0057727D02*
X0009268Y0057688D01*
X0009268Y0051270D01*
X0009268Y0042609D01*
X0013598Y0038278D01*
X0018913Y0038278D01*
X0028756Y0038278D01*
X0018913Y0038278D02*
X0018894Y0038259D01*
X0018894Y0010011D01*
X0068894Y0010011D02*
X0068894Y0022511D01*
X0099031Y0045759D02*
X0099031Y0051074D01*
X0093126Y0056979D01*
X0090764Y0056979D01*
X0090567Y0057176D01*
X0081906Y0057176D01*
X0073047Y0057176D01*
X0069307Y0057176D01*
X0064189Y0057176D01*
X0055528Y0057176D01*
X0046669Y0057176D01*
X0080528Y0083751D02*
X0080528Y0089322D01*
X0081492Y0090286D01*
X0082122Y0089656D01*
X0112811Y0089656D01*
X0114583Y0091428D01*
X0128559Y0091428D01*
X0144898Y0091428D01*
X0149819Y0086507D01*
X0149819Y0078718D01*
X0162614Y0062294D02*
X0171866Y0062294D01*
X0180961Y0062294D01*
X0190173Y0062294D01*
X0199228Y0062294D01*
X0180961Y0054814D02*
X0171866Y0054814D01*
X0171866Y0062294D02*
X0171866Y0069184D01*
X0128953Y0018003D02*
X0101197Y0045759D01*
X0099031Y0045759D01*
X0128953Y0018003D02*
X0128953Y0010070D01*
X0081492Y0102097D02*
X0081492Y0108534D01*
D26*
X0081512Y0108554D01*
X0081492Y0102097D02*
X0083244Y0102097D01*
X0081492Y0090286D02*
X0081492Y0084715D01*
X0080528Y0083751D01*
X0081906Y0078633D02*
X0082778Y0078718D01*
X0119819Y0078718D01*
X0119819Y0085207D01*
X0119701Y0087097D01*
X0120882Y0095168D02*
X0111039Y0095168D01*
X0120882Y0095168D02*
X0124819Y0099105D01*
X0124819Y0102918D01*
X0129819Y0102918D02*
X0134819Y0102918D01*
X0139819Y0102918D02*
X0139819Y0110365D01*
X0139780Y0110326D01*
X0134858Y0113869D02*
X0157496Y0113869D01*
X0161630Y0118003D01*
X0163992Y0122924D02*
X0158480Y0122924D01*
X0152969Y0117412D01*
X0122260Y0117412D01*
X0138795Y0122333D02*
X0143126Y0122333D01*
X0149031Y0128042D01*
X0158874Y0128042D01*
X0163992Y0122924D02*
X0169110Y0128042D01*
X0169110Y0135522D02*
X0169110Y0145365D01*
X0164189Y0140444D01*
X0169110Y0145365D02*
X0169110Y0147294D01*
X0168894Y0147511D01*
X0174031Y0140641D02*
X0178953Y0145562D01*
X0178953Y0135522D01*
X0183677Y0140050D02*
X0183677Y0129617D01*
X0182102Y0128042D01*
X0178953Y0128042D01*
X0186039Y0126270D02*
X0186039Y0136704D01*
X0188795Y0139459D01*
X0188795Y0147412D01*
X0188894Y0147511D01*
X0183874Y0140444D02*
X0183677Y0140050D01*
X0188992Y0134046D02*
X0191551Y0136802D01*
X0198894Y0144144D01*
X0198894Y0147511D01*
X0199031Y0136802D02*
X0198539Y0136802D01*
X0191748Y0130011D01*
X0191748Y0127747D01*
X0191551Y0127550D01*
X0191551Y0119971D01*
X0193126Y0118396D01*
X0193126Y0072530D01*
X0188992Y0078022D02*
X0189012Y0078042D01*
X0184012Y0078042D02*
X0179012Y0078042D01*
X0176394Y0085129D02*
X0178953Y0087688D01*
X0178953Y0098456D01*
X0179012Y0098515D01*
X0184012Y0098515D02*
X0184071Y0098456D01*
X0184071Y0091822D01*
X0186630Y0089263D01*
X0189012Y0098515D02*
X0184012Y0098515D01*
X0174031Y0090444D02*
X0174012Y0090463D01*
X0161630Y0095365D02*
X0161630Y0083948D01*
X0156315Y0079420D02*
X0156315Y0091231D01*
X0161630Y0095365D02*
X0146866Y0095365D01*
X0144898Y0097333D01*
X0144898Y0102839D01*
X0144819Y0102918D01*
X0149819Y0102918D02*
X0149891Y0102845D01*
X0161630Y0102845D01*
X0164583Y0102845D01*
X0167535Y0105601D01*
X0171472Y0110522D02*
X0161630Y0110522D01*
X0171472Y0110522D02*
X0171669Y0110719D01*
X0179150Y0110719D02*
X0179346Y0110522D01*
X0179346Y0107963D01*
X0186630Y0114853D02*
X0186630Y0122137D01*
X0188992Y0124302D01*
X0188992Y0134046D01*
X0186039Y0126270D02*
X0179150Y0119381D01*
X0175409Y0119381D01*
X0158894Y0135542D02*
X0158657Y0135542D01*
X0149031Y0135522D02*
X0148894Y0135660D01*
X0148894Y0147511D01*
X0149031Y0147373D01*
X0138992Y0147412D02*
X0138992Y0143790D01*
X0129150Y0133948D01*
X0101197Y0133948D01*
X0093520Y0141625D01*
X0040173Y0141625D01*
X0035055Y0136507D01*
X0035055Y0127452D01*
X0035055Y0119971D02*
X0031512Y0116428D01*
X0031512Y0109755D01*
X0036512Y0109755D02*
X0036512Y0113416D01*
X0043106Y0120011D01*
X0043106Y0127491D02*
X0043106Y0135306D01*
X0045882Y0138081D01*
X0067339Y0138081D01*
X0071650Y0123160D02*
X0071610Y0123121D01*
X0059661Y0123121D01*
X0051512Y0114971D01*
X0051512Y0109755D01*
X0056512Y0109755D02*
X0056512Y0103239D01*
X0060449Y0099696D02*
X0061512Y0100759D01*
X0061512Y0109755D01*
X0091335Y0123160D02*
X0096512Y0123160D01*
X0101787Y0128436D01*
X0102575Y0137097D02*
X0122260Y0137097D01*
X0128953Y0143790D01*
X0128953Y0147452D01*
X0128894Y0147511D01*
X0138894Y0147511D02*
X0138992Y0147412D01*
X0138894Y0147511D02*
X0138894Y0147235D01*
X0119701Y0146704D02*
X0119701Y0144381D01*
X0115567Y0140247D01*
X0103165Y0140247D01*
X0095882Y0147530D01*
X0037811Y0147530D01*
X0019110Y0128830D01*
X0018913Y0127452D01*
X0026984Y0127452D02*
X0026984Y0132767D01*
X0038795Y0144578D01*
X0095094Y0144578D01*
X0102575Y0137097D01*
X0101984Y0147530D02*
X0108874Y0147530D01*
X0108894Y0147511D01*
X0118894Y0147511D02*
X0119701Y0146704D01*
X0174031Y0140641D02*
X0174031Y0140444D01*
X0178953Y0145562D02*
X0178953Y0147452D01*
X0178894Y0147511D01*
X0199031Y0127550D02*
X0204150Y0122432D01*
X0204150Y0023515D01*
X0201492Y0020857D01*
X0196472Y0020857D01*
X0192732Y0020857D02*
X0192732Y0017806D01*
X0198894Y0011644D01*
X0198894Y0010011D01*
X0188894Y0010011D02*
X0188894Y0020759D01*
X0188992Y0020857D01*
X0188992Y0030109D02*
X0196472Y0030109D01*
X0196472Y0052452D01*
X0199228Y0054814D01*
X0190173Y0054814D02*
X0190173Y0048121D01*
X0181118Y0054656D02*
X0180961Y0054814D01*
X0180961Y0062294D02*
X0180961Y0064499D01*
X0162614Y0054814D02*
X0159661Y0054814D01*
X0156709Y0057767D01*
X0156709Y0071546D01*
X0161630Y0076467D01*
X0159268Y0076467D01*
X0156315Y0079420D01*
X0144898Y0078639D02*
X0144819Y0078718D01*
X0144504Y0078403D01*
X0144504Y0068790D01*
X0148835Y0065837D02*
X0151984Y0068987D01*
X0148835Y0065837D02*
X0148835Y0062294D01*
X0138992Y0062294D01*
X0140370Y0062491D02*
X0136039Y0062491D01*
X0130331Y0068200D01*
X0130331Y0078206D01*
X0129819Y0078718D01*
X0134819Y0078718D02*
X0134858Y0078678D01*
X0134858Y0069184D01*
X0124819Y0067609D02*
X0124819Y0078718D01*
X0120094Y0067806D02*
X0113402Y0074499D01*
X0074031Y0074499D01*
X0064189Y0064656D01*
X0061433Y0072137D02*
X0061433Y0081330D01*
X0061512Y0081408D01*
X0071512Y0081408D02*
X0071531Y0081389D01*
X0081906Y0070759D02*
X0097850Y0070759D01*
X0103953Y0064656D01*
X0096866Y0064656D02*
X0090567Y0064656D01*
X0081906Y0064656D02*
X0081906Y0070759D01*
X0081906Y0064656D02*
X0073047Y0064656D01*
X0069307Y0057176D02*
X0069110Y0056979D01*
X0069110Y0042019D01*
X0064484Y0042019D01*
X0061630Y0042019D01*
X0058677Y0039066D01*
X0058677Y0035326D01*
X0045685Y0035326D01*
X0035252Y0035326D01*
X0023835Y0023711D01*
X0008894Y0019361D02*
X0008874Y0018003D01*
X0008894Y0019361D02*
X0008894Y0010011D01*
X0009268Y0010385D01*
X0038795Y0010109D02*
X0038795Y0018003D01*
X0038795Y0010109D02*
X0038894Y0010011D01*
X0048795Y0010109D02*
X0048795Y0017963D01*
X0048835Y0018003D01*
X0048795Y0010109D02*
X0048894Y0010011D01*
X0058638Y0010267D02*
X0058638Y0017963D01*
X0058677Y0018003D01*
X0066551Y0022530D02*
X0058677Y0030404D01*
X0058677Y0035326D01*
X0063008Y0033554D02*
X0064189Y0034735D01*
X0068717Y0034735D01*
X0072260Y0038278D01*
X0073736Y0038278D01*
X0083480Y0038278D01*
X0086433Y0035326D01*
X0086433Y0031782D01*
X0091551Y0026664D01*
X0091551Y0024499D01*
X0088894Y0021841D01*
X0088894Y0010011D01*
X0098894Y0010011D02*
X0098894Y0022393D01*
X0099031Y0022530D01*
X0099031Y0030011D02*
X0093126Y0030011D01*
X0099031Y0030011D02*
X0099031Y0038278D01*
X0097457Y0044381D02*
X0099031Y0045759D01*
X0090961Y0045759D02*
X0073736Y0045759D01*
X0073736Y0049597D01*
X0073638Y0049696D01*
X0064484Y0045759D02*
X0064189Y0046054D01*
X0064189Y0050680D01*
X0051984Y0050680D02*
X0023835Y0050680D01*
X0018913Y0045759D01*
X0015370Y0051074D02*
X0021472Y0057176D01*
X0024228Y0057176D01*
X0024228Y0064656D02*
X0030331Y0064656D01*
X0037811Y0057176D01*
X0045291Y0064656D01*
X0046669Y0064656D01*
X0037811Y0064656D02*
X0037811Y0072727D01*
X0041551Y0076467D01*
X0041551Y0081369D01*
X0041512Y0081408D01*
X0046472Y0081369D02*
X0046512Y0081408D01*
X0031512Y0081408D02*
X0031512Y0074696D01*
X0026591Y0074696D02*
X0026591Y0081330D01*
X0026512Y0081408D01*
X0021669Y0081251D02*
X0021512Y0081408D01*
X0021669Y0081251D02*
X0021669Y0074696D01*
X0055528Y0067019D02*
X0055528Y0064656D01*
X0050409Y0045759D02*
X0028756Y0045759D01*
X0064484Y0038278D02*
X0068913Y0038278D01*
X0072654Y0042019D01*
X0085055Y0042019D01*
X0088795Y0038278D01*
X0090961Y0038278D01*
X0084858Y0026467D02*
X0078953Y0032373D01*
X0076591Y0030011D01*
X0068913Y0030011D01*
X0068913Y0022530D02*
X0066551Y0022530D01*
X0068894Y0022511D02*
X0068913Y0022530D01*
X0078894Y0021290D02*
X0078953Y0021349D01*
X0078894Y0021290D02*
X0078894Y0010011D01*
X0058894Y0010011D02*
X0058638Y0010267D01*
X0084858Y0026467D02*
X0086827Y0026467D01*
X0108874Y0031585D02*
X0108894Y0018180D01*
X0108894Y0010011D01*
X0118894Y0010011D02*
X0118894Y0018377D01*
X0118913Y0018003D01*
X0128894Y0010011D02*
X0128953Y0010070D01*
X0138894Y0010011D02*
X0138894Y0022038D01*
X0138992Y0022530D01*
X0138992Y0030011D02*
X0138992Y0038278D01*
X0138992Y0045759D02*
X0131906Y0045759D01*
X0129740Y0047924D01*
X0129740Y0059341D01*
X0138402Y0054814D02*
X0133677Y0050089D01*
X0138992Y0045759D02*
X0148835Y0045759D01*
X0148835Y0054814D01*
X0148835Y0045759D02*
X0158874Y0045759D01*
X0168913Y0045759D01*
X0173244Y0045759D01*
X0178894Y0040109D01*
X0178894Y0010011D01*
X0168894Y0010011D02*
X0168894Y0022117D01*
X0168913Y0022530D01*
X0168913Y0030011D02*
X0168913Y0038278D01*
X0158874Y0038278D02*
X0158874Y0030011D01*
X0158874Y0022530D02*
X0158894Y0022117D01*
X0158894Y0010011D01*
X0148894Y0010011D02*
X0148894Y0022078D01*
X0148835Y0022530D01*
X0148835Y0030011D02*
X0148835Y0038278D01*
X0138992Y0054814D02*
X0138402Y0054814D01*
X0124819Y0067609D02*
X0120094Y0062885D01*
X0114583Y0062885D01*
X0108874Y0057176D01*
X0103953Y0057176D01*
X0116354Y0054223D02*
X0116354Y0043790D01*
X0113992Y0041428D01*
X0120094Y0062885D02*
X0120094Y0067806D01*
X0139780Y0078757D02*
X0139780Y0086507D01*
X0139780Y0078757D02*
X0139819Y0078718D01*
X0198441Y0089263D02*
X0198441Y0095365D01*
X0198441Y0102845D02*
X0198441Y0114853D01*
X0196472Y0030109D02*
X0192732Y0030109D01*
X0026512Y0109755D02*
X0026512Y0119499D01*
X0026984Y0119971D01*
X0021512Y0117570D02*
X0021512Y0109755D01*
X0021512Y0117570D02*
X0018913Y0119971D01*
X0018520Y0138869D02*
X0018520Y0147491D01*
X0018500Y0147511D01*
X0008500Y0147511D02*
X0008480Y0147491D01*
X0008480Y0138869D01*
D27*
X0041551Y0100483D03*
X0028953Y0092806D03*
X0046472Y0088278D03*
X0080528Y0083751D03*
X0081512Y0108554D03*
X0114386Y0128239D03*
X0128559Y0091428D03*
X0149819Y0086507D03*
X0171866Y0069184D03*
X0181118Y0048318D03*
X0128953Y0018003D03*
X0009268Y0051270D03*
X0195291Y0122924D03*
D28*
X0195291Y0127550D01*
X0179346Y0107963D02*
X0181315Y0105995D01*
X0183874Y0105995D01*
X0174012Y0098515D02*
X0174012Y0090463D01*
X0188992Y0078022D02*
X0188992Y0072530D01*
X0180961Y0064499D01*
X0181118Y0054656D02*
X0181118Y0048318D01*
X0127575Y0063869D02*
X0124819Y0061113D01*
X0124819Y0055207D01*
X0123835Y0054223D01*
X0127575Y0063869D02*
X0127575Y0065050D01*
X0080528Y0083751D02*
X0078165Y0081389D01*
X0071531Y0081389D01*
X0055528Y0067019D02*
X0046472Y0076074D01*
X0046472Y0081369D01*
X0046512Y0081408D02*
X0046512Y0088239D01*
X0041551Y0100483D02*
X0041551Y0109715D01*
X0016512Y0109755D02*
X0016512Y0092648D01*
X0016512Y0092058D02*
X0016512Y0081408D01*
X0016512Y0109755D02*
X0008677Y0117589D01*
X0008677Y0126270D01*
X0015961Y0133554D01*
X0018717Y0133554D01*
X0028500Y0143337D01*
X0028500Y0147530D01*
D29*
X0018520Y0138869D03*
X0008480Y0138869D03*
X0056512Y0103239D03*
X0060449Y0099696D03*
X0081906Y0078633D03*
X0081906Y0070759D03*
X0096866Y0064656D03*
X0073638Y0049696D03*
X0064189Y0050680D03*
X0051984Y0050680D03*
X0050409Y0045759D03*
X0045685Y0035326D03*
X0063008Y0033554D03*
X0058677Y0018003D03*
X0048835Y0018003D03*
X0038795Y0018003D03*
X0023835Y0023711D03*
X0008874Y0018003D03*
X0015370Y0051074D03*
X0021669Y0074696D03*
X0026591Y0074696D03*
X0031512Y0074696D03*
X0061433Y0072137D03*
X0085055Y0042019D03*
X0093126Y0030011D03*
X0086827Y0026467D03*
X0108874Y0031585D03*
X0113992Y0041428D03*
X0133677Y0050089D03*
X0129740Y0059341D03*
X0127575Y0065050D03*
X0134858Y0069184D03*
X0144504Y0068790D03*
X0151984Y0068987D03*
X0139780Y0086507D03*
X0156315Y0091231D03*
X0174031Y0090444D03*
X0176394Y0085129D03*
X0186630Y0089263D03*
X0198441Y0089263D03*
X0193126Y0072530D03*
X0190173Y0048121D03*
X0118913Y0018003D03*
X0119701Y0087097D03*
X0111039Y0095168D03*
X0134858Y0113869D03*
X0139780Y0110326D03*
X0138795Y0122333D03*
X0122260Y0117412D03*
X0153953Y0140444D03*
X0164189Y0140444D03*
X0174031Y0140444D03*
X0183874Y0140444D03*
X0183874Y0105995D03*
X0167535Y0105601D03*
X0101984Y0147530D03*
X0067339Y0138081D03*
M02*
