G75*
%MOIN*%
%OFA0B0*%
%FSLAX25Y25*%
%IPPOS*%
%LPD*%
%AMOC8*
5,1,8,0,0,1.08239X$1,22.5*
%
%ADD10C,0.05524*%
%ADD11R,0.06706X0.05918*%
%ADD12C,0.06737*%
D10*
X0008835Y0005370D03*
X0018835Y0005370D03*
X0028835Y0005370D03*
X0038835Y0005370D03*
X0048835Y0005370D03*
X0058835Y0005370D03*
X0068835Y0005370D03*
X0078835Y0005370D03*
X0088835Y0005370D03*
X0098835Y0005370D03*
X0108835Y0005370D03*
X0118835Y0005370D03*
X0128835Y0005370D03*
X0138835Y0005370D03*
X0148835Y0005370D03*
X0158835Y0005370D03*
X0168835Y0005370D03*
X0178835Y0005370D03*
X0188835Y0005370D03*
X0198835Y0005370D03*
X0198835Y0152929D03*
X0188835Y0152929D03*
X0178835Y0152929D03*
X0168835Y0152929D03*
X0158835Y0152929D03*
X0148835Y0152929D03*
X0138835Y0152929D03*
X0128835Y0152929D03*
X0118835Y0152929D03*
X0108835Y0152929D03*
D11*
X0138795Y0135843D03*
X0138795Y0128362D03*
X0149031Y0118323D03*
X0149031Y0110843D03*
X0161630Y0110843D03*
X0161630Y0118323D03*
X0158874Y0128362D03*
X0158874Y0135843D03*
X0169110Y0135843D03*
X0169110Y0128362D03*
X0066925Y0100843D03*
X0066925Y0093362D03*
X0061256Y0120252D03*
X0052161Y0120331D03*
X0052161Y0127811D03*
X0061256Y0127732D03*
X0021433Y0100744D03*
X0021433Y0093264D03*
X0021669Y0064976D03*
X0021669Y0057496D03*
X0029898Y0057496D03*
X0029898Y0064976D03*
X0038165Y0064976D03*
X0038165Y0057496D03*
X0038205Y0045882D03*
X0038205Y0038402D03*
X0029937Y0038205D03*
X0021669Y0038402D03*
X0021669Y0045882D03*
X0029937Y0030724D03*
D12*
X0071650Y0123480D03*
X0091335Y0123480D03*
M02*
