G75*
%MOIN*%
%OFA0B0*%
%FSLAX25Y25*%
%IPPOS*%
%LPD*%
%AMOC8*
5,1,8,0,0,1.08239X$1,22.5*
%
%ADD10R,0.06693X0.08661*%
%ADD11R,0.07087X0.06102*%
%ADD12R,0.01772X0.07087*%
%ADD13R,0.05906X0.05118*%
%ADD14R,0.09449X0.06299*%
%ADD15R,0.02600X0.08000*%
%ADD16C,0.05937*%
%ADD17R,0.05000X0.10000*%
%ADD18R,0.03937X0.05512*%
%ADD19R,0.06299X0.09449*%
%ADD20R,0.02362X0.08661*%
%ADD21R,0.08661X0.06299*%
%ADD22R,0.10630X0.06299*%
%ADD23R,0.01575X0.03543*%
%ADD24R,0.03543X0.01575*%
%ADD25C,0.01575*%
%ADD26C,0.02756*%
%ADD27C,0.01181*%
%ADD28R,0.03962X0.03962*%
%ADD29C,0.01969*%
%ADD30C,0.03962*%
D10*
X0071669Y0123441D03*
X0091354Y0123441D03*
D11*
X0008874Y0005035D03*
X0018913Y0005035D03*
X0028953Y0005035D03*
X0038795Y0005035D03*
X0048835Y0005035D03*
X0058874Y0005035D03*
X0068913Y0005035D03*
X0078953Y0005035D03*
X0088992Y0005035D03*
X0098835Y0005035D03*
X0108874Y0005035D03*
X0118913Y0005035D03*
X0128953Y0005035D03*
X0138795Y0005035D03*
X0148835Y0005035D03*
X0158874Y0005035D03*
X0168913Y0005035D03*
X0178953Y0005035D03*
X0188795Y0005035D03*
X0198835Y0005035D03*
X0198835Y0153461D03*
X0188795Y0153461D03*
X0178953Y0153461D03*
X0168913Y0153461D03*
X0158874Y0153461D03*
X0148835Y0153461D03*
X0138795Y0153461D03*
X0128953Y0153461D03*
X0118913Y0153461D03*
X0108874Y0153461D03*
D12*
X0071512Y0110075D03*
X0066512Y0110075D03*
X0061512Y0110075D03*
X0056512Y0110075D03*
X0051512Y0110075D03*
X0046512Y0110075D03*
X0041512Y0110075D03*
X0036512Y0110075D03*
X0031512Y0110075D03*
X0026512Y0110075D03*
X0021512Y0110075D03*
X0016512Y0110075D03*
X0016512Y0081728D03*
X0021512Y0081728D03*
X0026512Y0081728D03*
X0031512Y0081728D03*
X0036512Y0081728D03*
X0041512Y0081728D03*
X0046512Y0081728D03*
X0051512Y0081728D03*
X0056512Y0081728D03*
X0061512Y0081728D03*
X0066512Y0081728D03*
X0071512Y0081728D03*
D13*
X0073047Y0064976D03*
X0073047Y0057496D03*
X0081906Y0057496D03*
X0081906Y0064976D03*
X0090567Y0064976D03*
X0090567Y0057496D03*
X0103953Y0057496D03*
X0103953Y0064976D03*
X0099031Y0046079D03*
X0090961Y0046079D03*
X0090961Y0038598D03*
X0099031Y0038598D03*
X0099031Y0030331D03*
X0099031Y0022850D03*
X0068913Y0022850D03*
X0068913Y0030331D03*
X0064189Y0057496D03*
X0064189Y0064976D03*
X0055528Y0064976D03*
X0055528Y0057496D03*
X0046669Y0057496D03*
X0046669Y0064976D03*
X0037811Y0064976D03*
X0037811Y0057496D03*
X0024228Y0057496D03*
X0024228Y0064976D03*
X0028756Y0046079D03*
X0018913Y0046079D03*
X0018913Y0038598D03*
X0028756Y0038598D03*
X0026984Y0120291D03*
X0018913Y0120291D03*
X0018913Y0127772D03*
X0026984Y0127772D03*
X0035055Y0127772D03*
X0043106Y0127811D03*
X0043106Y0120331D03*
X0035055Y0120291D03*
X0138992Y0062614D03*
X0138992Y0055134D03*
X0138992Y0046079D03*
X0138992Y0038598D03*
X0138992Y0030331D03*
X0138992Y0022850D03*
X0148835Y0022850D03*
X0148835Y0030331D03*
X0148835Y0038598D03*
X0148835Y0046079D03*
X0148835Y0055134D03*
X0148835Y0062614D03*
X0162614Y0062614D03*
X0171866Y0062614D03*
X0180961Y0062614D03*
X0180961Y0055134D03*
X0171866Y0055134D03*
X0162614Y0055134D03*
X0158874Y0046079D03*
X0158874Y0038598D03*
X0158874Y0030331D03*
X0158874Y0022850D03*
X0168913Y0022850D03*
X0178894Y0022850D03*
X0178894Y0030331D03*
X0168913Y0030331D03*
X0168913Y0038598D03*
X0168913Y0046079D03*
X0190173Y0055134D03*
X0199228Y0055134D03*
X0199228Y0062614D03*
X0190173Y0062614D03*
X0161630Y0076787D03*
X0161630Y0084268D03*
X0161630Y0095685D03*
X0161630Y0103165D03*
X0161630Y0110843D03*
X0161630Y0118323D03*
X0158874Y0128362D03*
X0158874Y0135843D03*
X0149031Y0135843D03*
X0149031Y0128362D03*
X0169110Y0128362D03*
X0178953Y0128362D03*
X0178953Y0135843D03*
X0169110Y0135843D03*
X0198441Y0103165D03*
X0198441Y0095685D03*
D14*
X0081492Y0090606D03*
X0081492Y0102417D03*
X0009228Y0069858D03*
X0009228Y0058047D03*
D15*
X0119819Y0079038D03*
X0124819Y0079038D03*
X0129819Y0079038D03*
X0134819Y0079038D03*
X0139819Y0079038D03*
X0144819Y0079038D03*
X0149819Y0079038D03*
X0149819Y0103238D03*
X0144819Y0103238D03*
X0139819Y0103238D03*
X0134819Y0103238D03*
X0129819Y0103238D03*
X0124819Y0103238D03*
X0119819Y0103238D03*
D16*
X0091335Y0123480D03*
X0071650Y0123480D03*
D17*
X0108894Y0147831D03*
X0118894Y0147831D03*
X0128894Y0147831D03*
X0138894Y0147831D03*
X0148894Y0147831D03*
X0158894Y0147831D03*
X0168894Y0147831D03*
X0178894Y0147831D03*
X0188894Y0147831D03*
X0198894Y0147831D03*
X0028500Y0147850D03*
X0018500Y0147831D03*
X0008500Y0147831D03*
X0008894Y0010331D03*
X0018894Y0010331D03*
X0028894Y0010331D03*
X0038894Y0010331D03*
X0048894Y0010331D03*
X0058894Y0010331D03*
X0068894Y0010331D03*
X0078894Y0010331D03*
X0088894Y0010331D03*
X0098894Y0010331D03*
X0108894Y0010331D03*
X0118894Y0010331D03*
X0128894Y0010331D03*
X0138894Y0010331D03*
X0148894Y0010331D03*
X0158894Y0010331D03*
X0168894Y0010331D03*
X0178894Y0010331D03*
X0188894Y0010331D03*
X0198894Y0010331D03*
D18*
X0123835Y0054543D03*
X0116354Y0054543D03*
X0120094Y0063205D03*
X0171669Y0111039D03*
X0179150Y0111039D03*
X0175409Y0119701D03*
D19*
X0186630Y0115173D03*
X0198441Y0115173D03*
D20*
X0189012Y0098835D03*
X0184012Y0098835D03*
X0179012Y0098835D03*
X0174012Y0098835D03*
X0174012Y0078362D03*
X0179012Y0078362D03*
X0184012Y0078362D03*
X0189012Y0078362D03*
D21*
X0101787Y0117732D03*
X0101787Y0128756D03*
D22*
X0078953Y0032693D03*
X0078953Y0021669D03*
D23*
X0188992Y0021177D03*
X0192732Y0021177D03*
X0196472Y0021177D03*
X0196472Y0030429D03*
X0192732Y0030429D03*
X0188992Y0030429D03*
X0191551Y0127870D03*
X0195291Y0127870D03*
X0199031Y0127870D03*
X0199031Y0137122D03*
X0191551Y0137122D03*
D24*
X0073736Y0046079D03*
X0073736Y0038598D03*
X0064484Y0038598D03*
X0064484Y0042339D03*
X0064484Y0046079D03*
D25*
X0046512Y0088559D02*
X0046472Y0088598D01*
X0041551Y0110035D02*
X0041512Y0110075D01*
X0016748Y0092732D02*
X0016512Y0092969D01*
X0016453Y0092437D02*
X0016512Y0092378D01*
X0174012Y0098835D02*
X0174012Y0105902D01*
X0179150Y0111039D01*
D26*
X0158874Y0135843D02*
X0158894Y0135862D01*
X0158894Y0147831D01*
X0153953Y0140764D02*
X0158657Y0135862D01*
X0119819Y0103238D02*
X0105324Y0117732D01*
X0101787Y0117732D01*
X0103559Y0117732D01*
X0114386Y0128559D01*
X0101787Y0117732D02*
X0086472Y0102417D01*
X0083244Y0102417D01*
X0081492Y0102417D02*
X0072201Y0093126D01*
X0028953Y0093126D01*
X0017142Y0093126D01*
X0016748Y0092732D01*
X0016453Y0092437D01*
X0009228Y0085213D01*
X0009228Y0069858D01*
X0009228Y0058047D02*
X0009268Y0058008D01*
X0009268Y0051591D01*
X0009268Y0042929D01*
X0013598Y0038598D01*
X0018913Y0038598D01*
X0028756Y0038598D01*
X0018913Y0038598D02*
X0018894Y0038579D01*
X0018894Y0010331D01*
X0068894Y0010331D02*
X0068894Y0022831D01*
X0099031Y0046079D02*
X0099031Y0051394D01*
X0093126Y0057299D01*
X0090764Y0057299D01*
X0090567Y0057496D01*
X0081906Y0057496D01*
X0073047Y0057496D01*
X0069307Y0057496D01*
X0064189Y0057496D01*
X0055528Y0057496D01*
X0046669Y0057496D01*
X0080528Y0084071D02*
X0080528Y0089642D01*
X0081492Y0090606D01*
X0082122Y0089976D01*
X0112811Y0089976D01*
X0114583Y0091748D01*
X0128559Y0091748D01*
X0144898Y0091748D01*
X0149819Y0086827D01*
X0149819Y0079038D01*
X0162614Y0062614D02*
X0171866Y0062614D01*
X0180961Y0062614D01*
X0190173Y0062614D01*
X0199228Y0062614D01*
X0180961Y0055134D02*
X0171866Y0055134D01*
X0171866Y0062614D02*
X0171866Y0069504D01*
X0128953Y0018323D02*
X0101197Y0046079D01*
X0099031Y0046079D01*
X0128953Y0018323D02*
X0128953Y0010390D01*
X0081492Y0102417D02*
X0081492Y0108854D01*
D27*
X0081512Y0108874D01*
X0081492Y0102417D02*
X0083244Y0102417D01*
X0081492Y0090606D02*
X0081492Y0085035D01*
X0080528Y0084071D01*
X0081906Y0078953D02*
X0082778Y0079038D01*
X0119819Y0079038D01*
X0119819Y0085528D01*
X0119701Y0087417D01*
X0120882Y0095488D02*
X0111039Y0095488D01*
X0120882Y0095488D02*
X0124819Y0099425D01*
X0124819Y0103238D01*
X0129819Y0103238D02*
X0134819Y0103238D01*
X0139819Y0103238D02*
X0139819Y0110685D01*
X0139780Y0110646D01*
X0134858Y0114189D02*
X0157496Y0114189D01*
X0161630Y0118323D01*
X0163992Y0123244D02*
X0158480Y0123244D01*
X0152969Y0117732D01*
X0122260Y0117732D01*
X0138795Y0122654D02*
X0143126Y0122654D01*
X0149031Y0128362D01*
X0158874Y0128362D01*
X0163992Y0123244D02*
X0169110Y0128362D01*
X0178953Y0128362D02*
X0182102Y0128362D01*
X0183677Y0129937D01*
X0183677Y0140370D01*
X0183874Y0140764D01*
X0186039Y0137024D02*
X0188795Y0139780D01*
X0188795Y0147732D01*
X0188894Y0147831D01*
X0178953Y0147772D02*
X0178953Y0145882D01*
X0174031Y0140961D01*
X0174031Y0140764D01*
X0169110Y0145685D02*
X0169110Y0135843D01*
X0164189Y0140764D02*
X0169110Y0145685D01*
X0169110Y0147614D01*
X0168894Y0147831D01*
X0178894Y0147831D02*
X0178953Y0147772D01*
X0178953Y0145882D02*
X0178953Y0135843D01*
X0186039Y0137024D02*
X0186039Y0126591D01*
X0179150Y0119701D01*
X0175409Y0119701D01*
X0171669Y0111039D02*
X0171472Y0110843D01*
X0161630Y0110843D01*
X0167535Y0105921D02*
X0164583Y0103165D01*
X0161630Y0103165D01*
X0149891Y0103165D01*
X0149819Y0103238D01*
X0144898Y0103159D02*
X0144819Y0103238D01*
X0144898Y0103159D02*
X0144898Y0097654D01*
X0146866Y0095685D01*
X0161630Y0095685D01*
X0161630Y0084268D01*
X0156315Y0079740D02*
X0156315Y0091551D01*
X0156315Y0079740D02*
X0159268Y0076787D01*
X0161630Y0076787D01*
X0156709Y0071866D01*
X0156709Y0058087D01*
X0159661Y0055134D01*
X0162614Y0055134D01*
X0158874Y0046079D02*
X0148835Y0046079D01*
X0148835Y0055134D01*
X0148835Y0062614D02*
X0138992Y0062614D01*
X0135252Y0062614D01*
X0130331Y0067535D01*
X0130331Y0078526D01*
X0129819Y0079038D01*
X0134819Y0079038D02*
X0134858Y0078998D01*
X0134858Y0069504D01*
X0144504Y0069110D02*
X0144504Y0078723D01*
X0144819Y0079038D01*
X0144898Y0078959D01*
X0139819Y0079038D02*
X0139780Y0079077D01*
X0139780Y0086827D01*
X0124819Y0079038D02*
X0124819Y0067929D01*
X0120094Y0063205D01*
X0114583Y0063205D01*
X0108874Y0057496D01*
X0103953Y0057496D01*
X0103953Y0064976D02*
X0097850Y0071079D01*
X0081906Y0071079D01*
X0081906Y0064976D01*
X0073047Y0064976D01*
X0069307Y0057496D02*
X0069110Y0057299D01*
X0069110Y0042339D01*
X0064484Y0042339D01*
X0061630Y0042339D01*
X0058677Y0039386D01*
X0058677Y0035646D01*
X0045685Y0035646D01*
X0035252Y0035646D01*
X0023835Y0024031D01*
X0038795Y0018323D02*
X0038795Y0010429D01*
X0038894Y0010331D01*
X0048795Y0010429D02*
X0048795Y0018283D01*
X0048835Y0018323D01*
X0048795Y0010429D02*
X0048894Y0010331D01*
X0058638Y0010587D02*
X0058638Y0018283D01*
X0058677Y0018323D01*
X0066551Y0022850D02*
X0058677Y0030724D01*
X0058677Y0035646D01*
X0063008Y0033874D02*
X0064189Y0035055D01*
X0068717Y0035055D01*
X0072260Y0038598D01*
X0073736Y0038598D01*
X0083480Y0038598D01*
X0086433Y0035646D01*
X0086433Y0032102D01*
X0091551Y0026984D01*
X0091551Y0024819D01*
X0088894Y0022161D01*
X0088894Y0010331D01*
X0098894Y0010331D02*
X0098894Y0022713D01*
X0099031Y0022850D01*
X0099031Y0030331D02*
X0093126Y0030331D01*
X0099031Y0030331D02*
X0099031Y0038598D01*
X0097457Y0044701D02*
X0099031Y0046079D01*
X0090961Y0046079D02*
X0073736Y0046079D01*
X0073736Y0049917D01*
X0073638Y0050016D01*
X0072654Y0042339D02*
X0068913Y0038598D01*
X0064484Y0038598D01*
X0072654Y0042339D02*
X0085055Y0042339D01*
X0088795Y0038598D01*
X0090961Y0038598D01*
X0084858Y0026787D02*
X0078953Y0032693D01*
X0076591Y0030331D01*
X0068913Y0030331D01*
X0068913Y0022850D02*
X0066551Y0022850D01*
X0068894Y0022831D02*
X0068913Y0022850D01*
X0078894Y0021610D02*
X0078953Y0021669D01*
X0078894Y0021610D02*
X0078894Y0010331D01*
X0058894Y0010331D02*
X0058638Y0010587D01*
X0084858Y0026787D02*
X0086827Y0026787D01*
X0108874Y0031906D02*
X0108894Y0018500D01*
X0108894Y0010331D01*
X0118894Y0010331D02*
X0118894Y0017417D01*
X0118913Y0018323D01*
X0128894Y0010331D02*
X0128953Y0010390D01*
X0138894Y0010331D02*
X0138894Y0022358D01*
X0138992Y0022850D01*
X0138992Y0030331D02*
X0138992Y0038598D01*
X0138992Y0046079D02*
X0131906Y0046079D01*
X0129740Y0048244D01*
X0129740Y0054346D01*
X0130528Y0055134D01*
X0138992Y0055134D01*
X0129740Y0054346D02*
X0129740Y0059661D01*
X0120094Y0063205D02*
X0120094Y0068126D01*
X0113402Y0074819D01*
X0074031Y0074819D01*
X0064189Y0064976D01*
X0055528Y0064976D02*
X0055528Y0067339D01*
X0061433Y0072457D02*
X0061433Y0081650D01*
X0061512Y0081728D01*
X0071512Y0081728D02*
X0071531Y0081709D01*
X0090567Y0064976D02*
X0096866Y0064976D01*
X0116354Y0054543D02*
X0116354Y0044110D01*
X0113992Y0041748D01*
X0138992Y0046079D02*
X0148835Y0046079D01*
X0148835Y0038598D02*
X0148835Y0030331D01*
X0148835Y0022850D02*
X0148894Y0022398D01*
X0148894Y0010331D01*
X0158894Y0010331D02*
X0158894Y0022437D01*
X0158874Y0022850D01*
X0158874Y0030331D02*
X0158874Y0038598D01*
X0158874Y0046079D02*
X0168913Y0046079D01*
X0173244Y0046079D01*
X0178894Y0040429D01*
X0178894Y0030331D01*
X0168913Y0030331D02*
X0168913Y0038598D01*
X0188992Y0030429D02*
X0196472Y0030429D01*
X0196472Y0052772D01*
X0199228Y0055134D01*
X0190173Y0055134D02*
X0190173Y0048441D01*
X0181118Y0054976D02*
X0180961Y0055134D01*
X0180961Y0062614D02*
X0180961Y0064819D01*
X0193126Y0072850D02*
X0193126Y0118717D01*
X0191551Y0120291D01*
X0191551Y0127870D01*
X0191748Y0128067D01*
X0191748Y0130331D01*
X0198539Y0137122D01*
X0199031Y0137122D01*
X0198894Y0144465D02*
X0191551Y0137122D01*
X0188992Y0134366D01*
X0188992Y0124622D01*
X0186630Y0122457D01*
X0186630Y0115173D01*
X0179346Y0110843D02*
X0179150Y0111039D01*
X0179346Y0110843D02*
X0179346Y0108283D01*
X0179012Y0098835D02*
X0178953Y0098776D01*
X0178953Y0088008D01*
X0176394Y0085449D01*
X0174031Y0090764D02*
X0174012Y0090783D01*
X0184071Y0092142D02*
X0184071Y0098776D01*
X0184012Y0098835D01*
X0189012Y0098835D01*
X0184071Y0092142D02*
X0186630Y0089583D01*
X0198441Y0089583D02*
X0198441Y0095685D01*
X0198441Y0103165D02*
X0198441Y0115173D01*
X0204150Y0122752D02*
X0204150Y0023835D01*
X0201492Y0021177D01*
X0196472Y0021177D01*
X0192732Y0021177D02*
X0192732Y0018126D01*
X0198894Y0011965D01*
X0198894Y0010331D01*
X0188894Y0010331D02*
X0188894Y0021079D01*
X0188992Y0021177D01*
X0178894Y0022850D02*
X0178894Y0010331D01*
X0168894Y0010331D02*
X0168894Y0022437D01*
X0168913Y0022850D01*
X0192732Y0030429D02*
X0196472Y0030429D01*
X0148835Y0062614D02*
X0148835Y0066157D01*
X0151984Y0069307D01*
X0179012Y0078362D02*
X0184012Y0078362D01*
X0188992Y0078343D02*
X0189012Y0078362D01*
X0204150Y0122752D02*
X0199031Y0127870D01*
X0198894Y0144465D02*
X0198894Y0147831D01*
X0158894Y0135862D02*
X0158657Y0135862D01*
X0149031Y0135843D02*
X0148894Y0135980D01*
X0148894Y0147831D01*
X0149031Y0147693D01*
X0138992Y0147732D02*
X0138992Y0144110D01*
X0129150Y0134268D01*
X0101197Y0134268D01*
X0093520Y0141945D01*
X0040173Y0141945D01*
X0035055Y0136827D01*
X0035055Y0127772D01*
X0043106Y0127811D02*
X0043106Y0135626D01*
X0045882Y0138402D01*
X0067339Y0138402D01*
X0071650Y0123480D02*
X0071610Y0123441D01*
X0059661Y0123441D01*
X0051512Y0115291D01*
X0051512Y0110075D01*
X0056512Y0110075D02*
X0056512Y0103559D01*
X0060449Y0100016D02*
X0061512Y0101079D01*
X0061512Y0110075D01*
X0043106Y0120331D02*
X0036512Y0113736D01*
X0036512Y0110075D01*
X0031512Y0110075D02*
X0031512Y0116748D01*
X0035055Y0120291D01*
X0026984Y0120291D02*
X0026512Y0119819D01*
X0026512Y0110075D01*
X0021512Y0110075D02*
X0021512Y0117890D01*
X0018913Y0120291D01*
X0018913Y0127772D02*
X0019110Y0129150D01*
X0037811Y0147850D01*
X0095882Y0147850D01*
X0103165Y0140567D01*
X0115567Y0140567D01*
X0119701Y0144701D01*
X0119701Y0147024D01*
X0118894Y0147831D01*
X0128894Y0147831D02*
X0128953Y0147772D01*
X0128953Y0144110D01*
X0122260Y0137417D01*
X0102575Y0137417D01*
X0095094Y0144898D01*
X0038795Y0144898D01*
X0026984Y0133087D01*
X0026984Y0127772D01*
X0018520Y0139189D02*
X0018520Y0147811D01*
X0018500Y0147831D01*
X0008500Y0147831D02*
X0008480Y0147811D01*
X0008480Y0139189D01*
X0021512Y0081728D02*
X0021669Y0081571D01*
X0021669Y0075016D01*
X0026591Y0075016D02*
X0026591Y0081650D01*
X0026512Y0081728D01*
X0031512Y0081728D02*
X0031512Y0075016D01*
X0037811Y0073047D02*
X0041551Y0076787D01*
X0041551Y0081689D01*
X0041512Y0081728D01*
X0046472Y0081689D02*
X0046512Y0081728D01*
X0037811Y0073047D02*
X0037811Y0064976D01*
X0045291Y0064976D02*
X0037811Y0057496D01*
X0030331Y0064976D01*
X0024228Y0064976D01*
X0024228Y0057496D02*
X0021472Y0057496D01*
X0015370Y0051394D01*
X0018913Y0046079D02*
X0023835Y0051000D01*
X0051984Y0051000D01*
X0050409Y0046079D02*
X0028756Y0046079D01*
X0045291Y0064976D02*
X0046669Y0064976D01*
X0064189Y0051000D02*
X0064189Y0046374D01*
X0064484Y0046079D01*
X0008874Y0018323D02*
X0008894Y0010331D01*
X0009268Y0010705D01*
X0091335Y0123480D02*
X0096512Y0123480D01*
X0101787Y0128756D01*
X0101984Y0147850D02*
X0108874Y0147850D01*
X0108894Y0147831D01*
X0138894Y0147831D02*
X0138992Y0147732D01*
X0138894Y0147831D02*
X0138894Y0147555D01*
D28*
X0114386Y0128559D03*
X0081512Y0108874D03*
X0080528Y0084071D03*
X0046472Y0088598D03*
X0041551Y0100803D03*
X0028953Y0093126D03*
X0009268Y0051591D03*
X0128953Y0018323D03*
X0181118Y0048638D03*
X0171866Y0069504D03*
X0149819Y0086827D03*
X0128559Y0091748D03*
X0195291Y0123244D03*
D29*
X0195291Y0127870D01*
X0179346Y0108283D02*
X0181315Y0106315D01*
X0183874Y0106315D01*
X0174012Y0098835D02*
X0174012Y0090783D01*
X0188992Y0078343D02*
X0188992Y0072850D01*
X0180961Y0064819D01*
X0181118Y0054976D02*
X0181118Y0048638D01*
X0127575Y0064189D02*
X0124819Y0061433D01*
X0124819Y0055528D01*
X0123835Y0054543D01*
X0127575Y0064189D02*
X0127575Y0065370D01*
X0080528Y0084071D02*
X0078165Y0081709D01*
X0071531Y0081709D01*
X0055528Y0067339D02*
X0046472Y0076394D01*
X0046472Y0081689D01*
X0046512Y0081728D02*
X0046512Y0088559D01*
X0041551Y0100803D02*
X0041551Y0110035D01*
X0016512Y0110075D02*
X0016512Y0092969D01*
X0016512Y0092378D02*
X0016512Y0081728D01*
X0016512Y0110075D02*
X0008677Y0117909D01*
X0008677Y0126591D01*
X0015961Y0133874D01*
X0018717Y0133874D01*
X0028500Y0143657D01*
X0028500Y0147850D01*
D30*
X0018520Y0139189D03*
X0008480Y0139189D03*
X0056512Y0103559D03*
X0060449Y0100016D03*
X0081906Y0078953D03*
X0081906Y0071079D03*
X0096866Y0064976D03*
X0073638Y0050016D03*
X0064189Y0051000D03*
X0051984Y0051000D03*
X0050409Y0046079D03*
X0045685Y0035646D03*
X0063008Y0033874D03*
X0058677Y0018323D03*
X0048835Y0018323D03*
X0038795Y0018323D03*
X0023835Y0024031D03*
X0008874Y0018323D03*
X0015370Y0051394D03*
X0021669Y0075016D03*
X0026591Y0075016D03*
X0031512Y0075016D03*
X0061433Y0072457D03*
X0085055Y0042339D03*
X0093126Y0030331D03*
X0086827Y0026787D03*
X0108874Y0031906D03*
X0113992Y0041748D03*
X0129740Y0059661D03*
X0127575Y0065370D03*
X0134858Y0069504D03*
X0144504Y0069110D03*
X0151984Y0069307D03*
X0139780Y0086827D03*
X0156315Y0091551D03*
X0174031Y0090764D03*
X0176394Y0085449D03*
X0186630Y0089583D03*
X0198441Y0089583D03*
X0193126Y0072850D03*
X0190173Y0048441D03*
X0118913Y0018323D03*
X0119701Y0087417D03*
X0111039Y0095488D03*
X0134858Y0114189D03*
X0139780Y0110646D03*
X0138795Y0122654D03*
X0122260Y0117732D03*
X0153953Y0140764D03*
X0164189Y0140764D03*
X0174031Y0140764D03*
X0183874Y0140764D03*
X0183874Y0106315D03*
X0167535Y0105921D03*
X0101984Y0147850D03*
X0067339Y0138402D03*
M02*
