G75*
%MOIN*%
%OFA0B0*%
%FSLAX25Y25*%
%IPPOS*%
%LPD*%
%AMOC8*
5,1,8,0,0,1.08239X$1,22.5*
%
%ADD10C,0.00600*%
%ADD11C,0.00500*%
%ADD12C,0.00400*%
%ADD13C,0.00394*%
%ADD14C,0.00300*%
D10*
X0133018Y0015153D02*
X0137872Y0015153D01*
X0140268Y0015153D02*
X0145122Y0015153D01*
X0140268Y0020007D01*
X0140268Y0021220D01*
X0141482Y0022433D01*
X0143909Y0022433D01*
X0145122Y0021220D01*
X0147519Y0021220D02*
X0152372Y0016367D01*
X0151159Y0015153D01*
X0148732Y0015153D01*
X0147519Y0016367D01*
X0147519Y0021220D01*
X0148732Y0022433D01*
X0151159Y0022433D01*
X0152372Y0021220D01*
X0152372Y0016367D01*
X0154769Y0015153D02*
X0159622Y0015153D01*
X0154769Y0020007D01*
X0154769Y0021220D01*
X0155982Y0022433D01*
X0158409Y0022433D01*
X0159622Y0021220D01*
X0169270Y0021220D02*
X0170483Y0022433D01*
X0172910Y0022433D01*
X0174123Y0021220D01*
X0174123Y0016367D01*
X0172910Y0015153D01*
X0170483Y0015153D01*
X0169270Y0016367D01*
X0176520Y0016367D02*
X0177733Y0015153D01*
X0180160Y0015153D01*
X0181373Y0016367D01*
X0183770Y0016367D02*
X0183770Y0017580D01*
X0184983Y0018793D01*
X0188624Y0018793D01*
X0191020Y0018793D02*
X0192234Y0017580D01*
X0195874Y0017580D01*
X0193447Y0017580D02*
X0191020Y0015153D01*
X0188624Y0015153D02*
X0184983Y0015153D01*
X0183770Y0016367D01*
X0184983Y0018793D02*
X0183770Y0020007D01*
X0183770Y0021220D01*
X0184983Y0022433D01*
X0188624Y0022433D01*
X0188624Y0015153D01*
X0191020Y0018793D02*
X0191020Y0021220D01*
X0192234Y0022433D01*
X0195874Y0022433D01*
X0195874Y0015153D01*
X0181373Y0020007D02*
X0180160Y0018793D01*
X0177733Y0018793D01*
X0176520Y0017580D01*
X0176520Y0016367D01*
X0176520Y0021220D02*
X0177733Y0022433D01*
X0180160Y0022433D01*
X0181373Y0021220D01*
X0181373Y0020007D01*
X0137872Y0020007D02*
X0135445Y0022433D01*
X0135445Y0015153D01*
D11*
X0137295Y0029473D02*
X0139098Y0029473D01*
X0140000Y0030375D01*
X0136393Y0033982D01*
X0136393Y0030375D01*
X0137295Y0029473D01*
X0140000Y0030375D02*
X0140000Y0033982D01*
X0139098Y0034883D01*
X0137295Y0034883D01*
X0136393Y0033982D01*
X0136035Y0037347D02*
X0136035Y0042757D01*
X0133330Y0042757D01*
X0132428Y0041856D01*
X0132428Y0040052D01*
X0133330Y0039151D01*
X0136035Y0039151D01*
X0134232Y0039151D02*
X0132428Y0037347D01*
X0130597Y0037347D02*
X0127892Y0037347D01*
X0126991Y0038249D01*
X0126991Y0041856D01*
X0127892Y0042757D01*
X0130597Y0042757D01*
X0130597Y0037347D01*
X0137866Y0037347D02*
X0137866Y0040954D01*
X0139669Y0042757D01*
X0141473Y0040954D01*
X0141473Y0037347D01*
X0143304Y0038249D02*
X0143304Y0041856D01*
X0144205Y0042757D01*
X0146009Y0042757D01*
X0146910Y0041856D01*
X0146910Y0038249D01*
X0146009Y0037347D01*
X0144205Y0037347D01*
X0143304Y0038249D01*
X0141473Y0040052D02*
X0137866Y0040052D01*
X0146353Y0034883D02*
X0146353Y0029473D01*
X0148156Y0029473D02*
X0144549Y0029473D01*
X0142718Y0029473D02*
X0142718Y0030375D01*
X0141817Y0030375D01*
X0141817Y0029473D01*
X0142718Y0029473D01*
X0146353Y0034883D02*
X0148156Y0033080D01*
X0149643Y0037347D02*
X0152348Y0037347D01*
X0152348Y0042757D01*
X0149643Y0042757D01*
X0148741Y0041856D01*
X0148741Y0040954D01*
X0149643Y0040052D01*
X0152348Y0040052D01*
X0149643Y0040052D02*
X0148741Y0039151D01*
X0148741Y0038249D01*
X0149643Y0037347D01*
X0155425Y0032178D02*
X0155425Y0029473D01*
X0155425Y0032178D02*
X0156327Y0033080D01*
X0159032Y0033080D01*
X0159032Y0029473D01*
X0160863Y0030375D02*
X0160863Y0032178D01*
X0161764Y0033080D01*
X0163568Y0033080D01*
X0164469Y0032178D01*
X0164469Y0030375D01*
X0163568Y0029473D01*
X0161764Y0029473D01*
X0160863Y0030375D01*
X0166291Y0029473D02*
X0168094Y0029473D01*
X0167193Y0029473D02*
X0167193Y0033080D01*
X0168094Y0033080D01*
X0169925Y0033080D02*
X0172630Y0033080D01*
X0173532Y0032178D01*
X0172630Y0031277D01*
X0170827Y0031277D01*
X0169925Y0030375D01*
X0170827Y0029473D01*
X0173532Y0029473D01*
X0175359Y0033080D02*
X0176260Y0033080D01*
X0178064Y0031277D01*
X0178064Y0033080D02*
X0178064Y0029473D01*
X0179895Y0031277D02*
X0183501Y0031277D01*
X0183501Y0032178D02*
X0183501Y0030375D01*
X0182600Y0029473D01*
X0180796Y0029473D01*
X0179895Y0031277D02*
X0179895Y0032178D01*
X0180796Y0033080D01*
X0182600Y0033080D01*
X0183501Y0032178D01*
X0185332Y0031277D02*
X0185332Y0034883D01*
X0185894Y0037347D02*
X0187698Y0037347D01*
X0188600Y0038249D01*
X0187698Y0040052D02*
X0185894Y0040052D01*
X0184993Y0039151D01*
X0184993Y0038249D01*
X0185894Y0037347D01*
X0183162Y0038249D02*
X0182260Y0037347D01*
X0180457Y0037347D01*
X0179555Y0038249D01*
X0179555Y0041856D02*
X0180457Y0042757D01*
X0182260Y0042757D01*
X0183162Y0041856D01*
X0183162Y0038249D01*
X0184993Y0041856D02*
X0185894Y0042757D01*
X0187698Y0042757D01*
X0188600Y0041856D01*
X0188600Y0040954D01*
X0187698Y0040052D01*
X0190430Y0042757D02*
X0194037Y0042757D01*
X0192234Y0042757D02*
X0192234Y0037347D01*
X0195868Y0037347D02*
X0195868Y0042757D01*
X0199475Y0042757D02*
X0195868Y0037347D01*
X0199475Y0037347D02*
X0199475Y0042757D01*
X0188939Y0034883D02*
X0188939Y0031277D01*
X0187136Y0029473D01*
X0185332Y0031277D01*
X0172286Y0037347D02*
X0172286Y0042757D01*
X0168680Y0042757D02*
X0168680Y0037347D01*
X0166849Y0037347D02*
X0165045Y0037347D01*
X0165947Y0037347D02*
X0165947Y0042757D01*
X0166849Y0042757D02*
X0165045Y0042757D01*
X0163224Y0041856D02*
X0163224Y0038249D01*
X0162322Y0037347D01*
X0160518Y0037347D01*
X0159617Y0038249D01*
X0159617Y0041856D02*
X0160518Y0042757D01*
X0162322Y0042757D01*
X0163224Y0041856D01*
X0168680Y0040052D02*
X0172286Y0040052D01*
X0167193Y0035785D02*
X0167193Y0034883D01*
D12*
X0107887Y0134148D02*
X0107887Y0138476D01*
X0105723Y0138476D01*
X0105001Y0137754D01*
X0105001Y0136312D01*
X0105723Y0135590D01*
X0107887Y0135590D01*
X0103536Y0134869D02*
X0102815Y0135590D01*
X0100651Y0135590D01*
X0100651Y0136312D02*
X0100651Y0134148D01*
X0102815Y0134148D01*
X0103536Y0134869D01*
X0102815Y0137033D02*
X0101372Y0137033D01*
X0100651Y0136312D01*
X0099186Y0137033D02*
X0099186Y0134148D01*
X0099186Y0137033D02*
X0097022Y0137033D01*
X0096301Y0136312D01*
X0096301Y0134148D01*
X0094836Y0134869D02*
X0094115Y0135590D01*
X0091951Y0135590D01*
X0091951Y0136312D02*
X0091951Y0134148D01*
X0094115Y0134148D01*
X0094836Y0134869D01*
X0094115Y0137033D02*
X0092672Y0137033D01*
X0091951Y0136312D01*
X0090486Y0136312D02*
X0089765Y0137033D01*
X0087601Y0137033D01*
X0088322Y0135590D02*
X0089765Y0135590D01*
X0090486Y0136312D01*
X0090486Y0134148D02*
X0088322Y0134148D01*
X0087601Y0134869D01*
X0088322Y0135590D01*
X0086136Y0134869D02*
X0085414Y0134148D01*
X0083972Y0134148D01*
X0083250Y0134869D01*
X0083250Y0136312D01*
X0083972Y0137033D01*
X0085414Y0137033D01*
X0086136Y0136312D01*
X0086136Y0134869D01*
X0081786Y0134148D02*
X0081786Y0137033D01*
X0079622Y0137033D01*
X0078900Y0136312D01*
X0078900Y0134148D01*
X0077435Y0134148D02*
X0075993Y0134148D01*
X0076714Y0134148D02*
X0076714Y0137033D01*
X0077435Y0137033D01*
X0076714Y0138476D02*
X0076714Y0139197D01*
X0076000Y0141234D02*
X0078164Y0141234D01*
X0078885Y0141956D01*
X0078885Y0143398D01*
X0078164Y0144120D01*
X0076000Y0144120D01*
X0076000Y0145562D02*
X0076000Y0141234D01*
X0080350Y0142677D02*
X0083236Y0142677D01*
X0083236Y0143398D02*
X0082514Y0144120D01*
X0081072Y0144120D01*
X0080350Y0143398D01*
X0080350Y0142677D01*
X0081072Y0141234D02*
X0082514Y0141234D01*
X0083236Y0141956D01*
X0083236Y0143398D01*
X0084700Y0143398D02*
X0084700Y0141234D01*
X0084700Y0143398D02*
X0085422Y0144120D01*
X0087586Y0144120D01*
X0087586Y0141234D01*
X0089051Y0141234D02*
X0091215Y0141234D01*
X0091936Y0141956D01*
X0091936Y0143398D01*
X0091215Y0144120D01*
X0089051Y0144120D01*
X0089051Y0140513D01*
X0089772Y0139792D01*
X0090493Y0139792D01*
X0093393Y0141234D02*
X0094836Y0141234D01*
X0094115Y0141234D02*
X0094115Y0144120D01*
X0094836Y0144120D01*
X0096301Y0144120D02*
X0098465Y0144120D01*
X0099186Y0143398D01*
X0098465Y0142677D01*
X0097022Y0142677D01*
X0096301Y0141956D01*
X0097022Y0141234D01*
X0099186Y0141234D01*
X0100651Y0142677D02*
X0103536Y0142677D01*
X0103536Y0143398D02*
X0102815Y0144120D01*
X0101372Y0144120D01*
X0100651Y0143398D01*
X0100651Y0142677D01*
X0101372Y0141234D02*
X0102815Y0141234D01*
X0103536Y0141956D01*
X0103536Y0143398D01*
X0105001Y0141956D02*
X0105723Y0141234D01*
X0107887Y0141234D01*
X0107887Y0145562D01*
X0105723Y0145562D01*
X0105001Y0144841D01*
X0105001Y0141956D01*
X0094115Y0145562D02*
X0094115Y0146284D01*
X0074535Y0136312D02*
X0074535Y0134869D01*
X0073814Y0134148D01*
X0071650Y0134148D01*
X0071650Y0137033D02*
X0073814Y0137033D01*
X0074535Y0136312D01*
X0069464Y0141234D02*
X0069464Y0144841D01*
X0068742Y0145562D01*
X0067285Y0143398D02*
X0066564Y0144120D01*
X0065121Y0144120D01*
X0064400Y0143398D01*
X0064400Y0141956D01*
X0065121Y0141234D01*
X0066564Y0141234D01*
X0067285Y0141956D01*
X0067285Y0143398D01*
X0068742Y0143398D02*
X0070185Y0143398D01*
X0065835Y0138476D02*
X0064392Y0137033D01*
X0062950Y0138476D01*
X0062950Y0134148D01*
X0061485Y0134869D02*
X0060763Y0134148D01*
X0059321Y0134148D01*
X0058599Y0134869D01*
X0058599Y0135590D01*
X0059321Y0136312D01*
X0060763Y0136312D01*
X0061485Y0137033D01*
X0061485Y0137754D01*
X0060763Y0138476D01*
X0059321Y0138476D01*
X0058599Y0137754D01*
X0057135Y0138476D02*
X0054249Y0134148D01*
X0052784Y0134148D02*
X0049899Y0137033D01*
X0049899Y0137754D01*
X0050620Y0138476D01*
X0052063Y0138476D01*
X0052784Y0137754D01*
X0054249Y0138476D02*
X0057135Y0134148D01*
X0052784Y0134148D02*
X0049899Y0134148D01*
X0044084Y0134869D02*
X0044084Y0135590D01*
X0042641Y0137033D01*
X0042641Y0137754D01*
X0043363Y0138476D01*
X0044084Y0137754D01*
X0044084Y0137033D01*
X0041199Y0134148D01*
X0041199Y0135590D02*
X0042641Y0134148D01*
X0043363Y0134148D01*
X0044084Y0134869D01*
X0040466Y0139792D02*
X0039745Y0139792D01*
X0039024Y0140513D01*
X0039024Y0144120D01*
X0041909Y0144120D02*
X0041909Y0141956D01*
X0041188Y0141234D01*
X0039024Y0141234D01*
X0043374Y0141234D02*
X0043374Y0143398D01*
X0044095Y0144120D01*
X0046259Y0144120D01*
X0046259Y0141234D01*
X0047724Y0141956D02*
X0047724Y0143398D01*
X0048445Y0144120D01*
X0049888Y0144120D01*
X0050609Y0143398D01*
X0050609Y0141956D01*
X0049888Y0141234D01*
X0048445Y0141234D01*
X0047724Y0141956D01*
X0052074Y0141956D02*
X0052795Y0141234D01*
X0054238Y0141234D01*
X0054960Y0141956D01*
X0054238Y0143398D02*
X0052795Y0143398D01*
X0052074Y0142677D01*
X0052074Y0141956D01*
X0054238Y0143398D02*
X0054960Y0144120D01*
X0054960Y0144841D01*
X0054238Y0145562D01*
X0052795Y0145562D01*
X0052074Y0144841D01*
X0060771Y0144120D02*
X0061492Y0144120D01*
X0062935Y0142677D01*
X0062935Y0141234D02*
X0062935Y0144120D01*
X0065835Y0138476D02*
X0065835Y0134148D01*
X0035384Y0134148D02*
X0035384Y0138476D01*
X0033941Y0137033D01*
X0032498Y0138476D01*
X0032498Y0134148D01*
X0031034Y0134869D02*
X0030312Y0134148D01*
X0028870Y0134148D01*
X0028148Y0134869D01*
X0028148Y0135590D01*
X0028870Y0136312D01*
X0030312Y0136312D01*
X0031034Y0137033D01*
X0031034Y0137754D01*
X0030312Y0138476D01*
X0028870Y0138476D01*
X0028148Y0137754D01*
X0026683Y0138476D02*
X0023798Y0134148D01*
X0022333Y0134148D02*
X0019448Y0137033D01*
X0019448Y0137754D01*
X0020169Y0138476D01*
X0021612Y0138476D01*
X0022333Y0137754D01*
X0023798Y0138476D02*
X0026683Y0134148D01*
X0022333Y0134148D02*
X0019448Y0134148D01*
X0017983Y0136312D02*
X0015098Y0136312D01*
X0016540Y0137754D02*
X0016540Y0134869D01*
X0021623Y0141234D02*
X0023787Y0141234D01*
X0024508Y0141956D01*
X0024508Y0143398D01*
X0023787Y0144120D01*
X0021623Y0144120D01*
X0021623Y0145562D02*
X0021623Y0141234D01*
X0025973Y0141234D02*
X0025973Y0143398D01*
X0026694Y0144120D01*
X0028859Y0144120D01*
X0028859Y0141234D01*
X0030323Y0141234D02*
X0030323Y0143398D01*
X0031045Y0144120D01*
X0032487Y0144120D01*
X0032487Y0142677D02*
X0030323Y0142677D01*
X0030323Y0141234D02*
X0032487Y0141234D01*
X0033209Y0141956D01*
X0032487Y0142677D01*
D13*
X0056709Y0127648D02*
X0056709Y0119971D01*
X0034071Y0064853D02*
X0034071Y0057176D01*
X0025803Y0057176D02*
X0025803Y0064853D01*
X0025803Y0045365D02*
X0025803Y0037688D01*
X0034071Y0037688D02*
X0034071Y0045365D01*
X0155528Y0110326D02*
X0155528Y0118003D01*
X0164189Y0128042D02*
X0164189Y0135719D01*
D14*
X0017507Y0036746D02*
X0013867Y0036746D01*
X0015080Y0036746D02*
X0015080Y0038566D01*
X0015687Y0039173D01*
X0016900Y0039173D01*
X0017507Y0038566D01*
X0017507Y0036746D01*
X0015080Y0037959D02*
X0013867Y0039173D01*
X0014473Y0040371D02*
X0013867Y0040978D01*
X0013867Y0042191D01*
X0014473Y0042798D01*
X0015080Y0042798D01*
X0015687Y0042191D01*
X0015687Y0041584D01*
X0015687Y0042191D02*
X0016293Y0042798D01*
X0016900Y0042798D01*
X0017507Y0042191D01*
X0017507Y0040978D01*
X0016900Y0040371D01*
X0015687Y0043996D02*
X0014473Y0043996D01*
X0013867Y0044603D01*
X0013867Y0045816D01*
X0014473Y0046423D01*
X0015080Y0046423D01*
X0015687Y0045816D01*
X0015687Y0043996D01*
X0016900Y0045209D01*
X0017507Y0046423D01*
X0028197Y0045869D02*
X0028804Y0045262D01*
X0028197Y0045869D02*
X0028197Y0047082D01*
X0028804Y0047689D01*
X0029411Y0047689D01*
X0030017Y0047082D01*
X0030017Y0046476D01*
X0030017Y0047082D02*
X0030624Y0047689D01*
X0031231Y0047689D01*
X0031837Y0047082D01*
X0031837Y0045869D01*
X0031231Y0045262D01*
X0031231Y0044064D02*
X0030017Y0044064D01*
X0029411Y0043457D01*
X0029411Y0041637D01*
X0029411Y0042850D02*
X0028197Y0044064D01*
X0028197Y0041637D02*
X0031837Y0041637D01*
X0031837Y0043457D01*
X0031231Y0044064D01*
X0031837Y0048887D02*
X0031837Y0051314D01*
X0031231Y0051314D01*
X0028804Y0048887D01*
X0028197Y0048887D01*
X0017507Y0058045D02*
X0016900Y0057438D01*
X0014473Y0057438D01*
X0013867Y0058045D01*
X0013867Y0059258D01*
X0014473Y0059865D01*
X0014473Y0061063D02*
X0013867Y0061670D01*
X0013867Y0062883D01*
X0014473Y0063490D01*
X0015080Y0063490D01*
X0015687Y0062883D01*
X0015687Y0062276D01*
X0015687Y0062883D02*
X0016293Y0063490D01*
X0016900Y0063490D01*
X0017507Y0062883D01*
X0017507Y0061670D01*
X0016900Y0061063D01*
X0016900Y0059865D02*
X0017507Y0059258D01*
X0017507Y0058045D01*
X0027176Y0068389D02*
X0027176Y0072029D01*
X0028997Y0070209D01*
X0026570Y0070209D01*
X0030195Y0068996D02*
X0030802Y0068389D01*
X0032015Y0068389D01*
X0032622Y0068996D01*
X0032622Y0071422D01*
X0032015Y0072029D01*
X0030802Y0072029D01*
X0030195Y0071422D01*
X0042646Y0062883D02*
X0042646Y0061670D01*
X0043253Y0061063D01*
X0043253Y0059865D02*
X0042646Y0059258D01*
X0042646Y0058045D01*
X0043253Y0057438D01*
X0045679Y0057438D01*
X0046286Y0058045D01*
X0046286Y0059258D01*
X0045679Y0059865D01*
X0046286Y0061063D02*
X0044466Y0061063D01*
X0045073Y0062276D01*
X0045073Y0062883D01*
X0044466Y0063490D01*
X0043253Y0063490D01*
X0042646Y0062883D01*
X0046286Y0063490D02*
X0046286Y0061063D01*
X0045443Y0046620D02*
X0044837Y0046620D01*
X0044230Y0046013D01*
X0044230Y0044800D01*
X0044837Y0044193D01*
X0045443Y0044193D01*
X0046050Y0044800D01*
X0046050Y0046013D01*
X0045443Y0046620D01*
X0044230Y0046013D02*
X0043623Y0046620D01*
X0043017Y0046620D01*
X0042410Y0046013D01*
X0042410Y0044800D01*
X0043017Y0044193D01*
X0043623Y0044193D01*
X0044230Y0044800D01*
X0044837Y0042995D02*
X0044230Y0042388D01*
X0043623Y0042995D01*
X0043017Y0042995D01*
X0042410Y0042388D01*
X0042410Y0041174D01*
X0043017Y0040568D01*
X0042410Y0039369D02*
X0043623Y0038156D01*
X0043623Y0038763D02*
X0043623Y0036943D01*
X0042410Y0036943D02*
X0046050Y0036943D01*
X0046050Y0038763D01*
X0045443Y0039369D01*
X0044230Y0039369D01*
X0043623Y0038763D01*
X0045443Y0040568D02*
X0046050Y0041174D01*
X0046050Y0042388D01*
X0045443Y0042995D01*
X0044837Y0042995D01*
X0044230Y0042388D02*
X0044230Y0041781D01*
X0071894Y0092129D02*
X0071288Y0092736D01*
X0071288Y0093949D01*
X0071894Y0094556D01*
X0071288Y0095754D02*
X0071288Y0098181D01*
X0071288Y0099379D02*
X0073715Y0101806D01*
X0074321Y0101806D01*
X0074928Y0101199D01*
X0074928Y0099986D01*
X0074321Y0099379D01*
X0071288Y0099379D02*
X0071288Y0101806D01*
X0071288Y0096968D02*
X0074928Y0096968D01*
X0073715Y0095754D01*
X0074321Y0094556D02*
X0074928Y0093949D01*
X0074928Y0092736D01*
X0074321Y0092129D01*
X0071894Y0092129D01*
X0069022Y0119039D02*
X0065382Y0119039D01*
X0066596Y0119039D02*
X0066596Y0120859D01*
X0067202Y0121465D01*
X0068416Y0121465D01*
X0069022Y0120859D01*
X0069022Y0119039D01*
X0066596Y0120252D02*
X0065382Y0121465D01*
X0065382Y0122664D02*
X0065382Y0125090D01*
X0065382Y0126289D02*
X0065989Y0126289D01*
X0068416Y0128716D01*
X0069022Y0128716D01*
X0069022Y0126289D01*
X0069022Y0123877D02*
X0065382Y0123877D01*
X0067809Y0122664D02*
X0069022Y0123877D01*
X0047408Y0123995D02*
X0046195Y0122782D01*
X0046802Y0121583D02*
X0045588Y0121583D01*
X0044981Y0120977D01*
X0044981Y0119157D01*
X0043768Y0119157D02*
X0047408Y0119157D01*
X0047408Y0120977D01*
X0046802Y0121583D01*
X0044981Y0120370D02*
X0043768Y0121583D01*
X0043768Y0122782D02*
X0043768Y0125209D01*
X0043768Y0123995D02*
X0047408Y0123995D01*
X0045588Y0126407D02*
X0045588Y0128227D01*
X0044981Y0128834D01*
X0044375Y0128834D01*
X0043768Y0128227D01*
X0043768Y0127014D01*
X0044375Y0126407D01*
X0045588Y0126407D01*
X0046802Y0127620D01*
X0047408Y0128834D01*
X0016955Y0098572D02*
X0016349Y0099179D01*
X0013922Y0099179D01*
X0013315Y0098572D01*
X0013315Y0097359D01*
X0013922Y0096752D01*
X0013922Y0095554D02*
X0013315Y0094947D01*
X0013315Y0093734D01*
X0013922Y0093127D01*
X0016349Y0093127D01*
X0016955Y0093734D01*
X0016955Y0094947D01*
X0016349Y0095554D01*
X0016349Y0096752D02*
X0015742Y0096752D01*
X0015135Y0097359D01*
X0015135Y0099179D01*
X0016955Y0098572D02*
X0016955Y0097359D01*
X0016349Y0096752D01*
X0141386Y0109944D02*
X0145026Y0109944D01*
X0145026Y0111764D01*
X0144420Y0112371D01*
X0143206Y0112371D01*
X0142600Y0111764D01*
X0142600Y0109944D01*
X0142600Y0111157D02*
X0141386Y0112371D01*
X0141386Y0113569D02*
X0143813Y0115996D01*
X0144420Y0115996D01*
X0145026Y0115389D01*
X0145026Y0114176D01*
X0144420Y0113569D01*
X0141386Y0113569D02*
X0141386Y0115996D01*
X0141993Y0117194D02*
X0141386Y0117801D01*
X0141386Y0119014D01*
X0141993Y0119621D01*
X0144420Y0119621D01*
X0145026Y0119014D01*
X0145026Y0117801D01*
X0144420Y0117194D01*
X0143813Y0117194D01*
X0143206Y0117801D01*
X0143206Y0119621D01*
X0151032Y0126873D02*
X0154672Y0126873D01*
X0154672Y0128693D01*
X0154065Y0129300D01*
X0152852Y0129300D01*
X0152245Y0128693D01*
X0152245Y0126873D01*
X0152245Y0128087D02*
X0151032Y0129300D01*
X0151032Y0130498D02*
X0153459Y0132925D01*
X0154065Y0132925D01*
X0154672Y0132318D01*
X0154672Y0131105D01*
X0154065Y0130498D01*
X0151032Y0130498D02*
X0151032Y0132925D01*
X0151639Y0134123D02*
X0151032Y0134730D01*
X0151032Y0135944D01*
X0151639Y0136550D01*
X0152852Y0136550D01*
X0153459Y0135944D01*
X0153459Y0135337D01*
X0152852Y0134123D01*
X0154672Y0134123D01*
X0154672Y0136550D01*
X0146798Y0134287D02*
X0146798Y0133074D01*
X0146191Y0132467D01*
X0145585Y0132467D01*
X0144978Y0133074D01*
X0144978Y0134894D01*
X0143765Y0134894D02*
X0146191Y0134894D01*
X0146798Y0134287D01*
X0143765Y0134894D02*
X0143158Y0134287D01*
X0143158Y0133074D01*
X0143765Y0132467D01*
X0143158Y0131268D02*
X0144371Y0130055D01*
X0144371Y0130662D02*
X0144371Y0128842D01*
X0143158Y0128842D02*
X0146798Y0128842D01*
X0146798Y0130662D01*
X0146191Y0131268D01*
X0144978Y0131268D01*
X0144371Y0130662D01*
X0165796Y0119286D02*
X0165796Y0116860D01*
X0168222Y0119286D01*
X0168829Y0119286D01*
X0169436Y0118680D01*
X0169436Y0117466D01*
X0168829Y0116860D01*
X0168829Y0115661D02*
X0168222Y0115661D01*
X0165796Y0113235D01*
X0165796Y0115661D01*
X0168829Y0115661D02*
X0169436Y0115055D01*
X0169436Y0113841D01*
X0168829Y0113235D01*
X0168829Y0112036D02*
X0169436Y0111430D01*
X0169436Y0110216D01*
X0168829Y0109609D01*
X0166402Y0109609D01*
X0165796Y0110216D01*
X0165796Y0111430D01*
X0166402Y0112036D01*
X0173709Y0126903D02*
X0177349Y0126903D01*
X0177349Y0128723D01*
X0176742Y0129330D01*
X0175529Y0129330D01*
X0174922Y0128723D01*
X0174922Y0126903D01*
X0174922Y0128117D02*
X0173709Y0129330D01*
X0174316Y0130528D02*
X0173709Y0131135D01*
X0173709Y0132348D01*
X0174316Y0132955D01*
X0174922Y0132955D01*
X0175529Y0132348D01*
X0175529Y0131742D01*
X0175529Y0132348D02*
X0176136Y0132955D01*
X0176742Y0132955D01*
X0177349Y0132348D01*
X0177349Y0131135D01*
X0176742Y0130528D01*
X0175529Y0134154D02*
X0175529Y0136580D01*
X0173709Y0135974D02*
X0177349Y0135974D01*
X0175529Y0134154D01*
M02*
