%
M48
M72
T01C0.0236
T02C0.0394
T03C0.0472
%
T01
X887Y1800
X2383Y2371
X3880Y1800
X4883Y1800
X5868Y1800
X6301Y3355
X5041Y4576
X5198Y5068
X6419Y5068
X7364Y4970
X8506Y4202
X9313Y3001
X8683Y2647
X10887Y3159
X11399Y4143
X13368Y5009
X12974Y5934
X12757Y6505
X13486Y6918
X14450Y6879
X15198Y6899
X17187Y6918
X17639Y8513
X17403Y9044
X18663Y8926
X19844Y8926
X19313Y7253
X19017Y4812
X18112Y4832
X14982Y8651
X15631Y9123
X13978Y8651
X12856Y9143
X11970Y8710
X11104Y9517
X13486Y11387
X13978Y11033
X13880Y12233
X12226Y11741
X11439Y12824
X10198Y14753
X6734Y13808
X8151Y10855
X6045Y9970
X5651Y10324
X4155Y10048
X2895Y9281
X4647Y8828
X3151Y7470
X2659Y7470
X2167Y7470
X1537Y5107
X927Y5127
X4569Y3533
X8191Y7076
X8191Y7863
X8053Y8375
X6143Y7214
X9687Y6466
X11891Y1800
X12895Y1800
X16754Y10560
X18387Y10599
X19529Y12292
X18387Y14044
X17403Y14044
X16419Y14044
X15395Y14044
X1852Y13887
X848Y13887
T02
X7165Y12316
X9133Y12316
T03
X883Y505
X1883Y505
X2883Y505
X3883Y505
X4883Y505
X5883Y505
X6883Y505
X7883Y505
X8883Y505
X9883Y505
X10883Y505
X11883Y505
X12883Y505
X13883Y505
X14883Y505
X15883Y505
X16883Y505
X17883Y505
X18883Y505
X19883Y505
X19883Y15261
X18883Y15261
X17883Y15261
X16883Y15261
X15883Y15261
X14883Y15261
X13883Y15261
X12883Y15261
X11883Y15261
X10883Y15261
M30
